G04*
G04 #@! TF.GenerationSoftware,Altium Limited,Altium Designer,25.4.2 (15)*
G04*
G04 Layer_Physical_Order=1*
G04 Layer_Color=255*
%FSLAX44Y44*%
%MOMM*%
G71*
G04*
G04 #@! TF.SameCoordinates,4A3AD181-7CB4-4688-AC2E-BB694ACB6322*
G04*
G04*
G04 #@! TF.FilePolarity,Positive*
G04*
G01*
G75*
%ADD16R,1.4986X1.3208*%
%ADD17R,0.9000X1.5000*%
%ADD18R,1.5000X0.9000*%
%ADD19R,0.9000X0.9000*%
%ADD20R,0.9500X1.2000*%
%ADD21R,1.1000X1.2500*%
%ADD22R,1.4986X1.2700*%
%ADD23R,0.9398X0.7620*%
%ADD24R,1.4500X1.1500*%
%ADD25R,1.2508X1.2088*%
%ADD26R,1.4000X1.0500*%
%ADD27R,1.1500X1.1500*%
%ADD36C,1.4986*%
%ADD39R,1.4986X1.4986*%
%ADD40R,1.4986X1.4986*%
%ADD41R,1.3208X1.3208*%
%ADD42C,1.3208*%
%ADD49C,0.2946*%
%ADD50C,2.7178*%
%ADD51C,0.2946*%
%ADD52R,1.9200X1.9200*%
%ADD53C,1.9200*%
%ADD54R,1.5000X1.5000*%
%ADD55C,1.5000*%
%ADD56C,4.1550*%
%ADD57C,1.9500*%
%ADD58C,1.8000*%
%ADD59C,1.2700*%
D16*
X481330Y1137666D02*
D03*
Y1117600D02*
D03*
X1371600Y497840D02*
D03*
Y477774D02*
D03*
D17*
X1765000Y901840D02*
D03*
X1752300D02*
D03*
X1739600D02*
D03*
X1726900D02*
D03*
X1714200D02*
D03*
X1701500D02*
D03*
X1688800D02*
D03*
X1676100D02*
D03*
X1663400D02*
D03*
X1650700D02*
D03*
X1638000D02*
D03*
X1625300D02*
D03*
X1612600D02*
D03*
X1599900D02*
D03*
Y726840D02*
D03*
X1612600D02*
D03*
X1625300D02*
D03*
X1638000D02*
D03*
X1650700D02*
D03*
X1663400D02*
D03*
X1676100D02*
D03*
X1688800D02*
D03*
X1701500D02*
D03*
X1714200D02*
D03*
X1726900D02*
D03*
X1739600D02*
D03*
X1752300D02*
D03*
X1765000D02*
D03*
D18*
X1587400Y884190D02*
D03*
Y871490D02*
D03*
Y858790D02*
D03*
Y846090D02*
D03*
Y833390D02*
D03*
Y820690D02*
D03*
Y807990D02*
D03*
Y795290D02*
D03*
Y782590D02*
D03*
Y769890D02*
D03*
Y757190D02*
D03*
Y744490D02*
D03*
D19*
X1687800Y829340D02*
D03*
Y815340D02*
D03*
X1701800D02*
D03*
Y829340D02*
D03*
Y843340D02*
D03*
X1687800D02*
D03*
X1673800D02*
D03*
Y829340D02*
D03*
Y815340D02*
D03*
D20*
X1383030Y929980D02*
D03*
Y908980D02*
D03*
D21*
X1379220Y698180D02*
D03*
Y721680D02*
D03*
D22*
X1371600Y352933D02*
D03*
Y373507D02*
D03*
X480060Y990473D02*
D03*
Y1011047D02*
D03*
D23*
X632460Y957326D02*
D03*
Y977900D02*
D03*
X635000Y476123D02*
D03*
Y496697D02*
D03*
X1689100Y1163320D02*
D03*
Y1183894D02*
D03*
X1537970Y596773D02*
D03*
Y617347D02*
D03*
D24*
X1535430Y433070D02*
D03*
Y415070D02*
D03*
D25*
X1544320Y1059834D02*
D03*
Y1040746D02*
D03*
D26*
X1536700Y490270D02*
D03*
Y509270D02*
D03*
X1560830Y1151940D02*
D03*
Y1170940D02*
D03*
X635000Y1038250D02*
D03*
Y1057250D02*
D03*
Y367030D02*
D03*
Y386030D02*
D03*
X1532890Y323240D02*
D03*
Y342240D02*
D03*
X309880Y1117600D02*
D03*
Y1136600D02*
D03*
D27*
X1374140Y618810D02*
D03*
Y595310D02*
D03*
X1386840Y1027430D02*
D03*
Y1003930D02*
D03*
D36*
X485140Y276860D02*
D03*
X510540D02*
D03*
X535940D02*
D03*
X1758950Y485140D02*
D03*
Y459740D02*
D03*
Y434340D02*
D03*
X1725930Y1031240D02*
D03*
Y986240D02*
D03*
X1660930D02*
D03*
X610870Y665480D02*
D03*
X655870D02*
D03*
Y600480D02*
D03*
X612140Y847090D02*
D03*
X657140D02*
D03*
Y782090D02*
D03*
X1725930Y632460D02*
D03*
Y587460D02*
D03*
X1660930D02*
D03*
D39*
Y1031240D02*
D03*
Y632460D02*
D03*
D40*
X610870Y600480D02*
D03*
X612140Y782090D02*
D03*
D41*
X308610Y1223010D02*
D03*
D42*
Y1248410D02*
D03*
D49*
X928825Y790852D02*
G03*
X924927Y787120I105J-4012D01*
G01*
X919039Y725179D02*
G03*
X919480Y721360I10633J-707D01*
G01*
X1717974Y1001255D02*
G03*
X1715576Y972766I7956J-15015D01*
G01*
X1718352Y1001449D02*
G03*
X1717974Y1001255I7578J-15209D01*
G01*
X1739465Y1000773D02*
G03*
X1744638Y1003543I-2105J10147D01*
G01*
X1711873Y1003781D02*
G03*
X1712223Y968423I14058J-17541D01*
G01*
X1723611Y997510D02*
G03*
X1722534Y975246I2319J-11270D01*
G01*
X1573848Y516221D02*
G03*
X1574928Y518502I-1866J2280D01*
G01*
X1546693Y438820D02*
G03*
X1546676Y439196I-4013J-0D01*
G01*
X1546693Y438820D02*
G03*
X1546676Y439196I-4013J-0D01*
G01*
X1545748Y424733D02*
G03*
X1546693Y427320I-3068J2587D01*
G01*
X1545748Y424733D02*
G03*
X1546693Y427320I-3068J2587D01*
G01*
X1543391Y616922D02*
G03*
X1542415Y617042I-976J-3893D01*
G01*
X1543391Y616922D02*
G03*
X1542415Y617042I-976J-3893D01*
G01*
X1722108Y1042093D02*
G03*
X1721444Y1041836I3822J-10853D01*
G01*
X1722108Y1042093D02*
G03*
X1721444Y1041836I3822J-10853D01*
G01*
X1669129Y1019797D02*
G03*
X1669987Y1020051I-706J3950D01*
G01*
X1577377Y736869D02*
G03*
X1579191Y736040I2523J3121D01*
G01*
X1577377Y736869D02*
G03*
X1579191Y736040I2523J3121D01*
G01*
X1551168Y755165D02*
X1551169D01*
X1436982Y786548D02*
G03*
X1437937Y785901I2099J2068D01*
G01*
X1436982Y786548D02*
G03*
X1437937Y785901I2099J2068D01*
G01*
X1595400Y913353D02*
G03*
X1595151Y913345I0J-4013D01*
G01*
X1643228Y931706D02*
G03*
X1643064Y933702I-13919J-138D01*
G01*
X1643228Y931675D02*
G03*
X1643228Y931706I-5486J1D01*
G01*
X569889Y790656D02*
G03*
X567888Y791027I-1504J-2534D01*
G01*
X602591Y771150D02*
G03*
X604097Y770621I2056J3447D01*
G01*
X673173Y758605D02*
G03*
X670632Y761419I-2945J-105D01*
G01*
X674896Y726021D02*
G03*
X674287Y726292I-15823J-34715D01*
G01*
X1756150Y964862D02*
G03*
X1759966Y967654I870J2815D01*
G01*
X1476281Y1021408D02*
G03*
X1478755Y1022372I282J2933D01*
G01*
X1476281Y1021408D02*
G03*
X1476282Y1021408I282J2933D01*
G01*
X1389579Y721383D02*
G03*
X1389473Y723186I-10359J297D01*
G01*
X1389579Y721383D02*
G03*
X1389473Y723186I-10359J297D01*
G01*
X1141644Y1220024D02*
G03*
X1122353Y1223095I-10604J-4484D01*
G01*
X1044959Y1238572D02*
G03*
X1044875Y1238574I-173J-5484D01*
G01*
X1103322Y1212230D02*
G03*
X1115260Y1214939I4118J9510D01*
G01*
X911172Y1240736D02*
G03*
X903261Y1235575I-138J-8432D01*
G01*
X844246Y1170222D02*
G03*
X843679Y1169927I11144J-22142D01*
G01*
X526566Y1132882D02*
G03*
X510490Y1148283I-16076J-690D01*
G01*
X453593D02*
G03*
X439458Y1135145I0J-14173D01*
G01*
X320893Y1122864D02*
G03*
X320289Y1124969I-4013J-14D01*
G01*
X322373Y969010D02*
G03*
X322373Y969142I-13763J0D01*
G01*
X321101Y677958D02*
G03*
X321103Y678107I-13761J222D01*
G01*
X318048Y516971D02*
G03*
X318561Y520478I-13248J3729D01*
G01*
X1590535Y720192D02*
G03*
X1590000Y721135I-2787J-956D01*
G01*
X1209938Y797505D02*
G03*
X1208872Y797610I-1065J-5382D01*
G01*
X1186348D02*
G03*
X1186218Y797608I0J-5486D01*
G01*
D02*
G03*
X1186204Y797608I130J-5485D01*
G01*
X1178216Y730198D02*
G03*
X1178139Y729859I17131J-4044D01*
G01*
X1051239Y297105D02*
G03*
X1085267Y298505I16831J5155D01*
G01*
X1660930Y1003233D02*
G03*
X1653153Y1001348I0J-16993D01*
G01*
X1045135Y1244055D02*
G03*
X1044953Y1244060I-349J-10967D01*
G01*
X1054377Y1240179D02*
G03*
X1045135Y1244055I-9644J-10037D01*
G01*
X1301371Y1233740D02*
G03*
X1299498Y1234456I-1925J-2230D01*
G01*
X1634624Y991801D02*
G03*
X1625132Y983212I11394J-22131D01*
G01*
X911274Y1246221D02*
G03*
X900913Y1241860I-240J-13917D01*
G01*
X898735Y1240937D02*
G03*
X900913Y1241860I36J2946D01*
G01*
X298565Y1231680D02*
G03*
X297993Y1229614I3441J-2066D01*
G01*
Y1216406D02*
G03*
X297994Y1216311I4013J0D01*
G01*
X299694Y1144290D02*
G03*
X298867Y1141850I3186J-2440D01*
G01*
Y1131350D02*
G03*
X299471Y1129232I4013J0D01*
G01*
X1047679Y1230074D02*
G03*
X1044786Y1233088I-2946J68D01*
G01*
X1047679Y1230074D02*
G03*
X1044786Y1233088I-2946J68D01*
G01*
X911081Y1235250D02*
G03*
X908088Y1232252I-48J-2946D01*
G01*
X911081Y1235250D02*
G03*
X908088Y1232252I-48J-2946D01*
G01*
X1044010Y1072345D02*
G03*
X1046956Y1069340I2946J-58D01*
G01*
X1044010Y1072345D02*
G03*
X1046956Y1069340I2946J-58D01*
G01*
X1220509Y1069339D02*
G03*
X1220431Y1069340I-78J-2945D01*
G01*
X1220509Y1069339D02*
G03*
X1220431Y1069340I-78J-2945D01*
G01*
X1257964Y1222567D02*
G03*
X1256514Y1223056I-1634J-2452D01*
G01*
X1257964Y1222567D02*
G03*
X1256514Y1223056I-1634J-2452D01*
G01*
X669036Y957722D02*
G03*
X641067Y977595I-24284J-4560D01*
G01*
X489768Y763714D02*
G03*
X490378Y763260I29624J39186D01*
G01*
X490432Y763220D02*
G03*
X490853Y762916I28960J39679D01*
G01*
X490853Y762916D02*
G03*
X490862Y762910I3200J4456D01*
G01*
X352313Y926360D02*
G03*
X332869Y935785I-33073J-43456D01*
G01*
X314440Y940551D02*
G03*
X314335Y940578I-10214J-39388D01*
G01*
X1660930Y997746D02*
G03*
X1655660Y996468I0J-11506D01*
G01*
X1660930Y997746D02*
G03*
X1655660Y996468I0J-11506D01*
G01*
X1657879Y975145D02*
G03*
X1660930Y974734I3050J11094D01*
G01*
X1657879Y975145D02*
G03*
X1660930Y974734I3050J11094D01*
G01*
X1637130Y986920D02*
G03*
X1626838Y966717I8888J-17250D01*
G01*
X1627286Y929426D02*
G03*
X1632220Y932021I2022J2143D01*
G01*
X1627286Y929426D02*
G03*
X1632220Y932021I2022J2143D01*
G01*
X494053Y767373D02*
G03*
X494062Y767367I10188J14354D01*
G01*
X494053Y767373D02*
G03*
X494062Y767367I10188J14354D01*
G01*
X348991Y921993D02*
G03*
X331508Y930471I-29751J-39090D01*
G01*
X348991Y921993D02*
G03*
X331508Y930471I-29751J-39090D01*
G01*
X313060Y935241D02*
G03*
X312959Y935266I-8833J-34078D01*
G01*
D02*
G03*
X294634Y928911I-4350J-17056D01*
G01*
X327670Y893980D02*
G03*
X322724Y896379I-8430J-11076D01*
G01*
X327670Y893980D02*
G03*
X322724Y896379I-8430J-11076D01*
G01*
X294634Y928911D02*
G03*
X304200Y901169I13976J-10701D01*
G01*
X294634Y928911D02*
G03*
X304199Y901169I13976J-10701D01*
G01*
X643838Y371460D02*
G03*
X677933Y412874I-8181J41476D01*
G01*
X502010Y762874D02*
G03*
X502044Y762859I17383J40026D01*
G01*
X502010Y762874D02*
G03*
X502044Y762859I17383J40026D01*
G01*
X494062Y767366D02*
G03*
X501966Y762893I25330J35533D01*
G01*
X494062Y767366D02*
G03*
X501966Y762893I25330J35533D01*
G01*
X523690Y753509D02*
G03*
X523619Y753540I-3396J-7719D01*
G01*
X523691Y753508D02*
G03*
X523619Y753540I-3398J-7718D01*
G01*
X1392590Y994167D02*
G03*
X1396603Y998180I-0J4013D01*
G01*
X1392590Y994167D02*
G03*
X1396603Y998180I-0J4013D01*
G01*
X1382834Y994155D02*
G03*
X1379895Y991208I7J-2946D01*
G01*
X1382834Y994155D02*
G03*
X1379895Y991208I7J-2946D01*
G01*
Y991208D02*
G03*
X1379897Y991096I2946J0D01*
G01*
X1379895Y991208D02*
G03*
X1379897Y991096I2946J0D01*
G01*
X1769208Y454528D02*
G03*
X1763820Y470165I-10258J5212D01*
G01*
X1769208Y454528D02*
G03*
X1763820Y470165I-10258J5212D01*
G01*
X1747556Y486741D02*
G03*
X1754080Y474715I11394J-1601D01*
G01*
X1747556Y486741D02*
G03*
X1754080Y474715I11394J-1601D01*
G01*
X1145436Y1211056D02*
G03*
X1159543Y1204573I10604J4484D01*
G01*
X1051646Y1235198D02*
G03*
X1054094Y1233580I5803J6119D01*
G01*
X1051619Y1235224D02*
G03*
X1051647Y1235198I3793J3964D01*
G01*
X1050586Y1236213D02*
G03*
X1044959Y1238572I-5853J-6071D01*
G01*
X897778Y1222546D02*
G03*
X911893Y1207113I10612J-4466D01*
G01*
X1055422Y1239179D02*
G03*
X1057390Y1238371I2028J2138D01*
G01*
X1646112Y911090D02*
G03*
X1645272Y912242I-3612J-1750D01*
G01*
X514473Y796050D02*
G03*
X516022Y795169I4919J6849D01*
G01*
X991443Y1051545D02*
G03*
X989877Y1051126I-50J-2946D01*
G01*
X1648276Y977795D02*
G03*
X1637687Y968364I-2258J-8125D01*
G01*
X297243Y944427D02*
G03*
X285924Y935585I11367J-26217D01*
G01*
X321373Y891062D02*
G03*
X321331Y891073I-2133J-8159D01*
G01*
X324347Y889614D02*
G03*
X321373Y891062I-5107J-6711D01*
G01*
X499777Y757862D02*
G03*
X499834Y757837I9234J21162D01*
G01*
D02*
G03*
X499837Y757836I19558J45063D01*
G01*
X290271Y932237D02*
G03*
X302845Y895853I18339J-14028D01*
G01*
X1184842Y757831D02*
G03*
X1184308Y756002I12768J-4721D01*
G01*
X1085267Y298505D02*
G03*
X1085274Y298538I-17197J3755D01*
G01*
X1388690Y728514D02*
G03*
X1386763Y731384I-3970J-584D01*
G01*
X1388726Y691685D02*
G03*
X1388732Y691815I-4006J245D01*
G01*
X1383571Y611462D02*
G03*
X1383896Y612815I-3681J1598D01*
G01*
X1550421Y1159308D02*
G03*
X1549870Y1157841I3409J-2118D01*
G01*
X1476282Y1021408D02*
G03*
X1478755Y1022372I281J2933D01*
G01*
X1382034Y999602D02*
G03*
X1379322Y998871I808J-8394D01*
G01*
X1750799Y985599D02*
G03*
X1753812Y988600I67J2946D01*
G01*
X1209954Y797502D02*
G03*
X1209938Y797505I-1082J-5379D01*
G01*
X1535892Y1031328D02*
G03*
X1535900Y1031324I2174J3374D01*
G01*
X1535891Y1031329D02*
G03*
X1535892Y1031328I2175J3373D01*
G01*
X830330Y1242044D02*
G03*
X828498Y1241442I-48J-2946D01*
G01*
X1620538Y981294D02*
G03*
X1624498Y982235I1488J2543D01*
G01*
X770200Y1197406D02*
G03*
X771310Y1197930I-674J2868D01*
G01*
X301189Y1145489D02*
G03*
X299694Y1144290I1691J-3639D01*
G01*
X1188776Y1227046D02*
G03*
X1188540Y1227053I-236J-4006D01*
G01*
X1173540D02*
G03*
X1171217Y1226313I0J-4013D01*
G01*
X489641Y763810D02*
G03*
X489646Y763806I3323J4366D01*
G01*
X489753Y763725D02*
G03*
X489768Y763714I27854J36831D01*
G01*
X314308Y940584D02*
G03*
X290271Y932238I-5698J-22374D01*
G01*
X1626840Y966705D02*
G03*
X1626842Y966695I5423J831D01*
G01*
X1626838Y966717D02*
G03*
X1626840Y966705I10846J1661D01*
G01*
X767075Y917391D02*
G03*
X764540Y915670I146J-2943D01*
G01*
X674896Y726021D02*
G03*
X678794Y727482I1217J2683D01*
G01*
X661754Y690084D02*
G03*
X660255Y694005I-2681J1222D01*
G01*
X514473Y796050D02*
G03*
X514466Y796055I-10231J-14323D01*
G01*
X537711Y785800D02*
G03*
X537598Y785850I-17418J-40010D01*
G01*
X514285Y796189D02*
G03*
X514293Y796183I3323J4366D01*
G01*
X501966Y762893D02*
G03*
X502010Y762874I7044J16131D01*
G01*
X1546080Y494567D02*
G03*
X1548836Y495760I-718J5439D01*
G01*
X1396603Y1009680D02*
G03*
X1396271Y1011278I-4013J0D01*
G01*
X285924Y935585D02*
G03*
X285910Y935566I4347J-3347D01*
G01*
X285910Y935566D02*
G03*
X301446Y890548I22700J-17356D01*
G01*
X1535444Y1031664D02*
G03*
X1535891Y1031329I2623J3038D01*
G01*
X489646Y763806D02*
G03*
X489753Y763725I27962J36749D01*
G01*
X314335Y940578D02*
G03*
X314323Y940581I-1375J-5311D01*
G01*
X314315Y940583D02*
G03*
X314313Y940583I-10089J-39420D01*
G01*
X490862Y762910D02*
G03*
X499773Y757864I28530J39990D01*
G01*
X314323Y940581D02*
G03*
X314315Y940583I-5713J-22371D01*
G01*
X492964Y768176D02*
G03*
X493076Y768091I24644J32379D01*
G01*
D02*
G03*
X493714Y767617I26316J34809D01*
G01*
X493714Y767617D02*
G03*
X494053Y767373I25678J35283D01*
G01*
X514293Y796183D02*
G03*
X514466Y796055I5099J6717D01*
G01*
X314313Y940583D02*
G03*
X314308Y940584I-1353J-5317D01*
G01*
X1620712Y911090D02*
G03*
X1617100Y913353I-3611J-1750D01*
G01*
X920966Y727609D02*
X924927Y787120D01*
X919480Y721360D02*
X1048609Y298525D01*
X919039Y725179D02*
X920966Y727609D01*
X1048609Y298525D02*
X1051232Y297130D01*
X919480Y721360D02*
X919480Y721360D01*
X1715576Y972766D02*
X1738517Y955117D01*
X1763063Y933916D02*
X1763082Y933885D01*
X1764359Y931769D01*
X481330Y1137920D02*
X500380D01*
X1358900Y356870D02*
X1371600Y344170D01*
X1204511Y741136D02*
Y752566D01*
X1752300Y913892D02*
X1758916Y920508D01*
X1747416Y941348D02*
X1747805Y940959D01*
X1712223Y968423D02*
X1747264Y941465D01*
X1747416Y941348D01*
X1747805Y940959D02*
X1758916Y922549D01*
Y920508D02*
Y922549D01*
X1758495Y940008D02*
X1761776Y936728D01*
X1761776Y936688D02*
X1763502Y934962D01*
X1765000Y901840D02*
X1767271Y907867D01*
X1763502Y934962D02*
X1764825D01*
X1763063Y933916D02*
X1764825Y934962D01*
X1761776Y936728D02*
X1761776Y936688D01*
X1764359Y931769D02*
X1767257Y936405D01*
X1764359Y931769D02*
X1767271Y927185D01*
X1738517Y955117D02*
X1758495Y940008D01*
X1767271Y907867D02*
Y927185D01*
X1739600Y901840D02*
X1742440Y907867D01*
Y920750D01*
X1530171Y1076800D02*
X1530173Y1076742D01*
X1536700Y1105916D02*
X1549400D01*
X1530171Y1076800D02*
Y1077188D01*
X1530173Y1076742D02*
X1531470Y1043578D01*
X1530171Y1077188D02*
X1536700Y1105916D01*
X1537110Y1037474D02*
X1539046D01*
X1531516Y1042425D02*
X1532408Y1041533D01*
X1531470Y1043578D02*
X1531516Y1042425D01*
X1532408Y1041533D02*
X1537110Y1037474D01*
X1539539Y1037780D02*
X1544320Y1040746D01*
X1539046Y1037474D02*
X1539539Y1037780D01*
X1599907Y1051629D02*
X1604010Y1045210D01*
X1550647Y1063123D02*
X1599071Y1052465D01*
X1599907Y1051629D01*
X1725930Y1031240D02*
X1742509Y1038290D01*
X1689100Y1163320D02*
X1689989D01*
X1692326Y1160983D01*
Y1128344D02*
Y1160983D01*
Y1128344D02*
X1711960Y1108710D01*
X1746504Y1092962D02*
X1759966Y1079500D01*
X1596390Y1170940D02*
X1674368Y1092962D01*
X1746504D01*
X1759966Y967665D02*
Y1079500D01*
X1747724Y1006629D02*
Y1015214D01*
X1739437Y1000767D02*
X1739465Y1000773D01*
X1741654Y1021285D02*
X1747724Y1015214D01*
X1733069Y1021285D02*
X1741654D01*
X1711873Y1003781D02*
X1733069Y1021285D01*
X1718352Y1001449D02*
X1737361Y1010921D01*
X1744638Y1003543D02*
X1747724Y1006629D01*
X1723611Y997510D02*
X1739437Y1000767D01*
X1725601Y907867D02*
X1726900Y901840D01*
X1733615Y930946D02*
X1734445Y931775D01*
X1734892Y931992D02*
X1737872Y933435D01*
X1725601Y907867D02*
X1733615Y930946D01*
X1734445Y931775D02*
X1734892Y931992D01*
X1752300Y901840D02*
Y913892D01*
X1574928Y518502D02*
X1574928Y518501D01*
X1546693Y427320D02*
Y438820D01*
X1537970Y617042D02*
X1542415D01*
X1531863D02*
X1537970D01*
X1527810Y697230D02*
X1529549Y615320D01*
X1531863Y617042D01*
X1551744Y754091D02*
X1551865Y754156D01*
X1554347Y755486D01*
X1672794Y1021239D02*
X1721444Y1041836D01*
X1669987Y1020051D02*
X1672794Y1021239D01*
X1651775Y1019734D02*
X1670085D01*
X1626861Y1012239D02*
X1669129Y1019796D01*
X1559052Y1115568D02*
Y1151940D01*
X1614170Y1017270D02*
X1620441D01*
X1579191Y736040D02*
X1596873Y732867D01*
X1551169Y755165D02*
X1551324Y755165D01*
X1429174Y794476D02*
X1436982Y786548D01*
X1551324Y755165D02*
X1551479Y755182D01*
X1554347Y755486D01*
X1535355Y745310D02*
X1551744Y754091D01*
X1639461Y920274D02*
X1643228Y925804D01*
Y931675D01*
X1643228Y931706D02*
X1643228Y931706D01*
X1639461Y917794D02*
X1639461Y920274D01*
X1722534Y975246D02*
X1756150Y964862D01*
X600940Y782090D02*
X612140D01*
X588010Y795020D02*
X600940Y782090D01*
X610870Y580390D02*
Y600480D01*
X537598Y785850D02*
X567888Y791027D01*
X569889Y790656D02*
X569894Y790653D01*
X602591Y771150D01*
X604097Y770621D02*
X670632Y761419D01*
X673173Y758605D02*
X673173Y758602D01*
X674287Y726292D01*
X991443Y1051545D02*
X1508760Y1042670D01*
X1532636Y1109980D02*
Y1168400D01*
X1548130Y1183894D01*
X1689100D01*
X1532636Y1109980D02*
X1536700Y1105916D01*
X1549400D02*
X1559052Y1115568D01*
Y1151940D02*
X1560830D01*
X1759966Y967654D02*
X1759966Y967665D01*
X1604010Y1045210D02*
X1654910Y1037260D01*
Y1031240D02*
X1660930D01*
X1646226Y1025283D02*
X1651775Y1019734D01*
X1651254Y1054354D02*
X1658233Y1047375D01*
X1670085Y1019734D02*
X1670195Y1019844D01*
X1665457Y1047375D02*
X1672436Y1040395D01*
X1620441Y1017270D02*
X1628453Y1025283D01*
X1646226D01*
X1672436Y1022085D02*
Y1040395D01*
X1658233Y1047375D02*
X1665457D01*
X1651254Y1054354D02*
Y1099058D01*
X1598372Y1151940D02*
X1651254Y1099058D01*
X1654910Y1037260D02*
X1660930Y1031240D01*
X1654910Y1032157D02*
X1660930Y1031240D01*
X1560830Y1170940D02*
X1596390D01*
X1560830Y1151940D02*
X1598372D01*
X1461496Y1022890D02*
X1476281Y1021408D01*
X1360955Y741934D02*
X1401572D01*
X1388732Y691815D02*
X1389579Y721383D01*
X1349418Y753471D02*
X1386763Y731384D01*
X1115260Y1214939D02*
X1122352Y1223095D01*
X1054094Y1233580D02*
X1103322Y1212230D01*
X911172Y1240736D02*
X1044875Y1238574D01*
X897778Y1222546D02*
X903261Y1235575D01*
X844246Y1170222D02*
X927363Y1212054D01*
X485623Y1153363D02*
X510490Y1148283D01*
X453593D02*
X477037Y1153363D01*
X320280Y1124981D02*
X320288Y1124968D01*
X320893Y1122864D02*
X322373Y969143D01*
X322373Y957222D02*
Y969010D01*
X321103Y678107D02*
X322186Y882876D01*
X321101Y677920D02*
X321101Y677958D01*
X304800Y469900D02*
X318049Y516971D01*
X1589660Y721475D02*
X1590000Y721135D01*
X1186348Y797610D02*
X1208872D01*
X928825Y790852D02*
X1186204Y797608D01*
X1178216Y730198D02*
X1184307Y756003D01*
X1085274Y298537D02*
X1178139Y729859D01*
X1051232Y297130D02*
X1051239Y297105D01*
X1054377Y1240179D02*
X1055422Y1239179D01*
X1299494Y1234456D02*
X1299498D01*
X1634624Y991801D02*
X1653152Y1001348D01*
X1624498Y982235D02*
X1625132Y983212D01*
X911274Y1246221D02*
X1044953Y1244060D01*
X898723Y1240937D02*
X898735Y1240937D01*
X297993Y1216406D02*
Y1229614D01*
X297994Y1216311D02*
X299694Y1144290D01*
X298867Y1131350D02*
Y1141850D01*
X1044010Y1072355D02*
X1047679Y1230074D01*
X908088Y1232252D02*
X908088Y1232241D01*
X1046956Y1069340D02*
X1220431D01*
X1220509Y1069339D02*
X1315720Y1066800D01*
X1256503Y1223057D02*
X1256514Y1223056D01*
X640852Y977595D02*
X641067D01*
X481118Y1112469D02*
X481330D01*
X490378Y763260D02*
X490432Y763220D01*
X314440Y940551D02*
X332854Y935789D01*
X352313Y926360D02*
X352330Y926347D01*
X332854Y935789D02*
X332869Y935785D01*
X1655649Y996463D02*
X1655660Y996468D01*
X1660930Y974734D02*
X1665696D01*
X1637130Y986921D02*
X1655649Y996463D01*
X1637687Y968364D02*
X1643064Y933702D01*
X1627274Y929438D02*
X1627286Y929426D01*
X1639461Y917794D02*
X1639468Y917787D01*
X677933Y412873D02*
Y412936D01*
X313060Y935241D02*
X331508Y930471D01*
X294634Y928911D02*
X294634D01*
X304200Y901169D02*
X322724Y896380D01*
X523691Y753508D02*
X660255Y694005D01*
X640527Y370807D02*
X643838Y371460D01*
X502044Y762859D02*
X523619Y753540D01*
X1396603Y998180D02*
Y1009680D01*
X1382834Y994155D02*
X1392590Y994167D01*
X1758950Y434340D02*
X1769208Y454528D01*
X1747556Y486741D02*
X1753358Y528046D01*
X1371600Y352933D02*
X1397127D01*
X1405890Y344170D01*
X632460Y946150D02*
Y957326D01*
Y946150D02*
X633730Y944880D01*
X1362075Y497840D02*
X1371600D01*
X1358900Y494665D02*
X1362075Y497840D01*
X1358900Y356870D02*
Y494665D01*
X1371600Y344170D02*
X1405890D01*
X1342390Y627060D02*
Y754380D01*
Y627060D02*
X1374140Y595310D01*
X1400730Y484366D02*
Y484378D01*
X1401146D01*
Y483485D02*
Y484378D01*
X655870Y520404D02*
Y600480D01*
Y520404D02*
X679577Y496697D01*
X1349418Y753471D02*
X1360955Y741934D01*
X1401572D02*
X1404487Y739019D01*
Y484974D02*
Y739019D01*
X481330Y1112469D02*
Y1117600D01*
Y1137666D02*
Y1137920D01*
X1315720Y1066800D02*
X1320800D01*
X657140Y782090D02*
Y847090D01*
X1725930Y560070D02*
Y587460D01*
X1515110Y433070D02*
X1535430D01*
X1557630Y323240D02*
X1558290Y322580D01*
X1532890Y323240D02*
X1557630D01*
X1175013Y1209513D02*
X1181040Y1215540D01*
X1159542Y1204573D02*
X1175013Y1209513D01*
X1141644Y1220023D02*
X1145436Y1211056D01*
X1050586Y1236213D02*
X1051619Y1235224D01*
X911892Y1207113D02*
X927363Y1212054D01*
X933390Y1218080D01*
X1536890Y1030689D02*
X1620538Y981294D01*
X1301371Y1233740D02*
X1535444Y1031664D01*
X1057390Y1238371D02*
X1299494Y1234456D01*
X298565Y1231680D02*
X308610Y1248410D01*
X830330Y1242043D02*
X898723Y1240937D01*
X1761973Y898813D02*
X1765000Y901840D01*
X481086Y1015924D02*
X481086Y1096165D01*
X481118Y1099783D02*
X481118Y1099921D01*
X480060Y1011047D02*
X481086Y1015924D01*
X481118Y1099921D02*
Y1112469D01*
X481086Y1096165D02*
X481118Y1099783D01*
X635000Y496697D02*
X679577D01*
X677933Y412936D02*
X684868Y567549D01*
X348991Y921993D02*
X514285Y796189D01*
X635000Y468630D02*
Y476123D01*
X655870Y600480D02*
X684096Y569603D01*
X684868Y568759D01*
Y567549D02*
Y568759D01*
X635686Y977595D02*
X640852D01*
X678765Y874537D02*
Y875733D01*
X657140Y847090D02*
X678133Y873735D01*
X632460Y977900D02*
X635686Y977595D01*
X669036Y957722D02*
X678765Y875733D01*
X678133Y873735D02*
X678765Y874537D01*
X480060Y990473D02*
X486080Y985596D01*
X506730Y984250D01*
X486634Y973887D02*
X510848Y972768D01*
X475767Y973887D02*
X486634D01*
X510848Y972768D02*
X512504Y971113D01*
X522333Y803078D01*
X477037Y1153363D02*
X485623D01*
X319377Y885709D02*
X321103Y883982D01*
X439458Y1135145D02*
X439915Y1133337D01*
X321103Y883982D02*
X322186Y882876D01*
X297243Y944427D02*
X320647Y955496D01*
X439915Y1133337D02*
X458241Y1104730D01*
X318561Y520478D02*
X321101Y677920D01*
X315407Y1132823D02*
X320280Y1124981D01*
X301446Y890548D02*
X319377Y885709D01*
X320647Y955496D02*
X322373Y957222D01*
X1371600Y477774D02*
X1377620Y475622D01*
X1384993Y475841D02*
X1401146Y483485D01*
X1377620Y475622D02*
X1380887Y474453D01*
X1382060D01*
X1384993Y475841D01*
X1401146Y483485D02*
X1403272Y484491D01*
X1383761Y585690D02*
X1384434Y585016D01*
X1400730Y484366D01*
X1374140Y595310D02*
X1383761Y585690D01*
X1404487Y484974D02*
X1524159Y504357D01*
X1524454Y504405D01*
X1531173Y505493D01*
X468946Y982151D02*
X469697Y979957D01*
X302845Y895853D02*
X321331Y891073D01*
X521514Y747516D02*
X523240Y745791D01*
X469697Y979957D02*
X475767Y973887D01*
X352330Y926347D02*
X517595Y800571D01*
X522333Y803078D01*
X499836Y757836D02*
X521514Y747516D01*
X461796Y990134D02*
X468946Y982151D01*
X523240Y436880D02*
Y745791D01*
X461045Y990973D02*
X461796Y990134D01*
X461045Y990973D02*
Y993181D01*
X1589081Y721850D02*
X1589660Y721475D01*
X1209954Y797502D02*
X1585558Y722793D01*
X1589081Y721850D01*
X632333Y957453D02*
X632460Y957326D01*
X1526540Y610198D02*
Y611731D01*
Y612639D01*
X1602978Y714656D02*
X1605527Y712107D01*
X1613099Y704536D01*
X1537970Y596773D02*
X1538859D01*
X1553972Y581660D02*
X1555750D01*
X1538859Y596773D02*
X1553972Y581660D01*
X1527607Y587908D02*
Y594423D01*
X1548569Y615624D02*
X1548579Y615621D01*
X1574267Y520281D02*
X1574928Y518502D01*
X1526540Y612639D02*
X1528266Y614365D01*
X1527607Y587908D02*
X1574267Y520281D01*
X1528266Y614365D02*
X1529549Y615320D01*
X1543391Y616922D02*
X1548569Y615624D01*
X1765000Y726840D02*
X1765300Y720813D01*
Y681990D02*
Y720813D01*
X1753380Y528354D02*
X1753387Y528559D01*
Y661606D01*
X1748853Y666140D02*
Y675577D01*
Y666140D02*
X1753387Y661606D01*
X1753358Y528046D02*
X1753380Y528354D01*
X1747520Y676910D02*
X1748853Y675577D01*
X1729740Y676910D02*
X1730324D01*
X1744980Y586757D02*
Y662254D01*
X1730324Y676910D02*
X1744980Y662254D01*
X1744193Y694487D02*
X1750263Y700557D01*
X1612409Y694134D02*
X1618813Y687730D01*
X1741957Y583735D02*
X1744980Y586757D01*
X1746465Y689000D02*
X1755750Y698285D01*
X1618813Y687730D02*
X1740165D01*
X1737892Y693217D02*
X1744193Y694487D01*
X1621378Y693217D02*
X1737892D01*
X1740165Y687730D02*
X1746465Y689000D01*
X1613099Y701496D02*
X1621378Y693217D01*
X1726900Y726840D02*
X1729927Y720813D01*
X1731087Y717678D02*
X1739900Y704850D01*
X1729927Y720813D02*
X1731087Y717678D01*
X1750263Y700557D02*
Y709143D01*
X1755750Y698285D02*
Y711415D01*
X1743787Y717678D02*
X1750263Y709143D01*
X1755327Y720813D02*
X1755750Y711415D01*
X1741957Y478135D02*
Y583735D01*
Y478135D02*
X1746320Y473772D01*
X1714200Y726840D02*
X1714500Y720813D01*
Y704850D02*
Y720813D01*
X1752300Y726840D02*
X1755327Y720813D01*
X1739600Y726840D02*
X1742627Y720813D01*
X1743787Y717678D01*
X1613099Y701496D02*
Y704536D01*
X1591465Y709841D02*
X1612091Y694410D01*
X1602718Y714656D02*
X1602978D01*
X1612091Y694410D02*
X1612409Y694134D01*
X1584407Y716202D02*
X1591465Y709841D01*
X1590535Y720192D02*
X1591387Y717678D01*
X1593738Y715327D02*
X1602718Y714656D01*
X1240087Y785611D02*
X1584407Y716202D01*
X1591387Y717678D02*
X1593738Y715327D01*
X1701500Y901840D02*
X1703070Y907867D01*
Y943610D01*
X1173540Y1227053D02*
X1188540D01*
X1156040Y1215540D02*
X1171217Y1226312D01*
X1478755Y1022372D02*
X1485322Y1029687D01*
X1543050Y1116330D02*
X1549870Y1157841D01*
X1257964Y1222567D02*
X1318260Y1182370D01*
X1188776Y1227046D02*
X1256503Y1223057D01*
X365399Y1175333D02*
X365967Y1175597D01*
X483221Y1177439D01*
X483268D02*
X671711Y1174600D01*
X672070D01*
X301189Y1145489D02*
X365399Y1175333D01*
X672070Y1174600D02*
X672399Y1174676D01*
X770200Y1197406D01*
X483221Y1177439D02*
X483268D01*
X458241Y1102646D02*
Y1104730D01*
X456515Y1100920D02*
X458241Y1102646D01*
X454962Y1100920D02*
X456515D01*
X315407Y1132823D02*
X454638Y1100994D01*
X454962Y1100920D01*
X507736Y1089985D02*
X509199Y1088522D01*
X507736Y1089985D02*
Y1091860D01*
X526566Y1132160D01*
Y1132882D01*
X510026Y1088333D02*
X629473Y1061027D01*
X509199Y1088522D02*
X510026Y1088333D01*
X1181040Y1215540D02*
X1187067Y1209513D01*
X1252220Y1202690D01*
X1555303Y1167163D02*
X1560830Y1170940D01*
X1550422Y1159308D02*
X1555303Y1167163D01*
X1432898Y1029622D02*
X1461496Y1022890D01*
X1378263Y1036031D02*
X1378294Y1036060D01*
X1397637Y1033808D02*
X1432898Y1029622D01*
X1378294Y1036060D02*
X1379428Y1037193D01*
X1394252D01*
X1397637Y1033808D01*
X1300480Y962660D02*
X1378263Y1036031D01*
X991443Y1051545D02*
X991443Y1051545D01*
X1508760Y1042670D02*
X1627274Y929438D01*
X1535900Y1031324D02*
X1536890Y1030689D01*
X767075Y917391D02*
X989877Y1051126D01*
X1379897Y991096D02*
X1382279Y934507D01*
X1382563Y999653D02*
X1386840Y1003930D01*
X1382034Y999602D02*
X1382563Y999653D01*
X1300480Y962660D02*
X1379322Y998871D01*
X1386840Y1027430D02*
X1391117Y1023153D01*
X1396272Y1011278D01*
X1554347Y755486D02*
X1577377Y736869D01*
X1554312Y755515D02*
X1554347Y755486D01*
X1437937Y785900D02*
X1535354Y745310D01*
X1388691Y728513D02*
X1389473Y723186D01*
X1383896Y612815D02*
X1388726Y691685D01*
X1378417Y599587D02*
X1383571Y611462D01*
X1374140Y595310D02*
X1378417Y599587D01*
X1208872Y792123D02*
X1215952Y785043D01*
X1217214D02*
X1240087Y785611D01*
X1215952Y785043D02*
X1217214D01*
X1186348Y792123D02*
X1208872D01*
X1182305Y784065D02*
X1183997Y785758D01*
Y789772D01*
X946657Y777468D02*
X1182305Y784065D01*
X1183997Y789772D02*
X1186348Y792123D01*
X1754080Y474715D02*
X1763820Y470165D01*
X1746320Y473772D02*
X1758950Y459740D01*
X461045Y993181D02*
X461176Y996983D01*
X456386Y1003097D02*
X460314Y999168D01*
X461176Y998307D01*
Y996983D02*
Y998307D01*
X381787Y1003097D02*
X456386D01*
X373177Y1011707D02*
X381787Y1003097D01*
X373177Y1011707D02*
Y1020293D01*
X379247Y1026363D02*
X463601D01*
X478917Y1011047D01*
X373177Y1020293D02*
X379247Y1026363D01*
X478917Y1011047D02*
X480060D01*
X634841Y980237D02*
Y1034473D01*
X635000Y1038250D01*
X324347Y889614D02*
X489641Y763810D01*
X516022Y795169D02*
X537598Y785850D01*
X327670Y893979D02*
X492964Y768176D01*
X653710Y672429D02*
X661754Y690084D01*
X678794Y727482D02*
X764540Y915670D01*
X653710Y671256D02*
X655870Y665480D01*
X653710Y671256D02*
Y672429D01*
X938530Y777240D02*
X946657Y777468D01*
X1184842Y757831D02*
X1189483Y770383D01*
X1197610Y778510D01*
X1526540Y595490D02*
Y610198D01*
Y595490D02*
X1527607Y594423D01*
X610870Y776070D02*
X612140Y782090D01*
X610870Y600480D02*
X612660Y598690D01*
X911081Y1235250D02*
X1044781Y1233088D01*
X640527Y1061027D02*
X843679Y1169927D01*
X635000Y1057250D02*
X640527Y1061027D01*
X771310Y1197930D02*
X828498Y1241442D01*
X480060Y1011047D02*
X486080Y1015924D01*
X580390Y1031240D01*
X1489710Y836930D02*
X1581373Y811017D01*
X1587400Y807990D01*
X1386307Y904453D02*
X1581373Y823717D01*
X1587400Y820690D01*
X1530350Y909320D02*
X1595151Y913345D01*
X1613854Y1016243D02*
X1618105Y1014934D01*
X1488440Y707390D02*
X1492009D01*
X1487928Y507552D02*
X1493735Y704399D01*
X1492009Y707390D02*
X1493735Y705664D01*
Y704399D02*
Y705664D01*
X1750790Y985599D02*
X1750799D01*
X1618105Y1014934D02*
X1623912Y1011487D01*
X1614170Y1017270D02*
X1618105Y1014934D01*
X1626861Y1012239D01*
X1549101Y1036175D02*
X1613854Y1016243D01*
X1623912Y1011487D02*
X1626861Y1012239D01*
X1722108Y1042093D02*
X1752600Y1052830D01*
X1679050Y977582D02*
X1731835Y946413D01*
X1752600Y1052830D02*
X1753812Y988600D01*
X1725930Y986240D02*
X1750790Y985599D01*
X1717227Y907867D02*
X1720850Y930910D01*
X1731835Y946413D02*
X1732451Y945797D01*
X1737872Y934609D01*
X1737708Y932966D02*
X1737872Y933435D01*
Y934609D01*
X1673073Y895813D02*
X1676100Y901840D01*
X1679127Y907867D02*
X1684020Y930910D01*
X1657847Y975155D02*
X1657879Y975146D01*
X1648276Y977795D02*
X1657847Y975155D01*
X1677923Y978710D02*
X1679050Y977582D01*
X1672436Y981474D02*
Y991006D01*
X1665696Y974734D02*
X1672436Y981474D01*
X1677923Y978710D02*
Y993279D01*
X1667969Y1003232D02*
X1677923Y993279D01*
X1665696Y997746D02*
X1672436Y991006D01*
X1714200Y901840D02*
X1717227Y907867D01*
X1044781Y1233088D02*
X1044786D01*
X1044010Y1072345D02*
Y1072355D01*
X1660930Y997746D02*
X1665696D01*
X1660930Y1003232D02*
X1667969D01*
X908088Y1232241D02*
X908390Y1218080D01*
X1622273Y907867D02*
X1625300Y901840D01*
X1620712Y911090D02*
X1622273Y907867D01*
X1595400Y913353D02*
X1617100D01*
X1626842Y966695D02*
X1632220Y932020D01*
X1646111Y911090D02*
X1647673Y907867D01*
X1639468Y917787D02*
X1645272Y912242D01*
X1647673Y907867D02*
X1650700Y901840D01*
X686867Y831850D02*
X697230D01*
X657140Y847090D02*
X686867Y831850D01*
X1378417Y693403D02*
X1379220Y698180D01*
X1378417Y623087D02*
Y693403D01*
X1374140Y618810D02*
X1378417Y623087D01*
X1371600Y373507D02*
Y477774D01*
X1596873Y732867D02*
X1599900Y726840D01*
X1529653Y428793D02*
X1535430Y433070D01*
X1548836Y495760D02*
X1573848Y516221D01*
X1548579Y615621D02*
X1660930Y587460D01*
X1547713Y502358D02*
Y516182D01*
X1545362Y500007D02*
X1547713Y502358D01*
X1542227Y494047D02*
X1546080Y494567D01*
X1531614Y500007D02*
X1545362D01*
X1536700Y490270D02*
X1542227Y494047D01*
X1532890Y323240D02*
X1538417Y327017D01*
X309880Y1136600D02*
X315407Y1132823D01*
X632460Y977900D02*
X634841Y980237D01*
X655870Y600480D02*
Y665480D01*
X635000Y367030D02*
X640527Y370807D01*
X304800Y469900D02*
X629473Y389807D01*
X1761973Y720813D02*
X1765000Y726840D01*
X1536700Y490270D02*
X1542227Y486493D01*
X1546676Y439196D01*
X1541207Y419347D02*
X1545748Y424733D01*
X1535430Y415070D02*
X1541207Y419347D01*
X1537970Y617347D02*
X1541196Y617042D01*
X1660930Y587460D02*
X1725930D01*
X1487457Y491598D02*
X1488958Y493098D01*
X1531614Y500007D01*
X1528038Y518533D02*
X1545362D01*
X1525687Y516182D02*
X1528038Y518533D01*
X1525687Y511450D02*
Y516182D01*
X1491112Y504562D02*
X1524151Y509914D01*
X1489655Y504562D02*
X1491112D01*
X1487928Y506288D02*
X1489655Y504562D01*
X1487928Y506288D02*
Y507552D01*
X1484599Y393467D02*
X1485401Y392615D01*
X1484599Y393467D02*
Y394680D01*
X1487457Y491598D01*
X1524151Y509914D02*
X1525687Y511450D01*
X1545362Y518533D02*
X1547713Y516182D01*
X1485401Y392615D02*
X1532890Y342240D01*
X1531173Y505493D02*
X1536700Y509270D01*
X1676100Y901840D02*
X1679127Y907867D01*
X1527363Y324017D02*
X1532890Y323240D01*
X1382279Y934507D02*
X1383030Y929980D01*
Y908980D02*
X1386307Y904453D01*
X299472Y1129232D02*
X304353Y1121377D01*
X309880Y1117600D01*
X629473Y1061027D02*
X635000Y1057250D01*
X629473Y389807D02*
X635000Y386030D01*
D50*
X674637Y704723D02*
G03*
X667281Y710144I-15564J-13417D01*
G01*
X1122431Y272756D02*
G03*
X1122324Y272743I3120J-26998D01*
G01*
X1041406Y279274D02*
G03*
X1071872Y267262I26664J22986D01*
G01*
X338330Y907986D02*
G03*
X327131Y913421I-19090J-25083D01*
G01*
X308632Y918204D02*
G03*
X308610Y918210I-4406J-17042D01*
G01*
X530693Y769658D02*
G03*
X530616Y769691I-10400J-23868D01*
G01*
X1122094Y272717D02*
G03*
X1122324Y272743I-3224J29543D01*
G01*
X1122094Y272717D02*
G03*
X1122016Y272709I2927J-27020D01*
G01*
X504242Y781727D02*
G03*
X509026Y779017I15150J21173D01*
G01*
X504109Y781823D02*
G03*
X504241Y781727I15283J21077D01*
G01*
X503606Y782196D02*
G03*
X503676Y782143I14001J18359D01*
G01*
X503676D02*
G03*
X504109Y781823I15716J20757D01*
G01*
X1007364Y751840D02*
X1023285Y735919D01*
X988479Y678599D02*
X1023285Y713404D01*
X988479Y673278D02*
Y678599D01*
X951992Y751840D02*
X1007364D01*
X1023285Y713404D02*
Y735919D01*
X988479Y673278D02*
X1068070Y302260D01*
X1208710Y752566D02*
X1208925Y752781D01*
X1223339Y738367D01*
X1204511Y752566D02*
X1208710D01*
X1118870Y302260D02*
X1191749Y685463D01*
X1223339Y717053D01*
Y738367D01*
X1122431Y272756D02*
X1122469Y272760D01*
X674637Y704723D02*
X1041406Y279273D01*
X1071872Y267261D02*
X1071963Y267271D01*
X338330Y907987D02*
X503606Y782197D01*
X308632Y918204D02*
X327131Y913421D01*
X530693Y769658D02*
X530811Y769607D01*
X509027Y779017D02*
X530616Y769692D01*
X1122469Y272760D02*
X1133282Y273988D01*
X1169670Y302260D01*
X665895Y710747D02*
X667281Y710144D01*
X1071963Y267271D02*
X1122016Y272709D01*
X530811Y769607D02*
X665895Y710747D01*
D51*
X640852Y977595D02*
D03*
X1626838Y966717D02*
D03*
D52*
X1197610Y778510D02*
D03*
X938530Y777240D02*
D03*
D53*
X1197610Y753110D02*
D03*
Y727710D02*
D03*
X938530Y751840D02*
D03*
Y726440D02*
D03*
D54*
X933390Y1218080D02*
D03*
X1181040Y1215540D02*
D03*
D55*
X908390Y1218080D02*
D03*
X883390D02*
D03*
X1156040Y1215540D02*
D03*
X1131040D02*
D03*
D56*
X961390Y1148080D02*
D03*
X855390D02*
D03*
X1209040Y1145540D02*
D03*
X1103040D02*
D03*
D57*
X304800Y520700D02*
D03*
Y469900D02*
D03*
X307340Y728980D02*
D03*
Y678180D02*
D03*
X308610Y969010D02*
D03*
Y918210D02*
D03*
D58*
X1068070Y302260D02*
D03*
X1118870D02*
D03*
X1169670D02*
D03*
D59*
X1767257Y936405D02*
D03*
X1742440Y920750D02*
D03*
X1742509Y1038290D02*
D03*
X1711960Y1108710D02*
D03*
X1737361Y1010921D02*
D03*
X1527810Y697230D02*
D03*
X588010Y795020D02*
D03*
X610870Y580390D02*
D03*
X1604010Y1045210D02*
D03*
X1687800Y829340D02*
D03*
X304800Y1013460D02*
D03*
X1725930Y560070D02*
D03*
X1515110Y433070D02*
D03*
X1558290Y322580D02*
D03*
X1765300Y518160D02*
D03*
X1725930Y652780D02*
D03*
X1633220Y638810D02*
D03*
X500380Y1137920D02*
D03*
X633730Y944880D02*
D03*
X635000Y468630D02*
D03*
X506730Y984250D02*
D03*
X1405890Y344170D02*
D03*
X1555750Y581660D02*
D03*
X1765300Y681990D02*
D03*
X1747520Y676910D02*
D03*
X1729740D02*
D03*
X1739900Y704850D02*
D03*
X1714500D02*
D03*
X1703070Y943610D02*
D03*
X1485322Y1029687D02*
D03*
X1543050Y1116330D02*
D03*
X1318260Y1182370D02*
D03*
X1252220Y1202690D02*
D03*
X1300480Y962660D02*
D03*
X1429174Y794476D02*
D03*
X1342390Y754380D02*
D03*
X1379220Y721680D02*
D03*
X1320800Y1066800D02*
D03*
X580390Y1031240D02*
D03*
X1489710Y836930D02*
D03*
X1530350Y909320D02*
D03*
X1488440Y707390D02*
D03*
X1618105Y1014934D02*
D03*
X1720850Y930910D02*
D03*
X1684020D02*
D03*
X697230Y831850D02*
D03*
X523240Y436880D02*
D03*
M02*
