G04*
G04 #@! TF.GenerationSoftware,Altium Limited,Altium Designer,25.4.2 (15)*
G04*
G04 Layer_Color=16711935*
%FSLAX44Y44*%
%MOMM*%
G71*
G04*
G04 #@! TF.SameCoordinates,4A3AD181-7CB4-4688-AC2E-BB694ACB6322*
G04*
G04*
G04 #@! TF.FilePolarity,Negative*
G04*
G01*
G75*
%ADD36C,1.4986*%
%ADD37R,2.1232X2.1232*%
%ADD38C,2.1232*%
%ADD39R,1.4986X1.4986*%
%ADD40R,1.4986X1.4986*%
%ADD41R,1.3208X1.3208*%
%ADD42C,1.3208*%
%ADD43R,1.7032X1.7032*%
%ADD44C,1.7032*%
%ADD45C,4.3582*%
%ADD46C,2.1532*%
%ADD47C,2.0032*%
%ADD48C,1.4732*%
D36*
X485140Y276860D02*
D03*
X510540D02*
D03*
X535940D02*
D03*
X1758950Y485140D02*
D03*
Y459740D02*
D03*
Y434340D02*
D03*
D37*
X1197610Y778510D02*
D03*
X938530Y777240D02*
D03*
D38*
X1197610Y753110D02*
D03*
Y727710D02*
D03*
X938530Y751840D02*
D03*
Y726440D02*
D03*
D39*
X1660930Y1031240D02*
D03*
Y632460D02*
D03*
D40*
X610870Y600480D02*
D03*
X612140Y782090D02*
D03*
D41*
X308610Y1223010D02*
D03*
D42*
Y1248410D02*
D03*
D43*
X933390Y1218080D02*
D03*
X1181040Y1215540D02*
D03*
D44*
X908390Y1218080D02*
D03*
X883390D02*
D03*
X1156040Y1215540D02*
D03*
X1131040D02*
D03*
D45*
X961390Y1148080D02*
D03*
X855390D02*
D03*
X1209040Y1145540D02*
D03*
X1103040D02*
D03*
D46*
X304800Y520700D02*
D03*
Y469900D02*
D03*
X307340Y728980D02*
D03*
Y678180D02*
D03*
X308610Y969010D02*
D03*
Y918210D02*
D03*
D47*
X1068070Y302260D02*
D03*
X1118870D02*
D03*
X1169670D02*
D03*
D48*
X1767257Y936405D02*
D03*
X1742440Y920750D02*
D03*
X1742509Y1038290D02*
D03*
X1711960Y1108710D02*
D03*
X1737361Y1010921D02*
D03*
X1527810Y697230D02*
D03*
X588010Y795020D02*
D03*
X610870Y580390D02*
D03*
X1604010Y1045210D02*
D03*
X1687800Y829340D02*
D03*
X304800Y1013460D02*
D03*
X1725930Y560070D02*
D03*
X1515110Y433070D02*
D03*
X1558290Y322580D02*
D03*
X1765300Y518160D02*
D03*
X1725930Y652780D02*
D03*
X1633220Y638810D02*
D03*
X500380Y1137920D02*
D03*
X633730Y944880D02*
D03*
X635000Y468630D02*
D03*
X506730Y984250D02*
D03*
X1405890Y344170D02*
D03*
X1555750Y581660D02*
D03*
X1765300Y681990D02*
D03*
X1747520Y676910D02*
D03*
X1729740D02*
D03*
X1739900Y704850D02*
D03*
X1714500D02*
D03*
X1703070Y943610D02*
D03*
X1485322Y1029687D02*
D03*
X1543050Y1116330D02*
D03*
X1318260Y1182370D02*
D03*
X1252220Y1202690D02*
D03*
X1300480Y962660D02*
D03*
X1429174Y794476D02*
D03*
X1342390Y754380D02*
D03*
X1379220Y721680D02*
D03*
X1320800Y1066800D02*
D03*
X580390Y1031240D02*
D03*
X1489710Y836930D02*
D03*
X1530350Y909320D02*
D03*
X1488440Y707390D02*
D03*
X1618105Y1014934D02*
D03*
X1720850Y930910D02*
D03*
X1684020D02*
D03*
X697230Y831850D02*
D03*
X523240Y436880D02*
D03*
M02*
