G04*
G04 #@! TF.GenerationSoftware,Altium Limited,Altium Designer,25.4.2 (15)*
G04*
G04 Layer_Color=8388736*
%FSLAX44Y44*%
%MOMM*%
G71*
G04*
G04 #@! TF.SameCoordinates,4A3AD181-7CB4-4688-AC2E-BB694ACB6322*
G04*
G04*
G04 #@! TF.FilePolarity,Negative*
G04*
G01*
G75*
%ADD16R,1.4986X1.3208*%
%ADD22R,1.4986X1.2700*%
%ADD23R,0.9398X0.7620*%
%ADD25R,1.2508X1.2088*%
%ADD28R,1.1032X1.7032*%
%ADD29R,1.7032X1.1032*%
%ADD30R,1.1032X1.1032*%
%ADD31R,1.1532X1.4032*%
%ADD32R,1.3032X1.4532*%
%ADD33R,1.6532X1.3532*%
%ADD34R,1.6032X1.2532*%
%ADD35R,1.3532X1.3532*%
%ADD36C,1.4986*%
%ADD37R,2.1232X2.1232*%
%ADD38C,2.1232*%
%ADD39R,1.4986X1.4986*%
%ADD40R,1.4986X1.4986*%
%ADD41R,1.3208X1.3208*%
%ADD42C,1.3208*%
%ADD43R,1.7032X1.7032*%
%ADD44C,1.7032*%
%ADD45C,4.3582*%
%ADD46C,2.1532*%
%ADD47C,2.0032*%
%ADD48C,1.4732*%
D16*
X481330Y1137666D02*
D03*
Y1117600D02*
D03*
X1371600Y497840D02*
D03*
Y477774D02*
D03*
D22*
Y352933D02*
D03*
Y373507D02*
D03*
X480060Y990473D02*
D03*
Y1011047D02*
D03*
D23*
X632460Y957326D02*
D03*
Y977900D02*
D03*
X635000Y476123D02*
D03*
Y496697D02*
D03*
X1689100Y1163320D02*
D03*
Y1183894D02*
D03*
X1537970Y596773D02*
D03*
Y617347D02*
D03*
D25*
X1544320Y1059834D02*
D03*
Y1040746D02*
D03*
D28*
X1765000Y901840D02*
D03*
X1752300D02*
D03*
X1739600D02*
D03*
X1726900D02*
D03*
X1714200D02*
D03*
X1701500D02*
D03*
X1688800D02*
D03*
X1676100D02*
D03*
X1663400D02*
D03*
X1650700D02*
D03*
X1638000D02*
D03*
X1625300D02*
D03*
X1612600D02*
D03*
X1599900D02*
D03*
Y726840D02*
D03*
X1612600D02*
D03*
X1625300D02*
D03*
X1638000D02*
D03*
X1650700D02*
D03*
X1663400D02*
D03*
X1676100D02*
D03*
X1688800D02*
D03*
X1701500D02*
D03*
X1714200D02*
D03*
X1726900D02*
D03*
X1739600D02*
D03*
X1752300D02*
D03*
X1765000D02*
D03*
D29*
X1587400Y884190D02*
D03*
Y871490D02*
D03*
Y858790D02*
D03*
Y846090D02*
D03*
Y833390D02*
D03*
Y820690D02*
D03*
Y807990D02*
D03*
Y795290D02*
D03*
Y782590D02*
D03*
Y769890D02*
D03*
Y757190D02*
D03*
Y744490D02*
D03*
D30*
X1687800Y829340D02*
D03*
Y815340D02*
D03*
X1701800D02*
D03*
Y829340D02*
D03*
Y843340D02*
D03*
X1687800D02*
D03*
X1673800D02*
D03*
Y829340D02*
D03*
Y815340D02*
D03*
D31*
X1383030Y929980D02*
D03*
Y908980D02*
D03*
D32*
X1379220Y698180D02*
D03*
Y721680D02*
D03*
D33*
X1535430Y433070D02*
D03*
Y415070D02*
D03*
D34*
X1536700Y490270D02*
D03*
Y509270D02*
D03*
X1560830Y1151940D02*
D03*
Y1170940D02*
D03*
X635000Y1038250D02*
D03*
Y1057250D02*
D03*
Y367030D02*
D03*
Y386030D02*
D03*
X1532890Y323240D02*
D03*
Y342240D02*
D03*
X309880Y1117600D02*
D03*
Y1136600D02*
D03*
D35*
X1374140Y618810D02*
D03*
Y595310D02*
D03*
X1386840Y1027430D02*
D03*
Y1003930D02*
D03*
D36*
X485140Y276860D02*
D03*
X510540D02*
D03*
X535940D02*
D03*
X1758950Y485140D02*
D03*
Y459740D02*
D03*
Y434340D02*
D03*
D37*
X1197610Y778510D02*
D03*
X938530Y777240D02*
D03*
D38*
X1197610Y753110D02*
D03*
Y727710D02*
D03*
X938530Y751840D02*
D03*
Y726440D02*
D03*
D39*
X1660930Y1031240D02*
D03*
Y632460D02*
D03*
D40*
X610870Y600480D02*
D03*
X612140Y782090D02*
D03*
D41*
X308610Y1223010D02*
D03*
D42*
Y1248410D02*
D03*
D43*
X933390Y1218080D02*
D03*
X1181040Y1215540D02*
D03*
D44*
X908390Y1218080D02*
D03*
X883390D02*
D03*
X1156040Y1215540D02*
D03*
X1131040D02*
D03*
D45*
X961390Y1148080D02*
D03*
X855390D02*
D03*
X1209040Y1145540D02*
D03*
X1103040D02*
D03*
D46*
X304800Y520700D02*
D03*
Y469900D02*
D03*
X307340Y728980D02*
D03*
Y678180D02*
D03*
X308610Y969010D02*
D03*
Y918210D02*
D03*
D47*
X1068070Y302260D02*
D03*
X1118870D02*
D03*
X1169670D02*
D03*
D48*
X1767257Y936405D02*
D03*
X1742440Y920750D02*
D03*
X1742509Y1038290D02*
D03*
X1711960Y1108710D02*
D03*
X1737361Y1010921D02*
D03*
X1527810Y697230D02*
D03*
X588010Y795020D02*
D03*
X610870Y580390D02*
D03*
X1604010Y1045210D02*
D03*
X1687800Y829340D02*
D03*
X304800Y1013460D02*
D03*
X1725930Y560070D02*
D03*
X1515110Y433070D02*
D03*
X1558290Y322580D02*
D03*
X1765300Y518160D02*
D03*
X1725930Y652780D02*
D03*
X1633220Y638810D02*
D03*
X500380Y1137920D02*
D03*
X633730Y944880D02*
D03*
X635000Y468630D02*
D03*
X506730Y984250D02*
D03*
X1405890Y344170D02*
D03*
X1555750Y581660D02*
D03*
X1765300Y681990D02*
D03*
X1747520Y676910D02*
D03*
X1729740D02*
D03*
X1739900Y704850D02*
D03*
X1714500D02*
D03*
X1703070Y943610D02*
D03*
X1485322Y1029687D02*
D03*
X1543050Y1116330D02*
D03*
X1318260Y1182370D02*
D03*
X1252220Y1202690D02*
D03*
X1300480Y962660D02*
D03*
X1429174Y794476D02*
D03*
X1342390Y754380D02*
D03*
X1379220Y721680D02*
D03*
X1320800Y1066800D02*
D03*
X580390Y1031240D02*
D03*
X1489710Y836930D02*
D03*
X1530350Y909320D02*
D03*
X1488440Y707390D02*
D03*
X1618105Y1014934D02*
D03*
X1720850Y930910D02*
D03*
X1684020D02*
D03*
X697230Y831850D02*
D03*
X523240Y436880D02*
D03*
M02*
