G04*
G04 #@! TF.GenerationSoftware,Altium Limited,Altium Designer,25.4.2 (15)*
G04*
G04 Layer_Color=8421504*
%FSLAX44Y44*%
%MOMM*%
G71*
G04*
G04 #@! TF.SameCoordinates,4A3AD181-7CB4-4688-AC2E-BB694ACB6322*
G04*
G04*
G04 #@! TF.FilePolarity,Positive*
G04*
G01*
G75*
%ADD16R,1.4986X1.3208*%
%ADD17R,0.9000X1.5000*%
%ADD18R,1.5000X0.9000*%
%ADD19R,0.9000X0.9000*%
%ADD20R,0.9500X1.2000*%
%ADD21R,1.1000X1.2500*%
%ADD22R,1.4986X1.2700*%
%ADD23R,0.9398X0.7620*%
%ADD24R,1.4500X1.1500*%
%ADD25R,1.2508X1.2088*%
%ADD26R,1.4000X1.0500*%
%ADD27R,1.1500X1.1500*%
D16*
X481330Y1137666D02*
D03*
Y1117600D02*
D03*
X1371600Y497840D02*
D03*
Y477774D02*
D03*
D17*
X1765000Y901840D02*
D03*
X1752300D02*
D03*
X1739600D02*
D03*
X1726900D02*
D03*
X1714200D02*
D03*
X1701500D02*
D03*
X1688800D02*
D03*
X1676100D02*
D03*
X1663400D02*
D03*
X1650700D02*
D03*
X1638000D02*
D03*
X1625300D02*
D03*
X1612600D02*
D03*
X1599900D02*
D03*
Y726840D02*
D03*
X1612600D02*
D03*
X1625300D02*
D03*
X1638000D02*
D03*
X1650700D02*
D03*
X1663400D02*
D03*
X1676100D02*
D03*
X1688800D02*
D03*
X1701500D02*
D03*
X1714200D02*
D03*
X1726900D02*
D03*
X1739600D02*
D03*
X1752300D02*
D03*
X1765000D02*
D03*
D18*
X1587400Y884190D02*
D03*
Y871490D02*
D03*
Y858790D02*
D03*
Y846090D02*
D03*
Y833390D02*
D03*
Y820690D02*
D03*
Y807990D02*
D03*
Y795290D02*
D03*
Y782590D02*
D03*
Y769890D02*
D03*
Y757190D02*
D03*
Y744490D02*
D03*
D19*
X1687800Y829340D02*
D03*
Y815340D02*
D03*
X1701800D02*
D03*
Y829340D02*
D03*
Y843340D02*
D03*
X1687800D02*
D03*
X1673800D02*
D03*
Y829340D02*
D03*
Y815340D02*
D03*
D20*
X1383030Y929980D02*
D03*
Y908980D02*
D03*
D21*
X1379220Y698180D02*
D03*
Y721680D02*
D03*
D22*
X1371600Y352933D02*
D03*
Y373507D02*
D03*
X480060Y990473D02*
D03*
Y1011047D02*
D03*
D23*
X632460Y957326D02*
D03*
Y977900D02*
D03*
X635000Y476123D02*
D03*
Y496697D02*
D03*
X1689100Y1163320D02*
D03*
Y1183894D02*
D03*
X1537970Y596773D02*
D03*
Y617347D02*
D03*
D24*
X1535430Y433070D02*
D03*
Y415070D02*
D03*
D25*
X1544320Y1059834D02*
D03*
Y1040746D02*
D03*
D26*
X1536700Y490270D02*
D03*
Y509270D02*
D03*
X1560830Y1151940D02*
D03*
Y1170940D02*
D03*
X635000Y1038250D02*
D03*
Y1057250D02*
D03*
Y367030D02*
D03*
Y386030D02*
D03*
X1532890Y323240D02*
D03*
Y342240D02*
D03*
X309880Y1117600D02*
D03*
Y1136600D02*
D03*
D27*
X1374140Y618810D02*
D03*
Y595310D02*
D03*
X1386840Y1027430D02*
D03*
Y1003930D02*
D03*
M02*
