G04*
G04 #@! TF.GenerationSoftware,Altium Limited,Altium Designer,25.4.2 (15)*
G04*
G04 Layer_Physical_Order=2*
G04 Layer_Color=16711680*
%FSLAX44Y44*%
%MOMM*%
G71*
G04*
G04 #@! TF.SameCoordinates,4A3AD181-7CB4-4688-AC2E-BB694ACB6322*
G04*
G04*
G04 #@! TF.FilePolarity,Positive*
G04*
G01*
G75*
%ADD36C,1.4986*%
%ADD39R,1.4986X1.4986*%
%ADD40R,1.4986X1.4986*%
%ADD41R,1.3208X1.3208*%
%ADD42C,1.3208*%
%ADD49C,0.2946*%
%ADD50C,2.7178*%
%ADD51C,0.2946*%
%ADD52R,1.9200X1.9200*%
%ADD53C,1.9200*%
%ADD54R,1.5000X1.5000*%
%ADD55C,1.5000*%
%ADD56C,4.1550*%
%ADD57C,1.9500*%
%ADD58C,1.8000*%
%ADD59C,1.2700*%
G36*
X1774218Y1264586D02*
Y1107214D01*
X1773578Y1106541D01*
X1771698Y1105560D01*
X1771271Y1105461D01*
X1770979Y1105634D01*
X1770970Y1105637D01*
X1770941Y1105641D01*
X1770916Y1105656D01*
X1668039Y1140361D01*
X1667800Y1140392D01*
X1667606Y1140473D01*
X1665893Y1140698D01*
X1665734Y1140730D01*
X1665722D01*
X1665675Y1140721D01*
X1665629Y1140729D01*
X1502506Y1137021D01*
X1501549Y1158077D01*
X1501435Y1158540D01*
X1501298Y1159575D01*
X1500597Y1161268D01*
X1499482Y1162721D01*
X1498028Y1163837D01*
X1496335Y1164538D01*
X1494581Y1164769D01*
X1494451Y1164795D01*
X1494440D01*
X1494385Y1164784D01*
X1494331Y1164794D01*
X1356660Y1161139D01*
X1356233Y1161042D01*
X1355030Y1160883D01*
X1353337Y1160182D01*
X1351884Y1159066D01*
X1350768Y1157613D01*
X1350067Y1155920D01*
X1349833Y1154143D01*
X1349810Y1154028D01*
Y1154021D01*
X1349821Y1153964D01*
X1349812Y1153907D01*
X1352089Y1071927D01*
X1349997Y1069852D01*
X1328868Y1070606D01*
X1327914Y1072259D01*
X1326259Y1073914D01*
X1324231Y1075084D01*
X1321970Y1075690D01*
X1319630D01*
X1318042Y1075265D01*
X1316140Y1076323D01*
X1315224Y1077248D01*
X1321803Y1174150D01*
X1323719Y1175256D01*
X1325374Y1176911D01*
X1326544Y1178939D01*
X1327150Y1181200D01*
Y1183540D01*
X1326544Y1185801D01*
X1325374Y1187829D01*
X1323719Y1189484D01*
X1321691Y1190654D01*
X1319430Y1191260D01*
X1317090D01*
X1314829Y1190654D01*
X1312801Y1189484D01*
X1311146Y1187829D01*
X1309976Y1185801D01*
X1309370Y1183540D01*
Y1181200D01*
X1309976Y1178939D01*
X1311146Y1176911D01*
X1312801Y1175256D01*
X1313643Y1174771D01*
X1306378Y1067779D01*
X1306403Y1067587D01*
X1306299Y1066800D01*
X1306794Y1063047D01*
X1308242Y1059550D01*
X1310547Y1056547D01*
X1313550Y1054242D01*
X1316916Y1052848D01*
X1316923Y1052874D01*
X1316923Y1052874D01*
X1464072Y1011911D01*
X1464073Y1011911D01*
X1464073Y1011911D01*
X1464073Y1011911D01*
X1464073Y1011911D01*
X1464281Y1011853D01*
X1464314Y1011848D01*
X1464370Y1011825D01*
X1466850Y1011498D01*
Y1011502D01*
X1479550D01*
X1479550Y1011498D01*
X1480222Y1011525D01*
X1482415Y1011680D01*
X1482422Y1011680D01*
X1482426Y1011681D01*
X1606159Y1020381D01*
X1608233Y1017738D01*
X1607534Y1015861D01*
X1513155Y985787D01*
X1513064Y985736D01*
X1512961Y985719D01*
X1512952Y985716D01*
X1512604Y985500D01*
X1511782Y985159D01*
X1511173Y984692D01*
X1510755Y984461D01*
X1446732Y930481D01*
X1446546Y930249D01*
X1446306Y930064D01*
X1445826Y929439D01*
X1445482Y929107D01*
X1400997Y864850D01*
X1400882Y864584D01*
X1400704Y864353D01*
X1400003Y862660D01*
X1399764Y860843D01*
X1400003Y859026D01*
X1400238Y858460D01*
X1400284Y858162D01*
X1419935Y804622D01*
X1420094Y804361D01*
X1420168Y804063D01*
X1420997Y802292D01*
X1420415Y801312D01*
X1416918Y801191D01*
X1308335Y958484D01*
X1308764Y959229D01*
X1309370Y961490D01*
Y963830D01*
X1308764Y966091D01*
X1307594Y968119D01*
X1305939Y969774D01*
X1303911Y970944D01*
X1302935Y971206D01*
X1257800Y1195697D01*
X1259334Y1197231D01*
X1260504Y1199259D01*
X1261110Y1201520D01*
Y1203860D01*
X1260504Y1206121D01*
X1259334Y1208149D01*
X1257679Y1209804D01*
X1255651Y1210974D01*
X1253390Y1211580D01*
X1251050D01*
X1248789Y1210974D01*
X1246761Y1209804D01*
X1245106Y1208149D01*
X1243936Y1206121D01*
X1243330Y1203860D01*
Y1201520D01*
X1243936Y1199259D01*
X1245106Y1197231D01*
X1246761Y1195576D01*
X1248789Y1194406D01*
X1249764Y1194144D01*
X1294900Y969653D01*
X1293366Y968119D01*
X1292196Y966091D01*
X1291590Y963830D01*
Y961490D01*
X1292196Y959229D01*
X1293366Y957201D01*
X1295021Y955546D01*
X1297049Y954376D01*
X1299310Y953770D01*
X1301645D01*
X1416472Y787431D01*
X1416622Y787215D01*
X1415081Y784443D01*
X1294164Y800083D01*
X1206998Y956981D01*
X1206991Y956990D01*
X1206987Y957000D01*
X1206983Y957009D01*
X1206901Y957104D01*
X1205809Y958527D01*
X1204355Y959643D01*
X1202662Y960344D01*
X1202086Y960420D01*
X1201683Y960552D01*
X588856Y1033995D01*
X588674Y1034671D01*
X587504Y1036699D01*
X585849Y1038354D01*
X583821Y1039524D01*
X581560Y1040130D01*
X579220D01*
X576959Y1039524D01*
X574931Y1038354D01*
X573276Y1036699D01*
X572106Y1034671D01*
X571500Y1032410D01*
Y1030070D01*
X572106Y1027809D01*
X573276Y1025781D01*
X574931Y1024126D01*
X576959Y1022956D01*
X579220Y1022350D01*
X581560D01*
X583821Y1022956D01*
X585849Y1024126D01*
X587504Y1025781D01*
X587576Y1025906D01*
X1200128Y952496D01*
X1287291Y795603D01*
X1287359Y795522D01*
X1287364Y795511D01*
X1288480Y794058D01*
X1289933Y792942D01*
X1291626Y792241D01*
X1292011Y792190D01*
X1292258Y792088D01*
X1292263Y792087D01*
X1292405Y792086D01*
X1292540Y792041D01*
X1414653Y776247D01*
X1414760Y773302D01*
X1349365Y759977D01*
X1347849Y761494D01*
X1345821Y762664D01*
X1343560Y763270D01*
X1341220D01*
X1338959Y762664D01*
X1336931Y761494D01*
X1335276Y759839D01*
X1334106Y757811D01*
X1333500Y755550D01*
Y753210D01*
X1334106Y750949D01*
X1335276Y748921D01*
X1336931Y747266D01*
X1338959Y746096D01*
X1341220Y745490D01*
X1343560D01*
X1345821Y746096D01*
X1347849Y747266D01*
X1349504Y748921D01*
X1350674Y750949D01*
X1350942Y751947D01*
X1435271Y769130D01*
X1435272Y769130D01*
X1435273Y769122D01*
X1438928Y770230D01*
X1442379Y772075D01*
X1444920Y774161D01*
X1445070Y774256D01*
X1497731Y824600D01*
X1500507Y823177D01*
X1485485Y715802D01*
X1485009Y715674D01*
X1482981Y714504D01*
X1481326Y712849D01*
X1480156Y710821D01*
X1479550Y708560D01*
Y706220D01*
X1480156Y703959D01*
X1481326Y701931D01*
X1481324Y701810D01*
X1478528Y700191D01*
X1477603Y700856D01*
X1477300Y700993D01*
X1477007Y701218D01*
X1475314Y701919D01*
X1474540Y702021D01*
X1474111Y702150D01*
X1474100Y702151D01*
X1474055Y702146D01*
X1474011Y702158D01*
X1211113Y721407D01*
X1209316Y724493D01*
X1209750Y726112D01*
Y726440D01*
X1197610D01*
Y728980D01*
X1209750D01*
Y729308D01*
X1208923Y732396D01*
X1207324Y735164D01*
X1205064Y737424D01*
X1202622Y738834D01*
X1202409Y740410D01*
X1202622Y741986D01*
X1205064Y743396D01*
X1207324Y745656D01*
X1208923Y748424D01*
X1209750Y751512D01*
Y754708D01*
X1208923Y757796D01*
X1207324Y760564D01*
X1205064Y762824D01*
X1204026Y763424D01*
X1204816Y766370D01*
X1209750D01*
Y790650D01*
X1185470D01*
Y766370D01*
X1190404D01*
X1191194Y763424D01*
X1190156Y762824D01*
X1187896Y760564D01*
X1186297Y757796D01*
X1185470Y754708D01*
Y751512D01*
X1185732Y750536D01*
X1183413Y747804D01*
X1182370Y747906D01*
X1117784D01*
X1085288Y780402D01*
Y791871D01*
X1085890Y793613D01*
X1095615Y821750D01*
X1095872Y822824D01*
X1096193Y823882D01*
X1096240Y824366D01*
X1096354Y824840D01*
X1096396Y825944D01*
X1096504Y827044D01*
Y838292D01*
X1096300Y840368D01*
X1096193Y841453D01*
X1096193Y841453D01*
X1096193Y841454D01*
X1095659Y843212D01*
X1095271Y844494D01*
X1095270Y844494D01*
X1095270Y844494D01*
X1094634Y845685D01*
X1093773Y847296D01*
X1093773Y847296D01*
X1093773Y847296D01*
X1092891Y848370D01*
X1091758Y849752D01*
X1083798Y857712D01*
X1083795Y857714D01*
X1076802Y864708D01*
X1076118Y865269D01*
X1075485Y865888D01*
X1074893Y866275D01*
X1074346Y866723D01*
X1073565Y867141D01*
X1072824Y867624D01*
X1072168Y867888D01*
X1071544Y868221D01*
X1070697Y868478D01*
X1069876Y868808D01*
X1069181Y868938D01*
X1068504Y869144D01*
X1067623Y869230D01*
X1066753Y869393D01*
X802366Y892506D01*
X691430Y902204D01*
X530692Y916256D01*
X530692D01*
X530691Y916256D01*
X529746Y916339D01*
X337449Y967455D01*
X323547Y978016D01*
Y1012190D01*
X323236Y1015352D01*
X322313Y1018392D01*
X320816Y1021194D01*
X318800Y1023650D01*
X316344Y1025666D01*
X313542Y1027163D01*
X313163Y1027278D01*
X311002Y1028433D01*
X307962Y1029356D01*
X304800Y1029667D01*
X301638Y1029356D01*
X298598Y1028433D01*
X295796Y1026936D01*
X293340Y1024920D01*
X291324Y1022464D01*
X289827Y1019662D01*
X288904Y1016622D01*
X288593Y1013460D01*
X288904Y1010298D01*
X289827Y1007258D01*
X291133Y1004814D01*
Y970280D01*
X291444Y967118D01*
X292367Y964078D01*
X293864Y961276D01*
X295880Y958820D01*
X297150Y957550D01*
X298000Y956852D01*
X298806Y956104D01*
X320390Y939709D01*
X321721Y938890D01*
X323054Y938064D01*
X323076Y938056D01*
X323096Y938044D01*
X324565Y937499D01*
X326030Y936951D01*
X522774Y884652D01*
X524154Y884427D01*
X525527Y884170D01*
X527869Y883965D01*
X688607Y869913D01*
X790960Y860965D01*
X830604Y789476D01*
X830985Y788923D01*
X831302Y788331D01*
X831886Y787619D01*
X832410Y786861D01*
X832892Y786394D01*
X833317Y785875D01*
X902943Y716250D01*
X905399Y714234D01*
X908201Y712737D01*
X911241Y711814D01*
X914403Y711503D01*
X925830D01*
X928992Y711814D01*
X932032Y712737D01*
X934834Y714234D01*
X935411Y714707D01*
X936932Y714300D01*
X937260D01*
Y726440D01*
X938530D01*
Y727710D01*
X950670D01*
Y728038D01*
X949843Y731126D01*
X948244Y733894D01*
X945984Y736154D01*
X943542Y737564D01*
X943328Y739140D01*
X943542Y740716D01*
X945984Y742126D01*
X948244Y744386D01*
X949843Y747154D01*
X950670Y750242D01*
Y753438D01*
X949843Y756526D01*
X948244Y759294D01*
X945984Y761554D01*
X944946Y762154D01*
X945736Y765100D01*
X950670D01*
Y789380D01*
X926390D01*
Y765100D01*
X931324D01*
X932114Y762154D01*
X931076Y761554D01*
X928816Y759294D01*
X927217Y756526D01*
X926390Y753438D01*
Y750242D01*
X927217Y747154D01*
X927470Y746716D01*
X926017Y744236D01*
X925684Y743917D01*
X921116D01*
X857847Y807186D01*
X831435Y854816D01*
X833039Y857287D01*
X1058053Y837616D01*
X1060876Y834793D01*
X1060879Y834790D01*
X1064090Y831579D01*
Y829765D01*
X1055255Y804201D01*
X1053764Y799887D01*
X1053507Y798812D01*
X1053186Y797755D01*
X1053138Y797270D01*
X1053025Y796797D01*
X1052983Y795693D01*
X1052874Y794593D01*
Y778771D01*
Y773689D01*
X1053186Y770527D01*
X1054108Y767486D01*
X1055606Y764684D01*
X1057621Y762228D01*
X1099611Y720239D01*
X1102066Y718224D01*
X1104868Y716726D01*
X1107909Y715804D01*
X1111071Y715492D01*
X1182370D01*
X1185532Y715804D01*
X1188572Y716726D01*
X1190536Y717776D01*
X1192924Y716397D01*
X1195013Y715838D01*
X1196190Y712848D01*
X1171555Y688213D01*
X1120534D01*
X1120534Y688213D01*
X1063054D01*
X1061613Y687926D01*
X926950D01*
X860454Y754422D01*
X860179Y754606D01*
X859953Y754849D01*
X859187Y755401D01*
X858886Y755538D01*
X858625Y755741D01*
X706120Y831980D01*
Y833020D01*
X705514Y835281D01*
X704344Y837309D01*
X702689Y838964D01*
X700661Y840134D01*
X698400Y840740D01*
X696060D01*
X693799Y840134D01*
X691771Y838964D01*
X690116Y837309D01*
X688946Y835281D01*
X688340Y833020D01*
Y830680D01*
X688946Y828419D01*
X690116Y826391D01*
X691771Y824736D01*
X693799Y823566D01*
X696060Y822960D01*
X698400D01*
X700661Y823566D01*
X702513Y824635D01*
X854670Y748569D01*
X854901Y748402D01*
X922362Y680941D01*
X923690Y680054D01*
X925256Y679743D01*
X1062767D01*
X1064208Y680029D01*
X1120534D01*
X1120534Y680029D01*
X1173250D01*
X1174816Y680341D01*
X1176143Y681228D01*
X1208322Y713406D01*
X1472548Y694060D01*
X1474577Y692783D01*
X1474914Y692570D01*
X1475052Y692513D01*
X1477351Y690795D01*
X1477351Y690795D01*
X1479576Y689577D01*
X1479805Y689424D01*
X1480139Y689357D01*
X1481326Y688866D01*
X1483805Y688539D01*
X1486285Y688866D01*
X1488596Y689823D01*
X1490581Y691346D01*
X1492103Y693330D01*
X1492122Y693374D01*
X1492193Y693384D01*
X1495690Y694832D01*
X1498693Y697137D01*
X1500998Y700140D01*
X1501833Y702157D01*
X1502048Y702514D01*
X1557006Y855890D01*
X1557109Y856581D01*
X1557246Y857266D01*
X1557249Y861064D01*
X1556940Y862630D01*
X1556054Y863959D01*
X1535668Y884382D01*
Y902125D01*
X1535809Y902206D01*
X1537464Y903861D01*
X1538634Y905889D01*
X1539240Y908150D01*
Y910490D01*
X1538634Y912751D01*
X1537464Y914779D01*
X1535809Y916434D01*
X1533781Y917604D01*
X1531520Y918210D01*
X1529180D01*
X1526919Y917604D01*
X1524891Y916434D01*
X1524775Y916318D01*
X1521994Y917703D01*
X1526130Y947271D01*
X1588899Y975999D01*
X1633145D01*
X1675538Y933605D01*
X1675130Y932080D01*
Y929740D01*
X1675736Y927479D01*
X1676303Y926497D01*
X1675052Y923801D01*
X1674754Y923535D01*
X1548450Y922329D01*
X1547686Y922170D01*
X1546923Y922018D01*
X1546906Y922007D01*
X1546887Y922003D01*
X1546243Y921564D01*
X1545595Y921131D01*
X1543881Y919417D01*
X1542994Y918089D01*
X1542682Y916523D01*
Y914805D01*
X1542816Y914136D01*
X1542910Y913461D01*
X1555683Y876739D01*
X1555834Y876482D01*
X1555917Y876195D01*
X1556015Y876006D01*
X1566763Y855337D01*
X1541721Y776038D01*
X1541701Y775855D01*
X1541655Y775742D01*
X1541642Y775650D01*
X1541575Y775500D01*
X1525587Y705838D01*
X1524379Y705514D01*
X1522351Y704344D01*
X1520696Y702689D01*
X1519526Y700661D01*
X1518920Y698400D01*
Y696060D01*
X1519526Y693799D01*
X1520696Y691771D01*
X1522351Y690116D01*
X1524379Y688946D01*
X1526640Y688340D01*
X1528980D01*
X1531241Y688946D01*
X1533269Y690116D01*
X1534924Y691771D01*
X1536094Y693799D01*
X1536700Y696060D01*
Y698400D01*
X1536094Y700661D01*
X1534924Y702689D01*
X1533571Y704041D01*
X1548915Y770896D01*
X1549579Y773567D01*
X1549614Y773652D01*
X1550380Y776281D01*
X1575077Y854489D01*
X1575252Y856076D01*
X1574806Y857609D01*
X1563315Y879707D01*
X1552156Y911787D01*
X1553852Y914197D01*
X1734960Y915926D01*
X1735326Y915291D01*
X1736981Y913636D01*
X1739009Y912466D01*
X1741270Y911860D01*
X1743610D01*
X1745871Y912466D01*
X1747899Y913636D01*
X1749554Y915291D01*
X1750724Y917319D01*
X1751330Y919580D01*
Y921920D01*
X1750724Y924181D01*
X1749554Y926209D01*
X1747899Y927864D01*
X1745871Y929034D01*
X1743610Y929640D01*
X1741270D01*
X1739009Y929034D01*
X1736981Y927864D01*
X1735326Y926209D01*
X1734156Y924181D01*
X1734135Y924102D01*
X1730567Y924068D01*
X1728857Y926998D01*
X1729134Y927479D01*
X1729740Y929740D01*
Y930780D01*
X1760361Y946090D01*
X1761799Y943518D01*
X1760143Y941863D01*
X1758973Y939836D01*
X1758394Y937675D01*
X1767257D01*
Y936405D01*
X1768527D01*
Y927541D01*
X1770688Y928120D01*
X1771271Y928457D01*
X1774218Y926777D01*
Y689811D01*
X1771271Y688591D01*
X1770759Y689104D01*
X1768731Y690274D01*
X1766570Y690853D01*
Y681990D01*
X1764030D01*
Y690853D01*
X1761869Y690274D01*
X1759841Y689104D01*
X1758186Y687449D01*
X1757016Y685421D01*
X1756741Y684395D01*
X1753771Y683409D01*
X1753574Y683428D01*
X1752979Y684024D01*
X1750951Y685194D01*
X1748690Y685800D01*
X1746350D01*
X1743992Y688144D01*
Y696947D01*
X1745359Y697736D01*
X1747014Y699391D01*
X1748184Y701419D01*
X1748790Y703680D01*
Y706020D01*
X1748184Y708281D01*
X1747014Y710309D01*
X1745359Y711964D01*
X1743331Y713134D01*
X1741070Y713740D01*
X1738730D01*
X1736469Y713134D01*
X1734441Y711964D01*
X1732786Y710309D01*
X1731616Y708281D01*
X1731010Y706020D01*
Y703680D01*
X1731616Y701419D01*
X1732786Y699391D01*
X1734441Y697736D01*
X1735808Y696947D01*
Y687074D01*
X1733521Y685444D01*
X1732862Y685277D01*
X1730910Y685800D01*
X1729276D01*
X1728350Y686726D01*
Y688742D01*
X1728038Y690308D01*
X1727151Y691635D01*
X1720504Y698282D01*
X1721614Y699391D01*
X1722784Y701419D01*
X1723390Y703680D01*
Y706020D01*
X1722784Y708281D01*
X1721614Y710309D01*
X1719959Y711964D01*
X1717931Y713134D01*
X1715670Y713740D01*
X1713330D01*
X1711069Y713134D01*
X1709041Y711964D01*
X1707386Y710309D01*
X1706216Y708281D01*
X1705610Y706020D01*
Y703680D01*
X1706216Y701419D01*
X1707386Y699391D01*
X1709041Y697736D01*
X1710215Y697059D01*
X1710337Y696877D01*
X1720166Y687047D01*
Y685031D01*
X1720478Y683465D01*
X1721365Y682138D01*
X1722080Y681423D01*
X1721456Y680341D01*
X1720850Y678080D01*
Y675740D01*
X1721456Y673479D01*
X1722626Y671451D01*
X1724281Y669796D01*
X1726309Y668626D01*
X1728570Y668020D01*
X1730910D01*
X1733171Y668626D01*
X1735199Y669796D01*
X1736854Y671451D01*
X1736929Y671581D01*
X1740331D01*
X1740406Y671451D01*
X1742061Y669796D01*
X1744089Y668626D01*
X1746350Y668020D01*
X1748690D01*
X1750951Y668626D01*
X1752496Y669517D01*
X1754144Y667067D01*
X1751358Y664900D01*
X1751160Y664672D01*
X1750913Y664498D01*
X1737592Y650572D01*
X1735604Y651316D01*
X1735359Y651510D01*
X1717067D01*
X1717646Y649349D01*
X1718816Y647321D01*
X1720471Y645666D01*
X1721838Y644877D01*
Y641683D01*
X1719770Y640488D01*
X1717902Y638620D01*
X1716581Y636333D01*
X1715897Y633781D01*
Y633730D01*
X1735963D01*
Y633781D01*
X1735283Y636319D01*
X1756619Y658625D01*
X1766675Y666445D01*
X1766930Y666740D01*
X1767317Y667037D01*
X1768433Y668491D01*
X1769134Y670184D01*
X1769337Y671725D01*
X1769392Y672001D01*
X1769392D01*
Y673419D01*
X1771574Y674898D01*
X1774218Y673683D01*
Y525981D01*
X1771271Y524761D01*
X1770759Y525274D01*
X1768731Y526444D01*
X1766570Y527023D01*
Y518160D01*
X1764030D01*
Y527023D01*
X1761869Y526444D01*
X1759841Y525274D01*
X1758186Y523619D01*
X1758153Y523560D01*
X1755039Y524061D01*
X1741215Y590568D01*
X1741214Y590570D01*
X1741214Y590574D01*
X1741214Y590576D01*
X1741203Y590627D01*
X1741054Y590976D01*
X1741032Y591087D01*
X1741010Y591448D01*
X1732245Y624586D01*
X1733958Y626300D01*
X1735279Y628587D01*
X1735963Y631139D01*
Y631190D01*
X1715897D01*
Y631139D01*
X1716581Y628587D01*
X1717902Y626300D01*
X1719770Y624432D01*
X1722057Y623111D01*
X1724331Y622501D01*
X1730359Y599710D01*
X1727947Y597306D01*
X1727251Y597493D01*
X1724609D01*
X1722057Y596809D01*
X1719770Y595488D01*
X1717902Y593620D01*
X1716581Y591332D01*
X1716302Y590292D01*
X1713089Y589253D01*
X1670963Y628300D01*
Y631190D01*
X1662200D01*
Y622427D01*
X1665260D01*
X1714915Y576403D01*
Y576290D01*
X1711652Y565552D01*
X1711593Y564953D01*
X1711475Y564363D01*
Y555777D01*
X1711786Y554212D01*
X1712673Y552884D01*
X1718744Y546814D01*
X1720072Y545927D01*
X1721637Y545615D01*
X1730223D01*
X1731788Y545927D01*
X1733116Y546814D01*
X1737939Y551637D01*
X1741148Y550679D01*
X1753069Y493329D01*
X1752790Y493168D01*
X1750922Y491300D01*
X1749601Y489013D01*
X1748917Y486461D01*
Y486410D01*
X1758950D01*
X1768983D01*
Y486461D01*
X1768299Y489013D01*
X1766978Y491300D01*
X1765110Y493168D01*
X1763042Y494363D01*
Y503765D01*
X1769728Y510451D01*
X1770759Y511046D01*
X1771271Y511559D01*
X1774218Y510339D01*
Y258746D01*
X257838Y257477D01*
X252768Y1263767D01*
X254847Y1265855D01*
X1774218Y1264586D01*
D02*
G37*
G36*
X1494382Y1135531D02*
X1494496Y1135069D01*
X1494632Y1134034D01*
X1495333Y1132341D01*
X1496449Y1130888D01*
X1497903Y1129772D01*
X1499596Y1129071D01*
X1501413Y1128831D01*
X1501443Y1128835D01*
X1501563Y1128814D01*
X1665453Y1132539D01*
X1665789Y1132400D01*
X1665813Y1132410D01*
X1665874Y1132455D01*
X1705981Y1118925D01*
X1706392Y1116474D01*
X1706364Y1115686D01*
X1704846Y1114169D01*
X1703676Y1112141D01*
X1703097Y1109980D01*
X1720823D01*
X1720579Y1110891D01*
X1722816Y1113223D01*
X1722846Y1113236D01*
X1767507Y1098169D01*
X1765062Y957591D01*
X1726132Y938126D01*
X1724281Y939194D01*
X1722020Y939800D01*
X1719680D01*
X1717419Y939194D01*
X1715391Y938024D01*
X1713736Y936369D01*
X1712566Y934341D01*
X1711960Y932080D01*
Y929740D01*
X1712566Y927479D01*
X1712931Y926846D01*
X1711307Y923884D01*
X1693360Y923713D01*
X1693325Y923740D01*
X1691823Y926645D01*
X1692304Y927479D01*
X1692910Y929740D01*
Y932080D01*
X1692304Y934341D01*
X1691134Y936369D01*
X1689479Y938024D01*
X1687451Y939194D01*
X1685190Y939800D01*
X1682850D01*
X1681325Y939391D01*
X1637733Y982984D01*
X1636405Y983871D01*
X1634839Y984182D01*
X1588007D01*
X1587932Y984167D01*
X1587858Y984180D01*
X1587152Y984012D01*
X1586441Y983871D01*
X1586378Y983829D01*
X1586304Y983811D01*
X1520686Y953779D01*
X1520325Y953519D01*
X1519924Y953325D01*
X1519684Y953056D01*
X1519392Y952844D01*
X1519158Y952465D01*
X1518862Y952133D01*
X1518743Y951793D01*
X1518554Y951485D01*
X1518483Y951046D01*
X1518336Y950626D01*
X1503836Y846976D01*
X1500747Y846162D01*
X1499963Y847183D01*
X1496960Y849488D01*
X1493463Y850936D01*
X1489710Y851431D01*
X1485957Y850936D01*
X1482460Y849488D01*
X1479457Y847183D01*
X1478694Y846189D01*
X1478426Y845964D01*
X1440369Y798426D01*
X1439604Y798290D01*
X1436922Y798835D01*
X1436288Y799934D01*
X1434632Y801590D01*
X1432605Y802760D01*
X1430344Y803366D01*
X1429530D01*
X1428828Y804866D01*
X1428775Y804979D01*
X1428351Y805926D01*
X1427625Y807553D01*
X1427624Y807554D01*
X1426644Y810094D01*
X1408073Y860693D01*
X1451996Y924139D01*
X1452077Y924143D01*
X1452183Y924187D01*
X1452273Y924405D01*
X1454444Y926279D01*
X1513807Y976331D01*
X1516054Y978104D01*
X1516099Y978123D01*
Y978122D01*
X1516104Y978137D01*
X1611828Y1008639D01*
X1612646Y1007820D01*
X1614674Y1006650D01*
X1616935Y1006044D01*
X1619275D01*
X1621536Y1006650D01*
X1623564Y1007820D01*
X1625219Y1009476D01*
X1625247Y1009525D01*
X1628668Y1009557D01*
X1647570Y978189D01*
X1647729Y978014D01*
X1647964Y977576D01*
X1649903Y975213D01*
X1652266Y973274D01*
X1653985Y972355D01*
X1654307Y972118D01*
X1695376Y952859D01*
X1696536Y949649D01*
X1695956Y949069D01*
X1694786Y947041D01*
X1694180Y944780D01*
Y942440D01*
X1694786Y940179D01*
X1695956Y938151D01*
X1697611Y936496D01*
X1699639Y935326D01*
X1701900Y934720D01*
X1704240D01*
X1706501Y935326D01*
X1708529Y936496D01*
X1710184Y938151D01*
X1711354Y940179D01*
X1711960Y942440D01*
Y944780D01*
X1711354Y947041D01*
X1710184Y949069D01*
X1708529Y950724D01*
X1706501Y951894D01*
X1704240Y952500D01*
X1704207D01*
X1702496Y957235D01*
X1701670Y958602D01*
X1701670Y958602D01*
X1701670Y958602D01*
X1700385Y959549D01*
X1667427Y975004D01*
X1667092Y978194D01*
X1667230Y978351D01*
X1668958Y980079D01*
X1670153Y982148D01*
X1716707D01*
X1717902Y980079D01*
X1719770Y978212D01*
X1722057Y976891D01*
X1724609Y976207D01*
X1727251D01*
X1729803Y976891D01*
X1732090Y978212D01*
X1733958Y980079D01*
X1735279Y982367D01*
X1735963Y984919D01*
Y987561D01*
X1735279Y990112D01*
X1733958Y992400D01*
X1732090Y994268D01*
X1729803Y995589D01*
X1727251Y996273D01*
X1724609D01*
X1722057Y995589D01*
X1719770Y994268D01*
X1717902Y992400D01*
X1716707Y990332D01*
X1670153D01*
X1668958Y992400D01*
X1667090Y994268D01*
X1664803Y995589D01*
X1662251Y996273D01*
X1659609D01*
X1657057Y995589D01*
X1654769Y994268D01*
X1652901Y992400D01*
X1652461Y991637D01*
X1649040Y991605D01*
X1630486Y1022395D01*
X1630486Y1022395D01*
X1630496Y1022401D01*
X1628358Y1025188D01*
X1625355Y1027492D01*
X1621858Y1028941D01*
X1618105Y1029435D01*
X1617295Y1029328D01*
X1617091Y1029354D01*
X1493003Y1020628D01*
X1491698Y1023490D01*
X1492436Y1024228D01*
X1493607Y1026255D01*
X1494212Y1028516D01*
Y1030857D01*
X1493607Y1033118D01*
X1493118Y1033964D01*
X1495680Y1037783D01*
X1542401Y1107440D01*
X1544220D01*
X1546481Y1108046D01*
X1548509Y1109216D01*
X1550164Y1110871D01*
X1551334Y1112899D01*
X1551940Y1115160D01*
Y1117500D01*
X1551334Y1119761D01*
X1550164Y1121789D01*
X1548509Y1123444D01*
X1546481Y1124614D01*
X1544220Y1125220D01*
X1541880D01*
X1539619Y1124614D01*
X1537591Y1123444D01*
X1535936Y1121789D01*
X1534766Y1119761D01*
X1534160Y1117500D01*
Y1115160D01*
X1534766Y1112899D01*
X1535433Y1111742D01*
X1488883Y1042341D01*
X1486358Y1038577D01*
X1484152D01*
X1481891Y1037971D01*
X1479864Y1036800D01*
X1478209Y1035145D01*
X1477038Y1033118D01*
X1476432Y1030857D01*
Y1028516D01*
X1477038Y1026255D01*
X1478209Y1024228D01*
X1479784Y1022652D01*
X1479745Y1021222D01*
X1478972Y1019685D01*
X1466850D01*
X1466748Y1019665D01*
X1466486Y1019773D01*
X1466476Y1019737D01*
X1330529Y1057582D01*
X1329460Y1060885D01*
X1330569Y1062357D01*
X1353077Y1061553D01*
X1353152Y1061565D01*
X1353228Y1061550D01*
X1353319Y1061568D01*
X1353327Y1061567D01*
X1355144Y1061806D01*
X1356837Y1062507D01*
X1358291Y1063623D01*
X1359407Y1065077D01*
X1360108Y1066770D01*
X1360347Y1068587D01*
X1360340Y1068645D01*
X1360363Y1068782D01*
X1358082Y1150904D01*
X1360108Y1153044D01*
X1493425Y1156583D01*
X1494382Y1135531D01*
D02*
G37*
%LPC*%
G36*
X309814Y1257554D02*
X307406D01*
X305081Y1256931D01*
X302995Y1255727D01*
X301293Y1254025D01*
X300089Y1251939D01*
X299466Y1249614D01*
Y1247206D01*
X300089Y1244881D01*
X301293Y1242795D01*
X302995Y1241093D01*
X305081Y1239889D01*
X307406Y1239266D01*
X309814D01*
X312139Y1239889D01*
X314224Y1241093D01*
X315927Y1242795D01*
X317131Y1244881D01*
X317754Y1247206D01*
Y1249614D01*
X317131Y1251939D01*
X315927Y1254025D01*
X314224Y1255727D01*
X312139Y1256931D01*
X309814Y1257554D01*
D02*
G37*
G36*
X317754Y1232154D02*
X309880D01*
Y1224280D01*
X317754D01*
Y1232154D01*
D02*
G37*
G36*
X307340D02*
X299466D01*
Y1224280D01*
X307340D01*
Y1232154D01*
D02*
G37*
G36*
X884712Y1228120D02*
X884660D01*
Y1219350D01*
X893430D01*
Y1219402D01*
X892746Y1221955D01*
X891424Y1224245D01*
X889555Y1226114D01*
X887265Y1227436D01*
X884712Y1228120D01*
D02*
G37*
G36*
X882120D02*
X882068D01*
X879515Y1227436D01*
X877225Y1226114D01*
X875356Y1224245D01*
X874034Y1221955D01*
X873350Y1219402D01*
Y1219350D01*
X882120D01*
Y1228120D01*
D02*
G37*
G36*
X1132362Y1225580D02*
X1132310D01*
Y1216810D01*
X1141080D01*
Y1216862D01*
X1140396Y1219415D01*
X1139074Y1221705D01*
X1137205Y1223574D01*
X1134915Y1224896D01*
X1132362Y1225580D01*
D02*
G37*
G36*
X1129770D02*
X1129718D01*
X1127165Y1224896D01*
X1124875Y1223574D01*
X1123006Y1221705D01*
X1121684Y1219415D01*
X1121000Y1216862D01*
Y1216810D01*
X1129770D01*
Y1225580D01*
D02*
G37*
G36*
X317754Y1221740D02*
X309880D01*
Y1213866D01*
X317754D01*
Y1221740D01*
D02*
G37*
G36*
X307340D02*
X299466D01*
Y1213866D01*
X307340D01*
Y1221740D01*
D02*
G37*
G36*
X943430Y1228120D02*
X923350D01*
Y1208040D01*
X943430D01*
Y1228120D01*
D02*
G37*
G36*
X909712D02*
X907068D01*
X904514Y1227436D01*
X902225Y1226114D01*
X900356Y1224245D01*
X899034Y1221955D01*
X898350Y1219402D01*
Y1216758D01*
X899034Y1214205D01*
X900356Y1211915D01*
X902225Y1210046D01*
X904514Y1208724D01*
X907068Y1208040D01*
X909712D01*
X912265Y1208724D01*
X914555Y1210046D01*
X916424Y1211915D01*
X917746Y1214205D01*
X918430Y1216758D01*
Y1219402D01*
X917746Y1221955D01*
X916424Y1224245D01*
X914555Y1226114D01*
X912265Y1227436D01*
X909712Y1228120D01*
D02*
G37*
G36*
X893430Y1216810D02*
X884660D01*
Y1208040D01*
X884712D01*
X887265Y1208724D01*
X889555Y1210046D01*
X891424Y1211915D01*
X892746Y1214205D01*
X893430Y1216758D01*
Y1216810D01*
D02*
G37*
G36*
X882120D02*
X873350D01*
Y1216758D01*
X874034Y1214205D01*
X875356Y1211915D01*
X877225Y1210046D01*
X879515Y1208724D01*
X882068Y1208040D01*
X882120D01*
Y1216810D01*
D02*
G37*
G36*
X1191080Y1225580D02*
X1171000D01*
Y1205500D01*
X1191080D01*
Y1225580D01*
D02*
G37*
G36*
X1157362D02*
X1154718D01*
X1152165Y1224896D01*
X1149875Y1223574D01*
X1148006Y1221705D01*
X1146684Y1219415D01*
X1146000Y1216862D01*
Y1214218D01*
X1146684Y1211665D01*
X1148006Y1209375D01*
X1149875Y1207506D01*
X1152165Y1206184D01*
X1154718Y1205500D01*
X1157362D01*
X1159915Y1206184D01*
X1162205Y1207506D01*
X1164074Y1209375D01*
X1165396Y1211665D01*
X1166080Y1214218D01*
Y1216862D01*
X1165396Y1219415D01*
X1164074Y1221705D01*
X1162205Y1223574D01*
X1159915Y1224896D01*
X1157362Y1225580D01*
D02*
G37*
G36*
X1141080Y1214270D02*
X1132310D01*
Y1205500D01*
X1132362D01*
X1134915Y1206184D01*
X1137205Y1207506D01*
X1139074Y1209375D01*
X1140396Y1211665D01*
X1141080Y1214218D01*
Y1214270D01*
D02*
G37*
G36*
X1129770D02*
X1121000D01*
Y1214218D01*
X1121684Y1211665D01*
X1123006Y1209375D01*
X1124875Y1207506D01*
X1127165Y1206184D01*
X1129718Y1205500D01*
X1129770D01*
Y1214270D01*
D02*
G37*
G36*
X1693545Y1182166D02*
X1684655D01*
X1683664Y1181969D01*
X1682824Y1181407D01*
X1682262Y1180567D01*
X1682065Y1179576D01*
Y1167638D01*
X1682262Y1166647D01*
X1682824Y1165807D01*
X1683664Y1165245D01*
X1684655Y1165048D01*
X1693545D01*
X1694536Y1165245D01*
X1695376Y1165807D01*
X1695938Y1166647D01*
X1696135Y1167638D01*
Y1179576D01*
X1695938Y1180567D01*
X1695376Y1181407D01*
X1694536Y1181969D01*
X1693545Y1182166D01*
D02*
G37*
G36*
X501650Y1146783D02*
Y1139190D01*
X509243D01*
X508664Y1141351D01*
X507494Y1143379D01*
X505839Y1145034D01*
X503811Y1146204D01*
X501650Y1146783D01*
D02*
G37*
G36*
X499110D02*
X496949Y1146204D01*
X494921Y1145034D01*
X493266Y1143379D01*
X492096Y1141351D01*
X491517Y1139190D01*
X499110D01*
Y1146783D01*
D02*
G37*
G36*
X509243Y1136650D02*
X501650D01*
Y1129057D01*
X503811Y1129636D01*
X505839Y1130806D01*
X507494Y1132461D01*
X508664Y1134489D01*
X509243Y1136650D01*
D02*
G37*
G36*
X499110D02*
X491517D01*
X491697Y1135978D01*
X490644Y1133735D01*
X489987Y1133221D01*
X487168Y1133144D01*
X474091D01*
X473100Y1132947D01*
X472260Y1132385D01*
X471698Y1131545D01*
X471501Y1130554D01*
Y1124712D01*
X471698Y1123721D01*
X472260Y1122881D01*
X473100Y1122319D01*
X474091Y1122122D01*
X488569D01*
X489560Y1122319D01*
X490400Y1122881D01*
X490962Y1123721D01*
X491159Y1124712D01*
Y1130436D01*
X491227Y1130496D01*
Y1130496D01*
X491434Y1130680D01*
X491476Y1130699D01*
Y1130699D01*
X491942Y1130913D01*
X491942D01*
X491942Y1130913D01*
D01*
X494867Y1130861D01*
X494921Y1130806D01*
X496949Y1129636D01*
X499110Y1129057D01*
Y1136650D01*
D02*
G37*
G36*
X963686Y1171395D02*
X959094D01*
X954589Y1170499D01*
X950346Y1168742D01*
X946528Y1166190D01*
X943280Y1162942D01*
X940729Y1159124D01*
X938971Y1154881D01*
X938075Y1150376D01*
Y1145784D01*
X938971Y1141279D01*
X940729Y1137036D01*
X943280Y1133218D01*
X946528Y1129970D01*
X950346Y1127419D01*
X954589Y1125661D01*
X959094Y1124765D01*
X963686D01*
X968191Y1125661D01*
X972434Y1127419D01*
X976252Y1129970D01*
X979500Y1133218D01*
X982051Y1137036D01*
X983809Y1141279D01*
X984705Y1145784D01*
Y1150376D01*
X983809Y1154881D01*
X982051Y1159124D01*
X979500Y1162942D01*
X976252Y1166190D01*
X972434Y1168742D01*
X968191Y1170499D01*
X963686Y1171395D01*
D02*
G37*
G36*
X857686D02*
X853094D01*
X848589Y1170499D01*
X844346Y1168742D01*
X840528Y1166190D01*
X837280Y1162942D01*
X834729Y1159124D01*
X832971Y1154881D01*
X832075Y1150376D01*
Y1145784D01*
X832971Y1141279D01*
X834729Y1137036D01*
X837280Y1133218D01*
X840528Y1129970D01*
X844346Y1127419D01*
X848589Y1125661D01*
X853094Y1124765D01*
X857686D01*
X862191Y1125661D01*
X866434Y1127419D01*
X870253Y1129970D01*
X873500Y1133218D01*
X876052Y1137036D01*
X877809Y1141279D01*
X878705Y1145784D01*
Y1150376D01*
X877809Y1154881D01*
X876052Y1159124D01*
X873500Y1162942D01*
X870253Y1166190D01*
X866434Y1168742D01*
X862191Y1170499D01*
X857686Y1171395D01*
D02*
G37*
G36*
X1211336Y1168855D02*
X1206744D01*
X1202239Y1167959D01*
X1197996Y1166201D01*
X1194178Y1163650D01*
X1190930Y1160402D01*
X1188379Y1156584D01*
X1186621Y1152341D01*
X1185725Y1147836D01*
Y1143244D01*
X1186621Y1138739D01*
X1188379Y1134496D01*
X1190930Y1130678D01*
X1194178Y1127430D01*
X1197996Y1124878D01*
X1202239Y1123121D01*
X1206744Y1122225D01*
X1211336D01*
X1215841Y1123121D01*
X1220084Y1124878D01*
X1223902Y1127430D01*
X1227150Y1130678D01*
X1229702Y1134496D01*
X1231459Y1138739D01*
X1232355Y1143244D01*
Y1147836D01*
X1231459Y1152341D01*
X1229702Y1156584D01*
X1227150Y1160402D01*
X1223902Y1163650D01*
X1220084Y1166201D01*
X1215841Y1167959D01*
X1211336Y1168855D01*
D02*
G37*
G36*
X1105337D02*
X1100744D01*
X1096239Y1167959D01*
X1091996Y1166201D01*
X1088178Y1163650D01*
X1084930Y1160402D01*
X1082379Y1156584D01*
X1080621Y1152341D01*
X1079725Y1147836D01*
Y1143244D01*
X1080621Y1138739D01*
X1082379Y1134496D01*
X1084930Y1130678D01*
X1088178Y1127430D01*
X1091996Y1124878D01*
X1096239Y1123121D01*
X1100744Y1122225D01*
X1105337D01*
X1109841Y1123121D01*
X1114084Y1124878D01*
X1117903Y1127430D01*
X1121150Y1130678D01*
X1123702Y1134496D01*
X1125459Y1138739D01*
X1126355Y1143244D01*
Y1147836D01*
X1125459Y1152341D01*
X1123702Y1156584D01*
X1121150Y1160402D01*
X1117903Y1163650D01*
X1114084Y1166201D01*
X1109841Y1167959D01*
X1105337Y1168855D01*
D02*
G37*
G36*
X487299Y1006779D02*
X472821D01*
X471830Y1006582D01*
X470990Y1006020D01*
X470428Y1005180D01*
X470231Y1004189D01*
Y997331D01*
X470428Y996340D01*
X470990Y995500D01*
X471830Y994938D01*
X472821Y994741D01*
X487299D01*
X488290Y994938D01*
X489130Y995500D01*
X489692Y996340D01*
X489889Y997331D01*
Y1004189D01*
X489692Y1005180D01*
X489130Y1006020D01*
X488290Y1006582D01*
X487299Y1006779D01*
D02*
G37*
G36*
X508000Y993113D02*
Y985520D01*
X515593D01*
X515014Y987681D01*
X513844Y989709D01*
X512189Y991364D01*
X510161Y992534D01*
X508000Y993113D01*
D02*
G37*
G36*
X505460D02*
X503299Y992534D01*
X501271Y991364D01*
X499616Y989709D01*
X498446Y987681D01*
X497867Y985520D01*
X505460D01*
Y993113D01*
D02*
G37*
G36*
X515593Y982980D02*
X508000D01*
Y975387D01*
X510161Y975966D01*
X512189Y977136D01*
X513844Y978791D01*
X515014Y980819D01*
X515593Y982980D01*
D02*
G37*
G36*
X505460D02*
X497867D01*
X498446Y980819D01*
X499616Y978791D01*
X501271Y977136D01*
X503299Y975966D01*
X505460Y975387D01*
Y982980D01*
D02*
G37*
G36*
X636905Y976172D02*
X628015D01*
X627024Y975975D01*
X626184Y975413D01*
X625622Y974573D01*
X625425Y973582D01*
Y961644D01*
X625622Y960653D01*
X626184Y959813D01*
X627024Y959251D01*
X628015Y959054D01*
X636905D01*
X637896Y959251D01*
X638736Y959813D01*
X639298Y960653D01*
X639495Y961644D01*
Y973582D01*
X639298Y974573D01*
X638736Y975413D01*
X637896Y975975D01*
X636905Y976172D01*
D02*
G37*
G36*
X635000Y953743D02*
Y946150D01*
X642593D01*
X642014Y948311D01*
X640844Y950339D01*
X639189Y951994D01*
X637161Y953164D01*
X635000Y953743D01*
D02*
G37*
G36*
X632460D02*
X630299Y953164D01*
X628271Y951994D01*
X626616Y950339D01*
X625446Y948311D01*
X624867Y946150D01*
X632460D01*
Y953743D01*
D02*
G37*
G36*
X642593Y943610D02*
X635000D01*
Y936017D01*
X637161Y936596D01*
X639189Y937766D01*
X640844Y939421D01*
X642014Y941449D01*
X642593Y943610D01*
D02*
G37*
G36*
X632460D02*
X624867D01*
X625446Y941449D01*
X626616Y939421D01*
X628271Y937766D01*
X630299Y936596D01*
X632460Y936017D01*
Y943610D01*
D02*
G37*
G36*
X1765987Y935135D02*
X1758394D01*
X1758973Y932973D01*
X1760143Y930946D01*
X1761799Y929291D01*
X1763826Y928120D01*
X1765987Y927541D01*
Y935135D01*
D02*
G37*
G36*
X310228Y930500D02*
X306992D01*
X303866Y929662D01*
X301064Y928044D01*
X298776Y925756D01*
X297157Y922954D01*
X296320Y919828D01*
Y916592D01*
X297157Y913466D01*
X298776Y910664D01*
X301064Y908376D01*
X303866Y906758D01*
X306992Y905920D01*
X310228D01*
X313354Y906758D01*
X316156Y908376D01*
X318444Y910664D01*
X320062Y913466D01*
X320900Y916592D01*
Y919828D01*
X320062Y922954D01*
X318444Y925756D01*
X316156Y928044D01*
X313354Y929662D01*
X310228Y930500D01*
D02*
G37*
G36*
X613461Y857123D02*
X613410D01*
Y848360D01*
X622173D01*
Y848411D01*
X621489Y850963D01*
X620168Y853250D01*
X618300Y855118D01*
X616013Y856439D01*
X613461Y857123D01*
D02*
G37*
G36*
X610870D02*
X610819D01*
X608267Y856439D01*
X605980Y855118D01*
X604112Y853250D01*
X602791Y850963D01*
X602107Y848411D01*
Y848360D01*
X610870D01*
Y857123D01*
D02*
G37*
G36*
X658461D02*
X655819D01*
X653268Y856439D01*
X650980Y855118D01*
X649112Y853250D01*
X647791Y850963D01*
X647107Y848411D01*
Y845769D01*
X647791Y843217D01*
X649112Y840930D01*
X650980Y839062D01*
X653268Y837741D01*
X655819Y837057D01*
X658461D01*
X661013Y837741D01*
X663301Y839062D01*
X665169Y840930D01*
X666489Y843217D01*
X667173Y845769D01*
Y848411D01*
X666489Y850963D01*
X665169Y853250D01*
X663301Y855118D01*
X661013Y856439D01*
X658461Y857123D01*
D02*
G37*
G36*
X622173Y845820D02*
X613410D01*
Y837057D01*
X613461D01*
X616013Y837741D01*
X618300Y839062D01*
X620168Y840930D01*
X621489Y843217D01*
X622173Y845769D01*
Y845820D01*
D02*
G37*
G36*
X610870D02*
X602107D01*
Y845769D01*
X602791Y843217D01*
X604112Y840930D01*
X605980Y839062D01*
X608267Y837741D01*
X610819Y837057D01*
X610870D01*
Y845820D01*
D02*
G37*
G36*
X1689070Y838203D02*
Y830610D01*
X1696663D01*
X1696084Y832771D01*
X1694914Y834799D01*
X1693259Y836454D01*
X1691231Y837624D01*
X1689070Y838203D01*
D02*
G37*
G36*
X1686530D02*
X1684369Y837624D01*
X1682341Y836454D01*
X1680686Y834799D01*
X1679516Y832771D01*
X1678937Y830610D01*
X1686530D01*
Y838203D01*
D02*
G37*
G36*
X1696663Y828070D02*
X1689070D01*
Y820477D01*
X1691231Y821056D01*
X1693259Y822226D01*
X1694914Y823881D01*
X1696084Y825909D01*
X1696663Y828070D01*
D02*
G37*
G36*
X1686530D02*
X1678937D01*
X1679516Y825909D01*
X1680686Y823881D01*
X1682341Y822226D01*
X1684369Y821056D01*
X1686530Y820477D01*
Y828070D01*
D02*
G37*
G36*
X589280Y803883D02*
Y796290D01*
X596873D01*
X596294Y798451D01*
X595124Y800479D01*
X593469Y802134D01*
X591441Y803304D01*
X589280Y803883D01*
D02*
G37*
G36*
X586740D02*
X584579Y803304D01*
X582551Y802134D01*
X580896Y800479D01*
X579726Y798451D01*
X579147Y796290D01*
X586740D01*
Y803883D01*
D02*
G37*
G36*
X596873Y793750D02*
X589280D01*
Y786157D01*
X591441Y786736D01*
X593469Y787906D01*
X595124Y789561D01*
X596294Y791589D01*
X596873Y793750D01*
D02*
G37*
G36*
X586740D02*
X579147D01*
X579726Y791589D01*
X580896Y789561D01*
X582551Y787906D01*
X584579Y786736D01*
X586740Y786157D01*
Y793750D01*
D02*
G37*
G36*
X622173Y792123D02*
X613410D01*
Y783360D01*
X622173D01*
Y792123D01*
D02*
G37*
G36*
X610870D02*
X602107D01*
Y783360D01*
X610870D01*
Y792123D01*
D02*
G37*
G36*
X658461D02*
X655819D01*
X653268Y791439D01*
X650980Y790118D01*
X649112Y788250D01*
X647791Y785963D01*
X647107Y783411D01*
Y780769D01*
X647791Y778217D01*
X649112Y775929D01*
X650980Y774062D01*
X653268Y772741D01*
X655819Y772057D01*
X658461D01*
X661013Y772741D01*
X663301Y774062D01*
X665169Y775929D01*
X666489Y778217D01*
X667173Y780769D01*
Y783411D01*
X666489Y785963D01*
X665169Y788250D01*
X663301Y790118D01*
X661013Y791439D01*
X658461Y792123D01*
D02*
G37*
G36*
X622173Y780820D02*
X613410D01*
Y772057D01*
X622173D01*
Y780820D01*
D02*
G37*
G36*
X610870D02*
X602107D01*
Y772057D01*
X610870D01*
Y780820D01*
D02*
G37*
G36*
X308958Y741270D02*
X308610D01*
Y730250D01*
X319630D01*
Y730598D01*
X318792Y733724D01*
X317174Y736526D01*
X314886Y738814D01*
X312084Y740433D01*
X308958Y741270D01*
D02*
G37*
G36*
X306070D02*
X305722D01*
X302596Y740433D01*
X299794Y738814D01*
X297506Y736526D01*
X295888Y733724D01*
X295050Y730598D01*
Y730250D01*
X306070D01*
Y741270D01*
D02*
G37*
G36*
X1380490Y730543D02*
Y722950D01*
X1388083D01*
X1387504Y725111D01*
X1386334Y727139D01*
X1384679Y728794D01*
X1382651Y729964D01*
X1380490Y730543D01*
D02*
G37*
G36*
X1377950D02*
X1375789Y729964D01*
X1373761Y728794D01*
X1372106Y727139D01*
X1370936Y725111D01*
X1370357Y722950D01*
X1377950D01*
Y730543D01*
D02*
G37*
G36*
X319630Y727710D02*
X308610D01*
Y716690D01*
X308958D01*
X312084Y717527D01*
X314886Y719146D01*
X317174Y721434D01*
X318792Y724236D01*
X319630Y727362D01*
Y727710D01*
D02*
G37*
G36*
X306070D02*
X295050D01*
Y727362D01*
X295888Y724236D01*
X297506Y721434D01*
X299794Y719146D01*
X302596Y717527D01*
X305722Y716690D01*
X306070D01*
Y727710D01*
D02*
G37*
G36*
X950670Y725170D02*
X939800D01*
Y714300D01*
X940128D01*
X943216Y715127D01*
X945984Y716726D01*
X948244Y718986D01*
X949843Y721754D01*
X950670Y724842D01*
Y725170D01*
D02*
G37*
G36*
X1388083Y720410D02*
X1380490D01*
Y712817D01*
X1382651Y713396D01*
X1384679Y714566D01*
X1386334Y716221D01*
X1387504Y718249D01*
X1388083Y720410D01*
D02*
G37*
G36*
X1377950D02*
X1370357D01*
X1370936Y718249D01*
X1372106Y716221D01*
X1373761Y714566D01*
X1375789Y713396D01*
X1377950Y712817D01*
Y720410D01*
D02*
G37*
G36*
X612191Y675513D02*
X612140D01*
Y666750D01*
X620903D01*
Y666801D01*
X620219Y669353D01*
X618898Y671640D01*
X617030Y673508D01*
X614743Y674829D01*
X612191Y675513D01*
D02*
G37*
G36*
X609600D02*
X609549D01*
X606997Y674829D01*
X604710Y673508D01*
X602842Y671640D01*
X601521Y669353D01*
X600837Y666801D01*
Y666750D01*
X609600D01*
Y675513D01*
D02*
G37*
G36*
X657191D02*
X654549D01*
X651998Y674829D01*
X649710Y673508D01*
X647842Y671640D01*
X646521Y669353D01*
X645837Y666801D01*
Y664159D01*
X646521Y661607D01*
X647842Y659320D01*
X649710Y657452D01*
X651998Y656131D01*
X654549Y655447D01*
X657191D01*
X659743Y656131D01*
X662031Y657452D01*
X663898Y659320D01*
X665219Y661607D01*
X665903Y664159D01*
Y666801D01*
X665219Y669353D01*
X663898Y671640D01*
X662031Y673508D01*
X659743Y674829D01*
X657191Y675513D01*
D02*
G37*
G36*
X620903Y664210D02*
X612140D01*
Y655447D01*
X612191D01*
X614743Y656131D01*
X617030Y657452D01*
X618898Y659320D01*
X620219Y661607D01*
X620903Y664159D01*
Y664210D01*
D02*
G37*
G36*
X609600D02*
X600837D01*
Y664159D01*
X601521Y661607D01*
X602842Y659320D01*
X604710Y657452D01*
X606997Y656131D01*
X609549Y655447D01*
X609600D01*
Y664210D01*
D02*
G37*
G36*
X1727200Y661643D02*
Y654050D01*
X1734793D01*
X1734214Y656211D01*
X1733044Y658239D01*
X1731389Y659894D01*
X1729361Y661064D01*
X1727200Y661643D01*
D02*
G37*
G36*
X1724660D02*
X1722499Y661064D01*
X1720471Y659894D01*
X1718816Y658239D01*
X1717646Y656211D01*
X1717067Y654050D01*
X1724660D01*
Y661643D01*
D02*
G37*
G36*
X1634490Y647673D02*
Y640080D01*
X1642083D01*
X1641504Y642241D01*
X1640334Y644269D01*
X1638679Y645924D01*
X1636651Y647094D01*
X1634490Y647673D01*
D02*
G37*
G36*
X1631950D02*
X1629789Y647094D01*
X1627761Y645924D01*
X1626106Y644269D01*
X1624936Y642241D01*
X1624357Y640080D01*
X1631950D01*
Y647673D01*
D02*
G37*
G36*
X1659660Y642493D02*
X1650897D01*
Y636552D01*
X1642945D01*
X1642186Y637540D01*
X1634490D01*
Y629947D01*
X1635915Y630328D01*
X1636677Y629567D01*
X1638004Y628680D01*
X1639570Y628368D01*
X1642239D01*
X1642859Y625488D01*
X1561318Y588664D01*
X1561209Y588774D01*
X1559181Y589944D01*
X1557020Y590523D01*
Y581660D01*
X1555750D01*
Y580390D01*
X1546887D01*
X1547466Y578229D01*
X1548636Y576201D01*
X1550291Y574546D01*
X1550621Y574356D01*
X1531860Y437162D01*
X1523013D01*
X1522224Y438529D01*
X1520569Y440184D01*
X1518541Y441354D01*
X1516380Y441933D01*
Y433070D01*
Y424207D01*
X1518541Y424786D01*
X1520569Y425956D01*
X1522224Y427611D01*
X1523013Y428978D01*
X1535430D01*
X1535945Y429081D01*
X1536469Y429112D01*
X1536721Y429235D01*
X1536996Y429290D01*
X1537433Y429581D01*
X1537905Y429811D01*
X1538090Y430021D01*
X1538323Y430177D01*
X1538615Y430613D01*
X1538963Y431006D01*
X1539055Y431271D01*
X1539210Y431504D01*
X1539313Y432019D01*
X1539484Y432516D01*
X1558730Y573255D01*
X1559181Y573376D01*
X1561209Y574546D01*
X1562864Y576201D01*
X1564034Y578229D01*
X1564640Y580490D01*
Y581185D01*
X1655965Y622427D01*
X1659660D01*
Y632460D01*
Y642493D01*
D02*
G37*
G36*
X1670963D02*
X1662200D01*
Y633730D01*
X1670963D01*
Y642493D01*
D02*
G37*
G36*
X1631950Y637540D02*
X1624357D01*
X1624936Y635379D01*
X1626106Y633351D01*
X1627761Y631696D01*
X1629789Y630526D01*
X1631950Y629947D01*
Y637540D01*
D02*
G37*
G36*
X620903Y610513D02*
X612140D01*
Y601750D01*
X620903D01*
Y610513D01*
D02*
G37*
G36*
X609600D02*
X600837D01*
Y601750D01*
X609600D01*
Y610513D01*
D02*
G37*
G36*
X1542415Y615619D02*
X1533525D01*
X1532534Y615422D01*
X1531694Y614860D01*
X1531132Y614020D01*
X1530935Y613029D01*
Y601091D01*
X1531132Y600100D01*
X1531694Y599260D01*
X1532534Y598698D01*
X1533525Y598501D01*
X1542415D01*
X1543406Y598698D01*
X1544246Y599260D01*
X1544808Y600100D01*
X1545005Y601091D01*
Y613029D01*
X1544808Y614020D01*
X1544246Y614860D01*
X1543406Y615422D01*
X1542415Y615619D01*
D02*
G37*
G36*
X657191Y610513D02*
X654549D01*
X651998Y609829D01*
X649710Y608508D01*
X647842Y606640D01*
X646521Y604352D01*
X645837Y601801D01*
Y599159D01*
X646521Y596607D01*
X647842Y594319D01*
X649710Y592452D01*
X651998Y591131D01*
X654549Y590447D01*
X657191D01*
X659743Y591131D01*
X662031Y592452D01*
X663898Y594319D01*
X665219Y596607D01*
X665903Y599159D01*
Y601801D01*
X665219Y604352D01*
X663898Y606640D01*
X662031Y608508D01*
X659743Y609829D01*
X657191Y610513D01*
D02*
G37*
G36*
X1554480Y590523D02*
X1552319Y589944D01*
X1550291Y588774D01*
X1548636Y587119D01*
X1547466Y585091D01*
X1546887Y582930D01*
X1554480D01*
Y590523D01*
D02*
G37*
G36*
X620903Y599210D02*
X610870D01*
X600837D01*
Y590447D01*
X604616D01*
X605408Y587516D01*
X605408Y587500D01*
X603756Y585849D01*
X602586Y583821D01*
X602007Y581660D01*
X619733D01*
X619154Y583821D01*
X617984Y585849D01*
X616332Y587500D01*
X616332Y587516D01*
X617124Y590447D01*
X620903D01*
Y599210D01*
D02*
G37*
G36*
X1662251Y597493D02*
X1659609D01*
X1657057Y596809D01*
X1654769Y595488D01*
X1652901Y593620D01*
X1651581Y591332D01*
X1650897Y588781D01*
Y586139D01*
X1651581Y583587D01*
X1652901Y581299D01*
X1654769Y579431D01*
X1657057Y578111D01*
X1659609Y577427D01*
X1662251D01*
X1664803Y578111D01*
X1667090Y579431D01*
X1668958Y581299D01*
X1670279Y583587D01*
X1670963Y586139D01*
Y588781D01*
X1670279Y591332D01*
X1668958Y593620D01*
X1667090Y595488D01*
X1664803Y596809D01*
X1662251Y597493D01*
D02*
G37*
G36*
X619733Y579120D02*
X612140D01*
Y571527D01*
X614301Y572106D01*
X616329Y573276D01*
X617984Y574931D01*
X619154Y576959D01*
X619733Y579120D01*
D02*
G37*
G36*
X609600D02*
X602007D01*
X602586Y576959D01*
X603756Y574931D01*
X605411Y573276D01*
X607439Y572106D01*
X609600Y571527D01*
Y579120D01*
D02*
G37*
G36*
X306418Y532990D02*
X306070D01*
Y521970D01*
X317090D01*
Y522318D01*
X316252Y525444D01*
X314634Y528246D01*
X312346Y530534D01*
X309544Y532152D01*
X306418Y532990D01*
D02*
G37*
G36*
X303530D02*
X303182D01*
X300056Y532152D01*
X297254Y530534D01*
X294966Y528246D01*
X293347Y525444D01*
X292510Y522318D01*
Y521970D01*
X303530D01*
Y532990D01*
D02*
G37*
G36*
X317090Y519430D02*
X306070D01*
Y508410D01*
X306418D01*
X309544Y509248D01*
X312346Y510866D01*
X314634Y513154D01*
X316252Y515956D01*
X317090Y519082D01*
Y519430D01*
D02*
G37*
G36*
X303530D02*
X292510D01*
Y519082D01*
X293347Y515956D01*
X294966Y513154D01*
X297254Y510866D01*
X300056Y509248D01*
X303182Y508410D01*
X303530D01*
Y519430D01*
D02*
G37*
G36*
X1378839Y493318D02*
X1364361D01*
X1363370Y493121D01*
X1362530Y492559D01*
X1361968Y491719D01*
X1361771Y490728D01*
Y484886D01*
X1361968Y483895D01*
X1362530Y483055D01*
X1363370Y482493D01*
X1364361Y482296D01*
X1378839D01*
X1379830Y482493D01*
X1380670Y483055D01*
X1381232Y483895D01*
X1381429Y484886D01*
Y490728D01*
X1381232Y491719D01*
X1380670Y492559D01*
X1379830Y493121D01*
X1378839Y493318D01*
D02*
G37*
G36*
X1768983Y483870D02*
X1760220D01*
Y475107D01*
X1760271D01*
X1762823Y475791D01*
X1765110Y477112D01*
X1766978Y478980D01*
X1768299Y481267D01*
X1768983Y483819D01*
Y483870D01*
D02*
G37*
G36*
X1757680D02*
X1748917D01*
Y483819D01*
X1749601Y481267D01*
X1750922Y478980D01*
X1752790Y477112D01*
X1755077Y475791D01*
X1757629Y475107D01*
X1757680D01*
Y483870D01*
D02*
G37*
G36*
X639445Y494969D02*
X630555D01*
X629564Y494772D01*
X628724Y494210D01*
X628162Y493370D01*
X627965Y492379D01*
Y480441D01*
X628162Y479450D01*
X628693Y478656D01*
X628727Y478600D01*
X629015Y477588D01*
X629119Y475896D01*
X628969Y475172D01*
X627886Y474089D01*
X626716Y472061D01*
X626137Y469900D01*
X643863D01*
X643284Y472061D01*
X642114Y474089D01*
X641031Y475172D01*
X640881Y475896D01*
X640985Y477588D01*
X641273Y478600D01*
X641307Y478656D01*
X641838Y479450D01*
X642035Y480441D01*
Y492379D01*
X641838Y493370D01*
X641276Y494210D01*
X640436Y494772D01*
X639445Y494969D01*
D02*
G37*
G36*
X643863Y467360D02*
X636270D01*
Y459767D01*
X638431Y460346D01*
X640459Y461516D01*
X642114Y463171D01*
X643284Y465199D01*
X643863Y467360D01*
D02*
G37*
G36*
X633730D02*
X626137D01*
X626716Y465199D01*
X627886Y463171D01*
X629541Y461516D01*
X631569Y460346D01*
X633730Y459767D01*
Y467360D01*
D02*
G37*
G36*
X306418Y482190D02*
X303182D01*
X300056Y481353D01*
X297254Y479734D01*
X294966Y477446D01*
X293347Y474644D01*
X292510Y471518D01*
Y468282D01*
X293347Y465156D01*
X294966Y462354D01*
X297254Y460066D01*
X300056Y458447D01*
X303182Y457610D01*
X306418D01*
X309544Y458447D01*
X312346Y460066D01*
X314634Y462354D01*
X316252Y465156D01*
X317090Y468282D01*
Y471518D01*
X316252Y474644D01*
X314634Y477446D01*
X312346Y479734D01*
X309544Y481353D01*
X306418Y482190D01*
D02*
G37*
G36*
X1760271Y469773D02*
X1757629D01*
X1755077Y469089D01*
X1752790Y467768D01*
X1750922Y465900D01*
X1749601Y463613D01*
X1748917Y461061D01*
Y458419D01*
X1749601Y455867D01*
X1750922Y453580D01*
X1752790Y451712D01*
X1755077Y450391D01*
X1757629Y449707D01*
X1760271D01*
X1762823Y450391D01*
X1765110Y451712D01*
X1766978Y453580D01*
X1768299Y455867D01*
X1768983Y458419D01*
Y461061D01*
X1768299Y463613D01*
X1766978Y465900D01*
X1765110Y467768D01*
X1762823Y469089D01*
X1760271Y469773D01*
D02*
G37*
G36*
X1513840Y441933D02*
X1511679Y441354D01*
X1509651Y440184D01*
X1507996Y438529D01*
X1506826Y436501D01*
X1506247Y434340D01*
X1513840D01*
Y441933D01*
D02*
G37*
G36*
X1760271Y444373D02*
X1757629D01*
X1755077Y443689D01*
X1752790Y442368D01*
X1750922Y440500D01*
X1749601Y438213D01*
X1748917Y435661D01*
Y433019D01*
X1749601Y430467D01*
X1750922Y428180D01*
X1752790Y426312D01*
X1755077Y424991D01*
X1757629Y424307D01*
X1760271D01*
X1762823Y424991D01*
X1765110Y426312D01*
X1766978Y428180D01*
X1768299Y430467D01*
X1768983Y433019D01*
Y435661D01*
X1768299Y438213D01*
X1766978Y440500D01*
X1765110Y442368D01*
X1762823Y443689D01*
X1760271Y444373D01*
D02*
G37*
G36*
X1513840Y431800D02*
X1506247D01*
X1506826Y429639D01*
X1507996Y427611D01*
X1509651Y425956D01*
X1511679Y424786D01*
X1513840Y424207D01*
Y431800D01*
D02*
G37*
G36*
X1378839Y369239D02*
X1364361D01*
X1363370Y369042D01*
X1362530Y368480D01*
X1361968Y367640D01*
X1361771Y366649D01*
Y359791D01*
X1361968Y358800D01*
X1362530Y357960D01*
X1363370Y357398D01*
X1364361Y357201D01*
X1378839D01*
X1379830Y357398D01*
X1380670Y357960D01*
X1381232Y358800D01*
X1381429Y359791D01*
Y366649D01*
X1381232Y367640D01*
X1380670Y368480D01*
X1379830Y369042D01*
X1378839Y369239D01*
D02*
G37*
G36*
X1407160Y353033D02*
Y345440D01*
X1414753D01*
X1414174Y347601D01*
X1413004Y349629D01*
X1411349Y351284D01*
X1409321Y352454D01*
X1407160Y353033D01*
D02*
G37*
G36*
X1404620D02*
X1402459Y352454D01*
X1400431Y351284D01*
X1398776Y349629D01*
X1397606Y347601D01*
X1397027Y345440D01*
X1404620D01*
Y353033D01*
D02*
G37*
G36*
X1414753Y342900D02*
X1407160D01*
Y335307D01*
X1409321Y335886D01*
X1411349Y337056D01*
X1413004Y338711D01*
X1414174Y340739D01*
X1414753Y342900D01*
D02*
G37*
G36*
X1404620D02*
X1397027D01*
X1397606Y340739D01*
X1398776Y338711D01*
X1400431Y337056D01*
X1402459Y335886D01*
X1404620Y335307D01*
Y342900D01*
D02*
G37*
G36*
X1559560Y331443D02*
Y323850D01*
X1567153D01*
X1566574Y326011D01*
X1565404Y328039D01*
X1563749Y329694D01*
X1561721Y330864D01*
X1559560Y331443D01*
D02*
G37*
G36*
X1557020D02*
X1554859Y330864D01*
X1552831Y329694D01*
X1551176Y328039D01*
X1550006Y326011D01*
X1549427Y323850D01*
X1557020D01*
Y331443D01*
D02*
G37*
G36*
X1567153Y321310D02*
X1559560D01*
Y313717D01*
X1561721Y314296D01*
X1563749Y315466D01*
X1565404Y317121D01*
X1566574Y319149D01*
X1567153Y321310D01*
D02*
G37*
G36*
X1557020D02*
X1549427D01*
X1550006Y319149D01*
X1551176Y317121D01*
X1552831Y315466D01*
X1554859Y314296D01*
X1557020Y313717D01*
Y321310D01*
D02*
G37*
G36*
X1171189Y313800D02*
X1168151D01*
X1165216Y313013D01*
X1162584Y311494D01*
X1160436Y309346D01*
X1158916Y306714D01*
X1158130Y303779D01*
Y300741D01*
X1158916Y297806D01*
X1160436Y295174D01*
X1162584Y293026D01*
X1165216Y291507D01*
X1168151Y290720D01*
X1171189D01*
X1174124Y291507D01*
X1176756Y293026D01*
X1178904Y295174D01*
X1180424Y297806D01*
X1181210Y300741D01*
Y303779D01*
X1180424Y306714D01*
X1178904Y309346D01*
X1176756Y311494D01*
X1174124Y313013D01*
X1171189Y313800D01*
D02*
G37*
G36*
X1120389D02*
X1117351D01*
X1114416Y313013D01*
X1111784Y311494D01*
X1109636Y309346D01*
X1108117Y306714D01*
X1107330Y303779D01*
Y300741D01*
X1108117Y297806D01*
X1109636Y295174D01*
X1111784Y293026D01*
X1114416Y291507D01*
X1117351Y290720D01*
X1120389D01*
X1123324Y291507D01*
X1125956Y293026D01*
X1128104Y295174D01*
X1129623Y297806D01*
X1130410Y300741D01*
Y303779D01*
X1129623Y306714D01*
X1128104Y309346D01*
X1125956Y311494D01*
X1123324Y313013D01*
X1120389Y313800D01*
D02*
G37*
G36*
X1069589D02*
X1066551D01*
X1063616Y313013D01*
X1060984Y311494D01*
X1058836Y309346D01*
X1057317Y306714D01*
X1056530Y303779D01*
Y300741D01*
X1057317Y297806D01*
X1058836Y295174D01*
X1060984Y293026D01*
X1063616Y291507D01*
X1066551Y290720D01*
X1069589D01*
X1072524Y291507D01*
X1075156Y293026D01*
X1077304Y295174D01*
X1078823Y297806D01*
X1079610Y300741D01*
Y303779D01*
X1078823Y306714D01*
X1077304Y309346D01*
X1075156Y311494D01*
X1072524Y313013D01*
X1069589Y313800D01*
D02*
G37*
G36*
X486461Y286893D02*
X486410D01*
Y278130D01*
X495173D01*
Y278181D01*
X494489Y280733D01*
X493168Y283020D01*
X491300Y284888D01*
X489013Y286209D01*
X486461Y286893D01*
D02*
G37*
G36*
X483870D02*
X483819D01*
X481267Y286209D01*
X478980Y284888D01*
X477112Y283020D01*
X475791Y280733D01*
X475107Y278181D01*
Y278130D01*
X483870D01*
Y286893D01*
D02*
G37*
G36*
X308958Y690470D02*
X305722D01*
X302596Y689632D01*
X299794Y688014D01*
X297506Y685726D01*
X295888Y682924D01*
X295050Y679798D01*
Y676562D01*
X295888Y673436D01*
X297506Y670634D01*
X299794Y668346D01*
X302596Y666728D01*
X305722Y665890D01*
X308958D01*
X309542Y666047D01*
X527816Y282855D01*
X526591Y280733D01*
X525907Y278181D01*
Y276946D01*
X523171Y275032D01*
X520573Y276352D01*
Y278181D01*
X519889Y280733D01*
X518568Y283020D01*
X516700Y284888D01*
X514413Y286209D01*
X511861Y286893D01*
X509219D01*
X506667Y286209D01*
X504380Y284888D01*
X502512Y283020D01*
X501191Y280733D01*
X500507Y278181D01*
Y275539D01*
X501191Y272987D01*
X502512Y270700D01*
X504380Y268832D01*
X506667Y267511D01*
X509219Y266827D01*
X511861D01*
X514413Y267511D01*
X516700Y268832D01*
X516905Y269036D01*
X528874Y262954D01*
X529211Y262860D01*
X529972Y262453D01*
X532898Y261565D01*
X535940Y261266D01*
X538982Y261565D01*
X541908Y262453D01*
X544604Y263894D01*
X546967Y265833D01*
X548906Y268196D01*
X550347Y270892D01*
X551235Y273818D01*
X551535Y276860D01*
X551342Y278810D01*
X551360Y279205D01*
X528480Y429640D01*
X528699Y429766D01*
X530354Y431421D01*
X531524Y433449D01*
X532130Y435710D01*
Y438050D01*
X531524Y440311D01*
X530354Y442339D01*
X528699Y443994D01*
X526671Y445164D01*
X524410Y445770D01*
X522070D01*
X519809Y445164D01*
X517781Y443994D01*
X516126Y442339D01*
X514956Y440311D01*
X514350Y438050D01*
Y435710D01*
X514956Y433449D01*
X516126Y431421D01*
X517781Y429766D01*
X519809Y428596D01*
X520385Y428442D01*
X541662Y288543D01*
X541012Y287722D01*
X539004Y286426D01*
X537261Y286893D01*
X534934D01*
X316648Y670107D01*
X317174Y670634D01*
X318792Y673436D01*
X319630Y676562D01*
Y679798D01*
X318792Y682924D01*
X317174Y685726D01*
X314886Y688014D01*
X312084Y689632D01*
X308958Y690470D01*
D02*
G37*
G36*
X495173Y275590D02*
X486410D01*
Y266827D01*
X486461D01*
X489013Y267511D01*
X491300Y268832D01*
X493168Y270700D01*
X494489Y272987D01*
X495173Y275539D01*
Y275590D01*
D02*
G37*
G36*
X483870D02*
X475107D01*
Y275539D01*
X475791Y272987D01*
X477112Y270700D01*
X478980Y268832D01*
X481267Y267511D01*
X483819Y266827D01*
X483870D01*
Y275590D01*
D02*
G37*
G36*
X1605280Y1054073D02*
Y1046480D01*
X1612873D01*
X1612294Y1048641D01*
X1611124Y1050669D01*
X1609469Y1052324D01*
X1607441Y1053494D01*
X1605280Y1054073D01*
D02*
G37*
G36*
X1602740D02*
X1600579Y1053494D01*
X1598551Y1052324D01*
X1596896Y1050669D01*
X1595726Y1048641D01*
X1595147Y1046480D01*
X1602740D01*
Y1054073D01*
D02*
G37*
G36*
X1550320Y1055872D02*
X1538320D01*
X1537329Y1055675D01*
X1536489Y1055113D01*
X1535927Y1054273D01*
X1535730Y1053282D01*
Y1047298D01*
X1535927Y1046307D01*
X1536489Y1045467D01*
X1537329Y1044905D01*
X1538320Y1044708D01*
X1550320D01*
X1551311Y1044905D01*
X1552151Y1045467D01*
X1552713Y1046307D01*
X1552910Y1047298D01*
Y1053282D01*
X1552713Y1054273D01*
X1552151Y1055113D01*
X1551311Y1055675D01*
X1550320Y1055872D01*
D02*
G37*
G36*
X1720823Y1107440D02*
X1703097D01*
X1703676Y1105279D01*
X1704846Y1103251D01*
X1706501Y1101596D01*
X1707868Y1100807D01*
Y1068839D01*
X1708180Y1067273D01*
X1709067Y1065946D01*
X1732685Y1042327D01*
X1730942Y1040055D01*
X1730801Y1040013D01*
X1729803Y1040589D01*
X1727251Y1041273D01*
X1727200D01*
Y1031240D01*
Y1021207D01*
X1727251D01*
X1729803Y1021891D01*
X1732090Y1023212D01*
X1733958Y1025080D01*
X1735279Y1027367D01*
X1735611Y1028605D01*
X1738337Y1030067D01*
X1738909Y1030103D01*
X1739078Y1030006D01*
X1741239Y1029426D01*
Y1038290D01*
Y1047153D01*
X1739814Y1046771D01*
X1716052Y1070534D01*
Y1100807D01*
X1717419Y1101596D01*
X1719074Y1103251D01*
X1720244Y1105279D01*
X1720823Y1107440D01*
D02*
G37*
G36*
X1743779Y1047153D02*
Y1039560D01*
X1751373D01*
X1750793Y1041721D01*
X1749623Y1043748D01*
X1747968Y1045404D01*
X1745941Y1046574D01*
X1743779Y1047153D01*
D02*
G37*
G36*
X1612873Y1043940D02*
X1605280D01*
Y1036347D01*
X1607441Y1036926D01*
X1609469Y1038096D01*
X1611124Y1039751D01*
X1612294Y1041779D01*
X1612873Y1043940D01*
D02*
G37*
G36*
X1602740D02*
X1595147D01*
X1595726Y1041779D01*
X1596896Y1039751D01*
X1598551Y1038096D01*
X1600579Y1036926D01*
X1602740Y1036347D01*
Y1043940D01*
D02*
G37*
G36*
X1724660Y1041273D02*
X1724609D01*
X1722057Y1040589D01*
X1719770Y1039268D01*
X1717902Y1037400D01*
X1716581Y1035113D01*
X1715897Y1032561D01*
Y1032510D01*
X1724660D01*
Y1041273D01*
D02*
G37*
G36*
X1670963D02*
X1662200D01*
Y1032510D01*
X1670963D01*
Y1041273D01*
D02*
G37*
G36*
X1659660D02*
X1650897D01*
Y1032510D01*
X1659660D01*
Y1041273D01*
D02*
G37*
G36*
X1751373Y1037020D02*
X1743779D01*
Y1029426D01*
X1745941Y1030006D01*
X1747968Y1031176D01*
X1749623Y1032831D01*
X1750793Y1034858D01*
X1751373Y1037020D01*
D02*
G37*
G36*
X1724660Y1029970D02*
X1715897D01*
Y1029919D01*
X1716581Y1027367D01*
X1717902Y1025080D01*
X1719770Y1023212D01*
X1722057Y1021891D01*
X1724609Y1021207D01*
X1724660D01*
Y1029970D01*
D02*
G37*
G36*
X1670963D02*
X1662200D01*
Y1021207D01*
X1670963D01*
Y1029970D01*
D02*
G37*
G36*
X1659660D02*
X1650897D01*
Y1021207D01*
X1659660D01*
Y1029970D01*
D02*
G37*
G36*
X1738631Y1019785D02*
Y1012191D01*
X1746225D01*
X1745645Y1014353D01*
X1744475Y1016380D01*
X1742820Y1018035D01*
X1740793Y1019206D01*
X1738631Y1019785D01*
D02*
G37*
G36*
X1736091D02*
X1733930Y1019206D01*
X1731903Y1018035D01*
X1730247Y1016380D01*
X1729077Y1014353D01*
X1728498Y1012191D01*
X1736091D01*
Y1019785D01*
D02*
G37*
G36*
X1746225Y1009651D02*
X1738631D01*
Y1002058D01*
X1740793Y1002637D01*
X1742820Y1003808D01*
X1744475Y1005463D01*
X1745645Y1007490D01*
X1746225Y1009651D01*
D02*
G37*
G36*
X1736091D02*
X1728498D01*
X1729077Y1007490D01*
X1730247Y1005463D01*
X1731903Y1003808D01*
X1733930Y1002637D01*
X1736091Y1002058D01*
Y1009651D01*
D02*
G37*
%LPD*%
D36*
X485140Y276860D02*
D03*
X510540D02*
D03*
X535940D02*
D03*
X1758950Y485140D02*
D03*
Y459740D02*
D03*
Y434340D02*
D03*
X1725930Y1031240D02*
D03*
Y986240D02*
D03*
X1660930D02*
D03*
X610870Y665480D02*
D03*
X655870D02*
D03*
Y600480D02*
D03*
X612140Y847090D02*
D03*
X657140D02*
D03*
Y782090D02*
D03*
X1725930Y632460D02*
D03*
Y587460D02*
D03*
X1660930D02*
D03*
D39*
Y1031240D02*
D03*
Y632460D02*
D03*
D40*
X610870Y600480D02*
D03*
X612140Y782090D02*
D03*
D41*
X308610Y1223010D02*
D03*
D42*
Y1248410D02*
D03*
D49*
X1764162Y669675D02*
G03*
X1765300Y672001I-1809J2326D01*
G01*
X1764162Y669675D02*
G03*
X1765300Y672001I-1809J2326D01*
G01*
X1734066Y579324D02*
G03*
X1737209Y589735I-8137J8136D01*
G01*
X1545623Y774806D02*
G03*
X1545565Y774592I2812J-880D01*
G01*
X1514389Y981885D02*
G03*
X1513393Y981333I903J-2805D01*
G01*
X1514389Y981885D02*
G03*
X1513393Y981333I903J-2805D01*
G01*
X1449370Y927353D02*
G03*
X1448847Y926777I1899J-2253D01*
G01*
X1449370Y927353D02*
G03*
X1448847Y926777I1899J-2253D01*
G01*
X1404361Y862520D02*
G03*
X1404125Y859572I2423J-1677D01*
G01*
X1404361Y862520D02*
G03*
X1404125Y859572I2423J-1677D01*
G01*
D02*
G03*
X1404126Y859571I2658J1271D01*
G01*
X1423781Y806019D02*
G03*
X1423874Y805798I2761J1028D01*
G01*
X1423781Y806019D02*
G03*
X1423874Y805798I2761J1028D01*
G01*
X1542571Y1115039D02*
G03*
X1543048Y1116314I-2447J1641D01*
G01*
X1542571Y1115039D02*
G03*
X1543048Y1116314I-2447J1641D01*
G01*
X1496871Y829439D02*
G03*
X1481620Y843407I-7161J7491D01*
G01*
X1434455Y773139D02*
G03*
X1442242Y777214I-3165J15531D01*
G01*
X1434455Y773139D02*
G03*
X1442242Y777214I-3165J15531D01*
G01*
X1666731Y1136484D02*
G03*
X1665734Y1136638I-942J-2792D01*
G01*
X1666731Y1136484D02*
G03*
X1665734Y1136638I-942J-2792D01*
G01*
X1497461Y1157892D02*
G03*
X1494451Y1160704I-2943J-134D01*
G01*
X1497461Y1157892D02*
G03*
X1494451Y1160704I-2943J-134D01*
G01*
X1771613Y1098936D02*
G03*
X1769617Y1101776I-2946J51D01*
G01*
X1771613Y1098936D02*
G03*
X1769617Y1101776I-2946J51D01*
G01*
X1767513Y954241D02*
G03*
X1769141Y956816I-1318J2635D01*
G01*
X1767513Y954241D02*
G03*
X1769141Y956816I-1318J2635D01*
G01*
X1626981Y1020283D02*
G03*
X1617378Y1025272I-8876J-5349D01*
G01*
X1626981Y1020283D02*
G03*
X1617378Y1025272I-8876J-5349D01*
G01*
X1479550Y1015594D02*
G03*
X1479935Y1015607I0J5486D01*
G01*
X1465379Y1015795D02*
G03*
X1466850Y1015594I1471J5286D01*
G01*
X1479550D02*
G03*
X1479935Y1015607I0J5486D01*
G01*
X1651075Y980301D02*
G03*
X1656044Y975823I9855J5939D01*
G01*
X1651075Y980301D02*
G03*
X1656044Y975823I9855J5939D01*
G01*
X1465379Y1015795D02*
G03*
X1466850Y1015594I1471J5285D01*
G01*
X1310461Y1067502D02*
G03*
X1318021Y1056816I10339J-702D01*
G01*
X1310461Y1067502D02*
G03*
X1318021Y1056816I10339J-702D01*
G01*
X1490727Y697282D02*
G03*
X1498196Y703894I-2287J10108D01*
G01*
X1490727Y697282D02*
G03*
X1498196Y703894I-2287J10108D01*
G01*
X1490719Y697280D02*
G03*
X1488821Y695849I674J-2868D01*
G01*
X1490719Y697280D02*
G03*
X1488821Y695849I674J-2868D01*
G01*
X1481371Y693204D02*
G03*
X1488595Y695445I2434J4917D01*
G01*
X1475216Y697532D02*
G03*
X1473723Y698076I-1718J-2393D01*
G01*
X1475216Y697532D02*
G03*
X1473723Y698076I-1718J-2393D01*
G01*
X1481371Y693204D02*
G03*
X1488595Y695445I2434J4917D01*
G01*
X1290868Y797590D02*
G03*
X1293060Y796100I2576J1431D01*
G01*
X1290868Y797590D02*
G03*
X1293060Y796100I2576J1431D01*
G01*
X530728Y266602D02*
G03*
X547315Y278590I5212J10258D01*
G01*
X530728Y266602D02*
G03*
X547315Y278590I5212J10258D01*
G01*
X1203416Y955003D02*
G03*
X1201196Y956489I-2571J-1439D01*
G01*
X1496871Y829439D02*
G03*
X1481620Y843407I-7161J7491D01*
G01*
X1420645Y788589D02*
G03*
X1420792Y788382I8529J5887D01*
G01*
X1498469Y1135712D02*
G03*
X1501470Y1132905I2943J139D01*
G01*
X1353228Y1065642D02*
G03*
X1356273Y1068668I99J2945D01*
G01*
X1353227Y1065642D02*
G03*
X1353228Y1065642I100J2945D01*
G01*
X1477749Y695689D02*
G03*
X1477486Y695902I-1982J-2181D01*
G01*
X1477749Y695689D02*
G03*
X1481371Y693204I10691J11701D01*
G01*
X1429961Y778392D02*
G03*
X1438921Y781658I1329J10278D01*
G01*
X1421989Y787008D02*
G03*
X1437264Y787999I7185J7468D01*
G01*
X1420792Y788382D02*
G03*
X1421286Y787754I8382J6094D01*
G01*
X1421286D02*
G03*
X1421989Y787008I7888J6722D01*
G01*
X1356769Y1157048D02*
G03*
X1353902Y1154028I78J-2945D01*
G01*
X1753870Y661670D02*
X1764163Y669675D01*
X1737198Y589786D02*
X1737209Y589735D01*
X1758950Y505460D02*
X1769110Y515620D01*
X1733739Y578997D02*
X1734067Y579324D01*
X697230Y831850D02*
X856795Y752081D01*
X925256Y683834D02*
X1062767D01*
X857561Y751529D02*
X925256Y683834D01*
X856795Y752081D02*
X857561Y751529D01*
X1173250Y684121D02*
X1206752Y717624D01*
X1120534Y684121D02*
X1173250D01*
X1062767Y683834D02*
X1063054Y684121D01*
X1120534D02*
X1120534Y684121D01*
X1063054Y684121D02*
X1120534D01*
X1711960Y1068839D02*
X1742509Y1038290D01*
X1711960Y1068839D02*
Y1108710D01*
X1548489Y918238D02*
X1740523Y920071D01*
X1546774Y914805D02*
X1559547Y878083D01*
X1559646Y877893D02*
X1571176Y855721D01*
X1546774Y916523D02*
X1548489Y918238D01*
X1546774Y914805D02*
Y916523D01*
X1559547Y878083D02*
X1559646Y877893D01*
X1721897Y590311D02*
X1725930Y586278D01*
X1545623Y774806D02*
X1571176Y855721D01*
X1545564Y774585D02*
X1545565Y774592D01*
X1527810Y697230D02*
X1545564Y774585D01*
X1660930Y986240D02*
X1725930D01*
X1449370Y927353D02*
X1513392Y981333D01*
X1404361Y862521D02*
X1448846Y926777D01*
X1423776Y806032D02*
X1423781Y806019D01*
X1404126Y859572D02*
X1423776Y806032D01*
X1543048Y1116314D02*
X1543050Y1116330D01*
X1492281Y1040062D02*
X1542572Y1115039D01*
X1442242Y777214D02*
X1496871Y829439D01*
X1342390Y754380D02*
X1434454Y773139D01*
X1665722Y1136638D02*
X1665734D01*
X1769608Y1101779D02*
X1769617Y1101776D01*
X1494440Y1160703D02*
X1494451D01*
X1769141Y956816D02*
Y956826D01*
X1626981Y1020283D02*
X1651075Y980301D01*
X1479935Y1015607D02*
X1617378Y1025272D01*
X1466850Y1015594D02*
X1479550D01*
X1656044Y975822D02*
X1698647Y955844D01*
X1318021Y1056816D02*
X1465379Y1015795D01*
X1473713Y698077D02*
X1473723Y698076D01*
X1490719Y697280D02*
X1490727Y697282D01*
X1488595Y695445D02*
X1488820Y695849D01*
X1475216Y697532D02*
X1477486Y695902D01*
X1206752Y717624D02*
X1473713Y698077D01*
X1293060Y796100D02*
X1293065Y796099D01*
X580348Y1030893D02*
X1201196Y956489D01*
X510540Y276860D02*
X530728Y266602D01*
X1714500Y701040D02*
Y704850D01*
X1713230Y699770D02*
X1714500Y701040D01*
X1733739Y577473D02*
Y578997D01*
X1721637Y549707D02*
X1730223D01*
X1733739Y577473D02*
X1736293Y564363D01*
X1715567Y555777D02*
Y564363D01*
X1730223Y549707D02*
X1736293Y555777D01*
X1715567Y564363D02*
X1719007Y575682D01*
Y578123D01*
X1718108Y579021D02*
X1719007Y578123D01*
X1715567Y555777D02*
X1721637Y549707D01*
X1736293Y555777D02*
Y564363D01*
X1725930Y560070D02*
Y586278D01*
X1737209Y589735D02*
X1758950Y485140D01*
X1721897Y590311D02*
X1723079D01*
X1725930Y587460D01*
X1515110Y433070D02*
X1535430D01*
X1766570Y516890D02*
X1767840D01*
X1765300Y518160D02*
X1766570Y516890D01*
X1767840D02*
X1769110Y515620D01*
X1758950Y485140D02*
Y505460D01*
X1725930Y632460D02*
Y652780D01*
X1633220Y638810D02*
X1639570Y632460D01*
X1660930D01*
X1737195Y589802D02*
X1737198Y589786D01*
X1203421Y954994D02*
X1290868Y797590D01*
X1203416Y955002D02*
X1203421Y954994D01*
X1666950Y626440D02*
X1718108Y579021D01*
X1725930Y632460D02*
X1737054Y590402D01*
X1660930Y632460D02*
X1666950Y626440D01*
X1654910D02*
X1660930Y632460D01*
X1555750Y581660D02*
X1654910Y626440D01*
X1535430Y433070D02*
X1555750Y581660D01*
X1765300Y672001D02*
Y681990D01*
X1739900Y684629D02*
Y704850D01*
X1747520Y676910D02*
Y677009D01*
X1739900Y684629D02*
X1747520Y677009D01*
X1724258Y685031D02*
Y688742D01*
X1713230Y699770D02*
X1724258Y688742D01*
Y685031D02*
X1729740Y679550D01*
Y676910D02*
Y679550D01*
X1725930Y632460D02*
X1753870Y661670D01*
X1722732Y589476D02*
X1725930Y587460D01*
X1721897Y590311D02*
X1722732Y589476D01*
X1310461Y1067502D02*
X1318260Y1182370D01*
X1698647Y955844D02*
X1703070Y943610D01*
X1485322Y1029687D02*
X1492281Y1040062D01*
X1522389Y950059D02*
X1588007Y980090D01*
X1514397Y981888D02*
X1618105Y1014934D01*
X1588007Y980090D02*
X1634839D01*
X1497461Y1157891D02*
X1498469Y1135717D01*
X1666731Y1136484D02*
X1769608Y1101779D01*
X1501470Y1132905D02*
X1665722Y1136638D01*
X1356769Y1157048D02*
X1494440Y1160703D01*
X1252220Y1202690D02*
X1300480Y962660D01*
X1437264Y787999D02*
X1481620Y843407D01*
X1300480Y962660D02*
X1420645Y788589D01*
X1423874Y805798D02*
X1429174Y794476D01*
X1293065Y796099D02*
X1429961Y778393D01*
X1320800Y1066800D02*
X1353223Y1065642D01*
X1438921Y781658D02*
X1489710Y836930D01*
X1530350Y909320D02*
X1531576Y908094D01*
Y882690D02*
Y908094D01*
X1514389Y981885D02*
X1514397Y981888D01*
X1498196Y703895D02*
X1553154Y857270D01*
X1488440Y707390D02*
X1522389Y950059D01*
X1720850Y930910D02*
X1767513Y954241D01*
X1634839Y980090D02*
X1684020Y930910D01*
X1498469Y1135712D02*
Y1135717D01*
X1353902Y1154021D02*
Y1154028D01*
X1353223Y1065642D02*
X1353227Y1065642D01*
X1769141Y956826D02*
X1771612Y1098936D01*
X1353902Y1154021D02*
X1356273Y1068668D01*
X1531576Y882690D02*
X1553158Y861068D01*
X1553154Y857270D02*
X1553158Y861068D01*
X523240Y436880D02*
X547315Y278590D01*
X307340Y678180D02*
X535940Y276860D01*
D50*
X914403Y727710D02*
X925830D01*
X844778Y797336D02*
X914403Y727710D01*
X800955Y876360D02*
X844778Y797336D01*
X1111071Y731699D02*
X1182370D01*
X1069081Y773689D02*
X1111071Y731699D01*
X1069081Y773689D02*
Y778771D01*
X304800Y1013460D02*
X306070Y1012190D01*
X307340D01*
Y970280D02*
Y1012190D01*
Y970280D02*
X308610Y969010D01*
X1069081Y778771D02*
Y794593D01*
X1070572Y798907D02*
X1080297Y827044D01*
X1069081Y794593D02*
X1070572Y798907D01*
X1065341Y853248D02*
X1072337Y846252D01*
X800955Y876360D02*
X1065341Y853248D01*
X1072337Y846252D02*
X1080297Y838292D01*
Y827044D02*
Y838292D01*
X330193Y952614D02*
X526938Y900315D01*
X690019Y886059D02*
X800955Y876360D01*
X308610Y969010D02*
X330193Y952614D01*
X526938Y900315D02*
X529281Y900110D01*
X690019Y886059D01*
D51*
X1477749Y695689D02*
D03*
D52*
X1197610Y778510D02*
D03*
X938530Y777240D02*
D03*
D53*
X1197610Y753110D02*
D03*
Y727710D02*
D03*
X938530Y751840D02*
D03*
Y726440D02*
D03*
D54*
X933390Y1218080D02*
D03*
X1181040Y1215540D02*
D03*
D55*
X908390Y1218080D02*
D03*
X883390D02*
D03*
X1156040Y1215540D02*
D03*
X1131040D02*
D03*
D56*
X961390Y1148080D02*
D03*
X855390D02*
D03*
X1209040Y1145540D02*
D03*
X1103040D02*
D03*
D57*
X304800Y520700D02*
D03*
Y469900D02*
D03*
X307340Y728980D02*
D03*
Y678180D02*
D03*
X308610Y969010D02*
D03*
Y918210D02*
D03*
D58*
X1068070Y302260D02*
D03*
X1118870D02*
D03*
X1169670D02*
D03*
D59*
X1767257Y936405D02*
D03*
X1742440Y920750D02*
D03*
X1742509Y1038290D02*
D03*
X1711960Y1108710D02*
D03*
X1737361Y1010921D02*
D03*
X1527810Y697230D02*
D03*
X588010Y795020D02*
D03*
X610870Y580390D02*
D03*
X1604010Y1045210D02*
D03*
X1687800Y829340D02*
D03*
X304800Y1013460D02*
D03*
X1725930Y560070D02*
D03*
X1515110Y433070D02*
D03*
X1558290Y322580D02*
D03*
X1765300Y518160D02*
D03*
X1725930Y652780D02*
D03*
X1633220Y638810D02*
D03*
X500380Y1137920D02*
D03*
X633730Y944880D02*
D03*
X635000Y468630D02*
D03*
X506730Y984250D02*
D03*
X1405890Y344170D02*
D03*
X1555750Y581660D02*
D03*
X1765300Y681990D02*
D03*
X1747520Y676910D02*
D03*
X1729740D02*
D03*
X1739900Y704850D02*
D03*
X1714500D02*
D03*
X1703070Y943610D02*
D03*
X1485322Y1029687D02*
D03*
X1543050Y1116330D02*
D03*
X1318260Y1182370D02*
D03*
X1252220Y1202690D02*
D03*
X1300480Y962660D02*
D03*
X1429174Y794476D02*
D03*
X1342390Y754380D02*
D03*
X1379220Y721680D02*
D03*
X1320800Y1066800D02*
D03*
X580390Y1031240D02*
D03*
X1489710Y836930D02*
D03*
X1530350Y909320D02*
D03*
X1488440Y707390D02*
D03*
X1618105Y1014934D02*
D03*
X1720850Y930910D02*
D03*
X1684020D02*
D03*
X697230Y831850D02*
D03*
X523240Y436880D02*
D03*
M02*
