M48
;Layer_Color=9474304
;FILE_FORMAT=4:4
METRIC,LZ
;TYPE=PLATED
T01F00S00C0.7112
T02F00S00C0.8128
T03F00S00C0.9906
T04F00S00C1.0000
T05F00S00C1.2000
T06F00S00C1.2800
T07F00S00C1.3000
T08F00S00C2.7700
%
T01
X0140589Y0034417
X0155829Y0032258
X0163322Y0063881
X0172593Y0065278
X0172974Y0067691
X0174752
X017653Y0068199
X017399Y0070485
X017145
X0172593Y0056007
X017653Y0051816
X0155575Y0058166
X0152781Y0069723
X0148844Y0070739
X0137922Y0072168
X0134239Y0075438
X0151511Y0043307
X00635Y0046863
X0061087Y0058039
X0052324Y0043688
X003048Y0101346
X0050673Y0098425
X0058039Y0103124
X0063373Y0094488
X0069723Y0083185
X0058801Y0079502
X0050038Y0113792
X0131826Y0118237
X013208Y010668
X0130048Y0096266
X01485322Y01029687
X0154305Y0111633
X0153035Y0090932
X0148971Y0083693
X01429174Y00794476
X016878Y0082934
X0168402Y0093091
X0170307Y0094361
X0172085Y0093091
X0174244Y0092075
X01767257Y00936405
X01737361Y01010921
X01742509Y0103829
X0171196Y0110871
X0160401Y0104521
X01618105Y01014934
X0125222Y0120269
T02
X0030861Y0122301
Y0124841
T03
X0048514Y0027686
X0051054
X0053594
X0175895Y0043434
Y0045974
Y0048514
X0172593Y0058746
Y0063246
X0166093
Y0058746
X0065587Y0060048
X0061087
Y0066548
X0065587
X0065714Y0078209
X0061214
Y0084709
X0065714
X0166093Y0098624
Y0103124
X0172593
Y0098624
T04
X0088339Y0121808
X0090839
X0093339
X0113104Y0121554
X0115604
X0118104
T05
X0106807Y0030226
X0111887
X0116967
T06
X0119761Y0072771
Y0075311
Y0077851
X0093853Y0077724
Y0075184
Y0072644
T07
X003048Y004699
Y005207
X0030734Y0067818
Y0072898
X0030861Y0091821
Y0096901
T08
X0085539Y0114808
X0096139
X0110304Y0114554
X0120904
M30
