G04*
G04 #@! TF.GenerationSoftware,Altium Limited,Altium Designer,25.4.2 (15)*
G04*
G04 Layer_Color=65535*
%FSLAX44Y44*%
%MOMM*%
G71*
G04*
G04 #@! TF.SameCoordinates,4A3AD181-7CB4-4688-AC2E-BB694ACB6322*
G04*
G04*
G04 #@! TF.FilePolarity,Positive*
G04*
G01*
G75*
%ADD10C,0.1524*%
%ADD11C,0.1000*%
%ADD12C,0.5080*%
%ADD13C,0.2000*%
%ADD14C,0.0762*%
%ADD15C,0.2540*%
D10*
X482092Y1102614D02*
G03*
X482092Y1102614I-762J0D01*
G01*
X318541Y1222205D02*
G03*
X318507Y1249241I-9931J13506D01*
G01*
X298713D02*
G03*
X298679Y1222205I9897J-13531D01*
G01*
X1372362Y338201D02*
G03*
X1372362Y338201I-762J0D01*
G01*
X480822Y975741D02*
G03*
X480822Y975741I-762J0D01*
G01*
X633222Y945134D02*
G03*
X633222Y945134I-762J0D01*
G01*
X635762Y463931D02*
G03*
X635762Y463931I-762J0D01*
G01*
X1689862Y1151128D02*
G03*
X1689862Y1151128I-762J0D01*
G01*
X1538732Y584581D02*
G03*
X1538732Y584581I-762J0D01*
G01*
X1372362Y462788D02*
G03*
X1372362Y462788I-762J0D01*
G01*
X551434Y262890D02*
Y290830D01*
X469646Y262890D02*
X551434D01*
X469646D02*
Y290830D01*
X551434D01*
X1744980Y418846D02*
X1772920D01*
X1744980D02*
Y500634D01*
X1772920D01*
Y418846D02*
Y500634D01*
X1662188Y996987D02*
Y1020420D01*
X1671507Y1039982D02*
X1719554D01*
X1724672Y996987D02*
Y1020493D01*
X1667306Y977498D02*
X1719554D01*
X621690Y601738D02*
X645123D01*
X602128Y611057D02*
Y659104D01*
X621617Y664222D02*
X645123D01*
X664612Y606856D02*
Y659104D01*
X622960Y783348D02*
X646393D01*
X603398Y792667D02*
Y840714D01*
X622887Y845832D02*
X646393D01*
X665882Y788466D02*
Y840714D01*
X1662188Y598207D02*
Y621640D01*
X1671507Y641202D02*
X1719554D01*
X1724672Y598207D02*
Y621713D01*
X1667306Y578718D02*
X1719554D01*
X308610Y1203706D02*
Y1213079D01*
X302260Y1206246D02*
X314960D01*
X302916Y1213079D02*
X308610Y1206246D01*
X304055Y1213079D02*
X308610Y1206246D01*
X305194Y1213079D02*
X308610Y1206246D01*
X306333Y1213079D02*
X308610Y1206246D01*
X307471Y1213079D02*
X308610Y1206246D01*
X314304Y1213079D01*
X308610Y1206246D02*
X313165Y1213079D01*
X308610Y1206246D02*
X312026Y1213079D01*
X308610Y1206246D02*
X310887Y1213079D01*
X308610Y1206246D02*
X309749Y1213079D01*
X638175Y964304D02*
Y970922D01*
X626745Y964304D02*
Y970922D01*
X640715Y483101D02*
Y489719D01*
X629285Y483101D02*
Y489719D01*
X1694815Y1170298D02*
Y1176916D01*
X1683385Y1170298D02*
Y1176916D01*
X1543685Y603751D02*
Y610369D01*
X1532255Y603751D02*
Y610369D01*
D11*
X1765000Y914340D02*
G03*
X1765000Y915340I0J500D01*
G01*
D02*
G03*
X1765000Y914340I0J-500D01*
G01*
X1379220Y687930D02*
G03*
X1379220Y686930I0J-500D01*
G01*
D02*
G03*
X1379220Y687930I0J500D01*
G01*
X981390Y1218080D02*
G03*
X982390Y1218080I500J0D01*
G01*
D02*
G03*
X981390Y1218080I-500J0D01*
G01*
X1229040Y1215540D02*
G03*
X1230040Y1215540I500J0D01*
G01*
D02*
G03*
X1229040Y1215540I-500J0D01*
G01*
X1201070Y261260D02*
Y343260D01*
X1042670D02*
X1201070D01*
X1042670Y261260D02*
Y343260D01*
Y261260D02*
X1201070D01*
D12*
X573024Y276860D02*
G03*
X573024Y276860I-3810J0D01*
G01*
X1762760Y401066D02*
G03*
X1762760Y401066I-3810J0D01*
G01*
D13*
X1375140Y582060D02*
G03*
X1373140Y582060I-1000J0D01*
G01*
D02*
G03*
X1375140Y582060I1000J0D01*
G01*
X1387840Y990680D02*
G03*
X1385840Y990680I-1000J0D01*
G01*
D02*
G03*
X1387840Y990680I1000J0D01*
G01*
X1774400Y724340D02*
X1839900D01*
Y904340D01*
X1774400D02*
X1839900D01*
X1584900D02*
X1592400D01*
X1584900Y892340D02*
Y904340D01*
Y724340D02*
Y736340D01*
Y724340D02*
X1592400D01*
X1390030Y908480D02*
Y930480D01*
X1376030Y904230D02*
Y930480D01*
X1182660Y700410D02*
X1229560D01*
Y805810D01*
X1197610D02*
X1229560D01*
X923580Y699140D02*
X970480D01*
Y804540D01*
X938530D02*
X970480D01*
X957390Y1093080D02*
Y1124080D01*
X859390Y1093080D02*
X957390D01*
X859390D02*
Y1124080D01*
X957390Y1172080D02*
Y1203080D01*
X859390D02*
X957390D01*
X859390Y1172080D02*
Y1203080D01*
X1205040Y1090540D02*
Y1121540D01*
X1107040Y1090540D02*
X1205040D01*
X1107040D02*
Y1121540D01*
X1205040Y1169540D02*
Y1200540D01*
X1107040D02*
X1205040D01*
X1107040Y1169540D02*
Y1200540D01*
X1531450Y499770D02*
X1541950D01*
X1555580Y1161440D02*
X1566080D01*
X629750Y1047750D02*
X640250D01*
X629750Y376530D02*
X640250D01*
X1527640Y332740D02*
X1538140D01*
X304630Y1127100D02*
X315130D01*
X264300Y438500D02*
X345300D01*
Y552100D01*
X264300D02*
X345300D01*
X264300Y438500D02*
Y552100D01*
X266840Y646780D02*
X347840D01*
Y760380D01*
X266840D02*
X347840D01*
X266840Y646780D02*
Y760380D01*
X268110Y886810D02*
X349110D01*
Y1000410D01*
X268110D02*
X349110D01*
X268110Y886810D02*
Y1000410D01*
X1367890Y605060D02*
Y609060D01*
X1380390Y605060D02*
Y609060D01*
X1380590Y1013680D02*
Y1017680D01*
X1393090Y1013680D02*
Y1017680D01*
D14*
X1657755Y1050583D02*
X1666219Y1042119D01*
X1657755D02*
X1666219Y1050583D01*
X1657755Y1046351D02*
X1666219D01*
X1661987Y1042119D02*
Y1050583D01*
X591527Y597305D02*
X599991Y605769D01*
Y597305D02*
X591527Y605769D01*
X595759Y597305D02*
Y605769D01*
X599991Y601537D02*
X591527D01*
X592797Y778915D02*
X601261Y787379D01*
Y778915D02*
X592797Y787379D01*
X597029Y778915D02*
Y787379D01*
X601261Y783147D02*
X592797D01*
X1657755Y651803D02*
X1666219Y643339D01*
X1657755D02*
X1666219Y651803D01*
X1657755Y647571D02*
X1666219D01*
X1661987Y643339D02*
Y651803D01*
D15*
X1544331Y948688D02*
Y935992D01*
X1546870Y933453D01*
X1551949D01*
X1554488Y935992D01*
Y948688D01*
X1559566Y933453D02*
Y948688D01*
X1564644Y943609D01*
X1569723Y948688D01*
Y933453D01*
X1577340Y943609D02*
X1582419D01*
X1584958Y941070D01*
Y933453D01*
X1577340D01*
X1574801Y935992D01*
X1577340Y938531D01*
X1584958D01*
X1590036Y933453D02*
X1595115D01*
X1592576D01*
Y943609D01*
X1590036D01*
X1602732Y933453D02*
Y943609D01*
X1610350D01*
X1612889Y941070D01*
Y933453D01*
X1074420Y1261359D02*
X1084577D01*
X1079498D01*
Y1246124D01*
X1097273D02*
X1092194D01*
X1089655Y1248663D01*
Y1253742D01*
X1092194Y1256281D01*
X1097273D01*
X1099812Y1253742D01*
Y1251202D01*
X1089655D01*
X1104890Y1246124D02*
Y1256281D01*
X1107429D01*
X1109968Y1253742D01*
Y1246124D01*
Y1253742D01*
X1112508Y1256281D01*
X1115047Y1253742D01*
Y1246124D01*
X1120125Y1241046D02*
Y1256281D01*
X1127743D01*
X1130282Y1253742D01*
Y1248663D01*
X1127743Y1246124D01*
X1120125D01*
X1142978D02*
X1137899D01*
X1135360Y1248663D01*
Y1253742D01*
X1137899Y1256281D01*
X1142978D01*
X1145517Y1253742D01*
Y1251202D01*
X1135360D01*
X1150595Y1256281D02*
Y1246124D01*
Y1251202D01*
X1153135Y1253742D01*
X1155674Y1256281D01*
X1158213D01*
X1168370D02*
X1173448D01*
X1175987Y1253742D01*
Y1246124D01*
X1168370D01*
X1165830Y1248663D01*
X1168370Y1251202D01*
X1175987D01*
X1183605Y1258820D02*
Y1256281D01*
X1181066D01*
X1186144D01*
X1183605D01*
Y1248663D01*
X1186144Y1246124D01*
X1193761Y1256281D02*
Y1248663D01*
X1196301Y1246124D01*
X1203918D01*
Y1256281D01*
X1208997D02*
Y1246124D01*
Y1251202D01*
X1211536Y1253742D01*
X1214075Y1256281D01*
X1216614D01*
X1231849Y1246124D02*
X1226771D01*
X1224231Y1248663D01*
Y1253742D01*
X1226771Y1256281D01*
X1231849D01*
X1234388Y1253742D01*
Y1251202D01*
X1224231D01*
X1254702Y1261359D02*
Y1246124D01*
Y1251202D01*
X1264858Y1261359D01*
X1257241Y1253742D01*
X1264858Y1246124D01*
X1269937D02*
Y1256281D01*
X1277554D01*
X1280094Y1253742D01*
Y1246124D01*
X1287711D02*
X1292789D01*
X1295329Y1248663D01*
Y1253742D01*
X1292789Y1256281D01*
X1287711D01*
X1285172Y1253742D01*
Y1248663D01*
X1287711Y1246124D01*
X1300407Y1261359D02*
Y1246124D01*
X1308024D01*
X1310564Y1248663D01*
Y1251202D01*
Y1253742D01*
X1308024Y1256281D01*
X1300407D01*
X302768Y1157224D02*
Y1172459D01*
X310385D01*
X312925Y1169920D01*
Y1164842D01*
X310385Y1162302D01*
X302768D01*
X307846D02*
X312925Y1157224D01*
X318003Y1172459D02*
Y1157224D01*
X328160D01*
X333238D02*
X338316D01*
X335777D01*
Y1167381D01*
X333238D01*
X351012Y1152146D02*
X353552D01*
X356091Y1154685D01*
Y1167381D01*
X348473D01*
X345934Y1164842D01*
Y1159763D01*
X348473Y1157224D01*
X356091D01*
X361169Y1172459D02*
Y1157224D01*
Y1164842D01*
X363708Y1167381D01*
X368787D01*
X371326Y1164842D01*
Y1157224D01*
X378943Y1169920D02*
Y1167381D01*
X376404D01*
X381483D01*
X378943D01*
Y1159763D01*
X381483Y1157224D01*
X389100D02*
X396718D01*
X399257Y1159763D01*
X396718Y1162302D01*
X391639D01*
X389100Y1164842D01*
X391639Y1167381D01*
X399257D01*
X411953Y1157224D02*
X406874D01*
X404335Y1159763D01*
Y1164842D01*
X406874Y1167381D01*
X411953D01*
X414492Y1164842D01*
Y1162302D01*
X404335D01*
X419570Y1157224D02*
Y1167381D01*
X427188D01*
X429727Y1164842D01*
Y1157224D01*
X434805D02*
X442423D01*
X444962Y1159763D01*
X442423Y1162302D01*
X437345D01*
X434805Y1164842D01*
X437345Y1167381D01*
X444962D01*
X452579Y1157224D02*
X457658D01*
X460197Y1159763D01*
Y1164842D01*
X457658Y1167381D01*
X452579D01*
X450040Y1164842D01*
Y1159763D01*
X452579Y1157224D01*
X465275Y1167381D02*
Y1157224D01*
Y1162302D01*
X467815Y1164842D01*
X470354Y1167381D01*
X472893D01*
X1652778Y660146D02*
Y675381D01*
X1660396D01*
X1662935Y672842D01*
Y667764D01*
X1660396Y665224D01*
X1652778D01*
X1657856D02*
X1662935Y660146D01*
X1675631D02*
X1670552D01*
X1668013Y662685D01*
Y667764D01*
X1670552Y670303D01*
X1675631D01*
X1678170Y667764D01*
Y665224D01*
X1668013D01*
X1683248Y660146D02*
X1690866D01*
X1693405Y662685D01*
X1690866Y665224D01*
X1685787D01*
X1683248Y667764D01*
X1685787Y670303D01*
X1693405D01*
X1706101Y660146D02*
X1701022D01*
X1698483Y662685D01*
Y667764D01*
X1701022Y670303D01*
X1706101D01*
X1708640Y667764D01*
Y665224D01*
X1698483D01*
X1716257Y672842D02*
Y670303D01*
X1713718D01*
X1718797D01*
X1716257D01*
Y662685D01*
X1718797Y660146D01*
X1388126Y955042D02*
Y970277D01*
X1395744D01*
X1398283Y967738D01*
Y962660D01*
X1395744Y960120D01*
X1388126D01*
X1393205D02*
X1398283Y955042D01*
X1413518Y970277D02*
X1403362D01*
Y955042D01*
X1413518D01*
X1403362Y962660D02*
X1408440D01*
X1418597Y970277D02*
Y955042D01*
X1426214D01*
X1428753Y957581D01*
Y967738D01*
X1426214Y970277D01*
X1418597D01*
X1433832Y952503D02*
X1443988D01*
X1449067Y970277D02*
Y955042D01*
X1459223D01*
X1474458Y970277D02*
X1464302D01*
Y955042D01*
X1474458D01*
X1464302Y962660D02*
X1469380D01*
X1479537Y970277D02*
Y955042D01*
X1487154D01*
X1489694Y957581D01*
Y967738D01*
X1487154Y970277D01*
X1479537D01*
X1372616Y1053846D02*
Y1069081D01*
X1380233D01*
X1382773Y1066542D01*
Y1061463D01*
X1380233Y1058924D01*
X1372616D01*
X1377694D02*
X1382773Y1053846D01*
X1387851Y1051307D02*
X1398008D01*
X1403086Y1064003D02*
Y1056385D01*
X1405625Y1053846D01*
X1413243D01*
Y1064003D01*
X1418321Y1053846D02*
X1425939D01*
X1428478Y1056385D01*
X1425939Y1058924D01*
X1420860D01*
X1418321Y1061463D01*
X1420860Y1064003D01*
X1428478D01*
X1441174Y1053846D02*
X1436095D01*
X1433556Y1056385D01*
Y1061463D01*
X1436095Y1064003D01*
X1441174D01*
X1443713Y1061463D01*
Y1058924D01*
X1433556D01*
X1448791Y1064003D02*
Y1053846D01*
Y1058924D01*
X1451331Y1061463D01*
X1453870Y1064003D01*
X1456409D01*
X1464026Y1051307D02*
X1474183D01*
X1479261Y1053846D02*
X1484340D01*
X1481801D01*
Y1069081D01*
X1479261D01*
X1499575Y1053846D02*
X1494497D01*
X1491957Y1056385D01*
Y1061463D01*
X1494497Y1064003D01*
X1499575D01*
X1502114Y1061463D01*
Y1058924D01*
X1491957D01*
X1517349Y1069081D02*
Y1053846D01*
X1509732D01*
X1507193Y1056385D01*
Y1061463D01*
X1509732Y1064003D01*
X1517349D01*
X1525778Y362966D02*
Y378201D01*
X1533396D01*
X1535935Y375662D01*
Y370583D01*
X1533396Y368044D01*
X1525778D01*
X1530856D02*
X1535935Y362966D01*
X1541013Y360427D02*
X1551170D01*
X1556248Y357888D02*
Y373123D01*
X1563866D01*
X1566405Y370583D01*
Y365505D01*
X1563866Y362966D01*
X1556248D01*
X1571483Y373123D02*
Y365505D01*
X1574022Y362966D01*
X1581640D01*
Y373123D01*
X1586718Y362966D02*
X1591797D01*
X1589258D01*
Y378201D01*
X1586718D01*
X1599414Y362966D02*
X1604492D01*
X1601953D01*
Y378201D01*
X1599414D01*
X1612110Y360427D02*
X1622267D01*
X1637502Y378201D02*
Y362966D01*
X1629884D01*
X1627345Y365505D01*
Y370583D01*
X1629884Y373123D01*
X1637502D01*
X1645119Y362966D02*
X1650198D01*
X1652737Y365505D01*
Y370583D01*
X1650198Y373123D01*
X1645119D01*
X1642580Y370583D01*
Y365505D01*
X1645119Y362966D01*
X1657815Y373123D02*
Y365505D01*
X1660354Y362966D01*
X1662894Y365505D01*
X1665433Y362966D01*
X1667972Y365505D01*
Y373123D01*
X1673050Y362966D02*
Y373123D01*
X1680668D01*
X1683207Y370583D01*
Y362966D01*
X1359916Y647700D02*
Y662935D01*
X1367534D01*
X1370073Y660396D01*
Y655318D01*
X1367534Y652778D01*
X1359916D01*
X1364994D02*
X1370073Y647700D01*
X1375151Y645161D02*
X1385308D01*
X1390386Y642622D02*
Y657857D01*
X1398004D01*
X1400543Y655318D01*
Y650239D01*
X1398004Y647700D01*
X1390386D01*
X1408160D02*
X1413239D01*
X1415778Y650239D01*
Y655318D01*
X1413239Y657857D01*
X1408160D01*
X1405621Y655318D01*
Y650239D01*
X1408160Y647700D01*
X1420856Y657857D02*
Y650239D01*
X1423396Y647700D01*
X1425935Y650239D01*
X1428474Y647700D01*
X1431013Y650239D01*
Y657857D01*
X1443709Y647700D02*
X1438631D01*
X1436091Y650239D01*
Y655318D01*
X1438631Y657857D01*
X1443709D01*
X1446248Y655318D01*
Y652778D01*
X1436091D01*
X1451326Y657857D02*
Y647700D01*
Y652778D01*
X1453866Y655318D01*
X1456405Y657857D01*
X1458944D01*
X1466561Y645161D02*
X1476718D01*
X1481797Y647700D02*
X1486875D01*
X1484336D01*
Y662935D01*
X1481797D01*
X1502110Y647700D02*
X1497032D01*
X1494492Y650239D01*
Y655318D01*
X1497032Y657857D01*
X1502110D01*
X1504649Y655318D01*
Y652778D01*
X1494492D01*
X1519884Y662935D02*
Y647700D01*
X1512267D01*
X1509727Y650239D01*
Y655318D01*
X1512267Y657857D01*
X1519884D01*
X627888Y401574D02*
Y416809D01*
X635505D01*
X638045Y414270D01*
Y409192D01*
X635505Y406652D01*
X627888D01*
X632966D02*
X638045Y401574D01*
X653280Y416809D02*
X643123D01*
Y409192D01*
X648201Y411731D01*
X650741D01*
X653280Y409192D01*
Y404113D01*
X650741Y401574D01*
X645662D01*
X643123Y404113D01*
X627888Y1072896D02*
Y1088131D01*
X635505D01*
X638045Y1085592D01*
Y1080514D01*
X635505Y1077974D01*
X627888D01*
X632966D02*
X638045Y1072896D01*
X650741D02*
Y1088131D01*
X643123Y1080514D01*
X653280D01*
X1553718Y1186434D02*
Y1201669D01*
X1561335D01*
X1563875Y1199130D01*
Y1194052D01*
X1561335Y1191512D01*
X1553718D01*
X1558796D02*
X1563875Y1186434D01*
X1579110D02*
X1568953D01*
X1579110Y1196591D01*
Y1199130D01*
X1576571Y1201669D01*
X1571492D01*
X1568953Y1199130D01*
X1529588Y524764D02*
Y539999D01*
X1537206D01*
X1539745Y537460D01*
Y532382D01*
X1537206Y529842D01*
X1529588D01*
X1534666D02*
X1539745Y524764D01*
X1544823D02*
X1549901D01*
X1547362D01*
Y539999D01*
X1544823Y537460D01*
X933447Y817371D02*
Y827528D01*
X930908Y830067D01*
X925829D01*
X923290Y827528D01*
Y817371D01*
X925829Y814832D01*
X930908D01*
X928368Y819910D02*
X933447Y814832D01*
X930908D02*
X933447Y817371D01*
X938525Y830067D02*
Y814832D01*
X943603Y819910D01*
X948682Y814832D01*
Y830067D01*
X956299Y824989D02*
X961378D01*
X963917Y822449D01*
Y814832D01*
X956299D01*
X953760Y817371D01*
X956299Y819910D01*
X963917D01*
X968995Y824989D02*
Y814832D01*
Y819910D01*
X971534Y822449D01*
X974074Y824989D01*
X976613D01*
X984230Y814832D02*
Y824989D01*
X986769D01*
X989309Y822449D01*
Y814832D01*
Y822449D01*
X991848Y824989D01*
X994387Y822449D01*
Y814832D01*
X1192527Y818641D02*
Y828798D01*
X1189987Y831337D01*
X1184909D01*
X1182370Y828798D01*
Y818641D01*
X1184909Y816102D01*
X1189987D01*
X1187448Y821180D02*
X1192527Y816102D01*
X1189987D02*
X1192527Y818641D01*
X1207762Y828798D02*
X1205223Y831337D01*
X1200144D01*
X1197605Y828798D01*
Y818641D01*
X1200144Y816102D01*
X1205223D01*
X1207762Y818641D01*
X1215379Y816102D02*
X1220458D01*
X1222997Y818641D01*
Y823719D01*
X1220458Y826259D01*
X1215379D01*
X1212840Y823719D01*
Y818641D01*
X1215379Y816102D01*
X1228075D02*
X1233154D01*
X1230614D01*
Y831337D01*
X1228075D01*
X1250928D02*
Y816102D01*
X1243310D01*
X1240771Y818641D01*
Y823719D01*
X1243310Y826259D01*
X1250928D01*
X470154Y300482D02*
Y315717D01*
X477771D01*
X480311Y313178D01*
Y308099D01*
X477771Y305560D01*
X470154D01*
X485389Y300482D02*
Y315717D01*
X493007D01*
X495546Y313178D01*
Y308099D01*
X493007Y305560D01*
X485389D01*
X490467D02*
X495546Y300482D01*
X510781Y315717D02*
X500624D01*
Y300482D01*
X510781D01*
X500624Y308099D02*
X505703D01*
X526016Y313178D02*
X523477Y315717D01*
X518398D01*
X515859Y313178D01*
Y303021D01*
X518398Y300482D01*
X523477D01*
X526016Y303021D01*
X531094Y313178D02*
X533633Y315717D01*
X538712D01*
X541251Y313178D01*
Y303021D01*
X538712Y300482D01*
X533633D01*
X531094Y303021D01*
Y313178D01*
X546329D02*
X548868Y315717D01*
X553947D01*
X556486Y313178D01*
Y303021D01*
X553947Y300482D01*
X548868D01*
X546329Y303021D01*
Y313178D01*
X561564D02*
X564104Y315717D01*
X569182D01*
X571721Y313178D01*
Y310639D01*
X569182Y308099D01*
X566643D01*
X569182D01*
X571721Y305560D01*
Y303021D01*
X569182Y300482D01*
X564104D01*
X561564Y303021D01*
X586956Y313178D02*
X584417Y315717D01*
X579339D01*
X576800Y313178D01*
Y310639D01*
X579339Y308099D01*
X584417D01*
X586956Y305560D01*
Y303021D01*
X584417Y300482D01*
X579339D01*
X576800Y303021D01*
X592035Y300482D02*
Y310639D01*
X597113Y315717D01*
X602191Y310639D01*
Y300482D01*
Y308099D01*
X592035D01*
X607270Y300482D02*
Y310639D01*
X612348Y315717D01*
X617426Y310639D01*
Y300482D01*
Y308099D01*
X607270D01*
X622505Y300482D02*
Y315717D01*
X632661Y300482D01*
Y315717D01*
X637740Y308099D02*
X647896D01*
X652975Y300482D02*
Y315717D01*
X660592D01*
X663132Y313178D01*
Y308099D01*
X660592Y305560D01*
X652975D01*
X658053D02*
X663132Y300482D01*
X678367Y313178D02*
X675827Y315717D01*
X670749D01*
X668210Y313178D01*
Y303021D01*
X670749Y300482D01*
X675827D01*
X678367Y303021D01*
X693602Y300482D02*
X683445D01*
X693602Y310639D01*
Y313178D01*
X691062Y315717D01*
X685984D01*
X683445Y313178D01*
X1286546Y768352D02*
Y783587D01*
X1294164D01*
X1296703Y781048D01*
Y775970D01*
X1294164Y773430D01*
X1286546D01*
X1309399Y783587D02*
X1304320D01*
X1301781Y781048D01*
Y770891D01*
X1304320Y768352D01*
X1309399D01*
X1311938Y770891D01*
Y781048D01*
X1309399Y783587D01*
X1317016D02*
Y768352D01*
X1322095Y773430D01*
X1327173Y768352D01*
Y783587D01*
X1342408D02*
X1332251D01*
Y768352D01*
X1342408D01*
X1332251Y775970D02*
X1337330D01*
X1347486Y768352D02*
Y783587D01*
X1355104D01*
X1357643Y781048D01*
Y775970D01*
X1355104Y773430D01*
X1347486D01*
X1352565D02*
X1357643Y768352D01*
X1362722Y765813D02*
X1372878D01*
X1388113Y781048D02*
X1385574Y783587D01*
X1380496D01*
X1377957Y781048D01*
Y770891D01*
X1380496Y768352D01*
X1385574D01*
X1388113Y770891D01*
Y775970D01*
X1383035D01*
X1393192Y768352D02*
Y783587D01*
X1400809D01*
X1403348Y781048D01*
Y775970D01*
X1400809Y773430D01*
X1393192D01*
X1398270D02*
X1403348Y768352D01*
X1418583Y783587D02*
X1408427D01*
Y768352D01*
X1418583D01*
X1408427Y775970D02*
X1413505D01*
X1433819Y783587D02*
X1423662D01*
Y768352D01*
X1433819D01*
X1423662Y775970D02*
X1428740D01*
X1438897Y768352D02*
Y783587D01*
X1449054Y768352D01*
Y783587D01*
X1454132Y765813D02*
X1464289D01*
X1469367Y783587D02*
Y768352D01*
X1479524D01*
X1494759Y783587D02*
X1484602D01*
Y768352D01*
X1494759D01*
X1484602Y775970D02*
X1489680D01*
X1499837Y783587D02*
Y768352D01*
X1507455D01*
X1509994Y770891D01*
Y781048D01*
X1507455Y783587D01*
X1499837D01*
X602231Y880867D02*
X597153D01*
X594614Y878328D01*
Y868171D01*
X597153Y865632D01*
X602231D01*
X604771Y868171D01*
Y878328D01*
X602231Y880867D01*
X609849Y865632D02*
Y875789D01*
X617467D01*
X620006Y873250D01*
Y865632D01*
X625084D02*
X635241Y875789D01*
X647937Y880867D02*
X642858D01*
X640319Y878328D01*
Y868171D01*
X642858Y865632D01*
X647937D01*
X650476Y868171D01*
Y878328D01*
X647937Y880867D01*
X658093Y865632D02*
Y878328D01*
Y873250D01*
X655554D01*
X660633D01*
X658093D01*
Y878328D01*
X660633Y880867D01*
X670789Y865632D02*
Y878328D01*
Y873250D01*
X668250D01*
X673328D01*
X670789D01*
Y878328D01*
X673328Y880867D01*
X593344Y683768D02*
Y699003D01*
X598422Y693925D01*
X603501Y699003D01*
Y683768D01*
X611118D02*
X616197D01*
X618736Y686307D01*
Y691385D01*
X616197Y693925D01*
X611118D01*
X608579Y691385D01*
Y686307D01*
X611118Y683768D01*
X633971Y699003D02*
Y683768D01*
X626353D01*
X623814Y686307D01*
Y691385D01*
X626353Y693925D01*
X633971D01*
X646667Y683768D02*
X641588D01*
X639049Y686307D01*
Y691385D01*
X641588Y693925D01*
X646667D01*
X649206Y691385D01*
Y688846D01*
X639049D01*
X679676Y696464D02*
X677137Y699003D01*
X672058D01*
X669519Y696464D01*
Y693925D01*
X672058Y691385D01*
X677137D01*
X679676Y688846D01*
Y686307D01*
X677137Y683768D01*
X672058D01*
X669519Y686307D01*
X692372Y683768D02*
X687294D01*
X684754Y686307D01*
Y691385D01*
X687294Y693925D01*
X692372D01*
X694911Y691385D01*
Y688846D01*
X684754D01*
X699989Y683768D02*
X705068D01*
X702529D01*
Y699003D01*
X699989D01*
X720303Y683768D02*
X715225D01*
X712685Y686307D01*
Y691385D01*
X715225Y693925D01*
X720303D01*
X722842Y691385D01*
Y688846D01*
X712685D01*
X738077Y693925D02*
X730460D01*
X727921Y691385D01*
Y686307D01*
X730460Y683768D01*
X738077D01*
X745695Y696464D02*
Y693925D01*
X743156D01*
X748234D01*
X745695D01*
Y686307D01*
X748234Y683768D01*
X755851D02*
X760930D01*
X758391D01*
Y693925D01*
X755851D01*
X771087Y683768D02*
X776165D01*
X778704Y686307D01*
Y691385D01*
X776165Y693925D01*
X771087D01*
X768547Y691385D01*
Y686307D01*
X771087Y683768D01*
X783782D02*
Y693925D01*
X791400D01*
X793939Y691385D01*
Y683768D01*
X1034796Y381757D02*
Y366522D01*
X1044953D01*
X1050031D02*
X1055109D01*
X1052570D01*
Y376679D01*
X1050031D01*
X1067805Y361444D02*
X1070344D01*
X1072884Y363983D01*
Y376679D01*
X1065266D01*
X1062727Y374140D01*
Y369061D01*
X1065266Y366522D01*
X1072884D01*
X1077962Y381757D02*
Y366522D01*
Y374140D01*
X1080501Y376679D01*
X1085580D01*
X1088119Y374140D01*
Y366522D01*
X1095736Y379218D02*
Y376679D01*
X1093197D01*
X1098276D01*
X1095736D01*
Y369061D01*
X1098276Y366522D01*
X1131285Y379218D02*
X1128746Y381757D01*
X1123667D01*
X1121128Y379218D01*
Y369061D01*
X1123667Y366522D01*
X1128746D01*
X1131285Y369061D01*
X1138902Y366522D02*
X1143981D01*
X1146520Y369061D01*
Y374140D01*
X1143981Y376679D01*
X1138902D01*
X1136363Y374140D01*
Y369061D01*
X1138902Y366522D01*
X1151598D02*
Y376679D01*
X1159216D01*
X1161755Y374140D01*
Y366522D01*
X1166833D02*
Y376679D01*
X1174451D01*
X1176990Y374140D01*
Y366522D01*
X1189686D02*
X1184607D01*
X1182068Y369061D01*
Y374140D01*
X1184607Y376679D01*
X1189686D01*
X1192225Y374140D01*
Y371600D01*
X1182068D01*
X1207460Y376679D02*
X1199843D01*
X1197303Y374140D01*
Y369061D01*
X1199843Y366522D01*
X1207460D01*
X1215078Y379218D02*
Y376679D01*
X1212539D01*
X1217617D01*
X1215078D01*
Y369061D01*
X1217617Y366522D01*
X1227774D02*
X1232852D01*
X1235391Y369061D01*
Y374140D01*
X1232852Y376679D01*
X1227774D01*
X1225234Y374140D01*
Y369061D01*
X1227774Y366522D01*
X1240470Y376679D02*
Y366522D01*
Y371600D01*
X1243009Y374140D01*
X1245548Y376679D01*
X1248087D01*
X1540253Y647188D02*
X1537713Y649727D01*
X1532635D01*
X1530096Y647188D01*
Y637031D01*
X1532635Y634492D01*
X1537713D01*
X1540253Y637031D01*
X1545331Y634492D02*
X1550409D01*
X1547870D01*
Y644649D01*
X1545331D01*
X1558027Y634492D02*
Y644649D01*
X1565645D01*
X1568184Y642110D01*
Y634492D01*
X1573262Y644649D02*
X1583419Y634492D01*
X1578340Y639570D01*
X1583419Y644649D01*
X1573262Y634492D01*
X1691129Y1213862D02*
X1688589Y1216401D01*
X1683511D01*
X1680972Y1213862D01*
Y1203705D01*
X1683511Y1201166D01*
X1688589D01*
X1691129Y1203705D01*
X1696207Y1201166D02*
X1701285D01*
X1698746D01*
Y1211323D01*
X1696207D01*
X1708903Y1201166D02*
Y1211323D01*
X1716521D01*
X1719060Y1208783D01*
Y1201166D01*
X1724138Y1211323D02*
X1734295Y1201166D01*
X1729216Y1206244D01*
X1734295Y1211323D01*
X1724138Y1201166D01*
X1746991D02*
Y1216401D01*
X1739373Y1208783D01*
X1749530D01*
X637029Y526792D02*
X634490Y529331D01*
X629411D01*
X626872Y526792D01*
Y516635D01*
X629411Y514096D01*
X634490D01*
X637029Y516635D01*
X642107Y514096D02*
X647185D01*
X644646D01*
Y524253D01*
X642107D01*
X654803Y514096D02*
Y524253D01*
X662421D01*
X664960Y521713D01*
Y514096D01*
X670038Y524253D02*
X680195Y514096D01*
X675116Y519174D01*
X680195Y524253D01*
X670038Y514096D01*
X685273Y526792D02*
X687812Y529331D01*
X692891D01*
X695430Y526792D01*
Y524253D01*
X692891Y521713D01*
X690351D01*
X692891D01*
X695430Y519174D01*
Y516635D01*
X692891Y514096D01*
X687812D01*
X685273Y516635D01*
X634489Y1007868D02*
X631950Y1010407D01*
X626871D01*
X624332Y1007868D01*
Y997711D01*
X626871Y995172D01*
X631950D01*
X634489Y997711D01*
X639567Y995172D02*
X644645D01*
X642106D01*
Y1005329D01*
X639567D01*
X652263Y995172D02*
Y1005329D01*
X659881D01*
X662420Y1002790D01*
Y995172D01*
X667498Y1005329D02*
X677655Y995172D01*
X672576Y1000250D01*
X677655Y1005329D01*
X667498Y995172D01*
X692890D02*
X682733D01*
X692890Y1005329D01*
Y1007868D01*
X690351Y1010407D01*
X685272D01*
X682733Y1007868D01*
X1544825Y1091942D02*
X1542285Y1094481D01*
X1537207D01*
X1534668Y1091942D01*
Y1081785D01*
X1537207Y1079246D01*
X1542285D01*
X1544825Y1081785D01*
X1560060Y1094481D02*
X1554981Y1091942D01*
X1549903Y1086863D01*
Y1081785D01*
X1552442Y1079246D01*
X1557521D01*
X1560060Y1081785D01*
Y1084324D01*
X1557521Y1086863D01*
X1549903D01*
X479549Y1043428D02*
X477010Y1045967D01*
X471931D01*
X469392Y1043428D01*
Y1033271D01*
X471931Y1030732D01*
X477010D01*
X479549Y1033271D01*
X494784Y1045967D02*
X484627D01*
Y1038350D01*
X489705Y1040889D01*
X492245D01*
X494784Y1038350D01*
Y1033271D01*
X492245Y1030732D01*
X487166D01*
X484627Y1033271D01*
X494031Y1169668D02*
X491492Y1172207D01*
X486413D01*
X483874Y1169668D01*
Y1159512D01*
X486413Y1156973D01*
X491492D01*
X494031Y1159512D01*
X506727Y1156973D02*
Y1172207D01*
X499109Y1164590D01*
X509266D01*
X1371089Y530602D02*
X1368549Y533141D01*
X1363471D01*
X1360932Y530602D01*
Y520445D01*
X1363471Y517906D01*
X1368549D01*
X1371089Y520445D01*
X1376167Y530602D02*
X1378706Y533141D01*
X1383785D01*
X1386324Y530602D01*
Y528063D01*
X1383785Y525523D01*
X1381245D01*
X1383785D01*
X1386324Y522984D01*
Y520445D01*
X1383785Y517906D01*
X1378706D01*
X1376167Y520445D01*
X1537967Y461768D02*
X1535428Y464307D01*
X1530349D01*
X1527810Y461768D01*
Y451611D01*
X1530349Y449072D01*
X1535428D01*
X1537967Y451611D01*
X1553202Y449072D02*
X1543045D01*
X1553202Y459229D01*
Y461768D01*
X1550663Y464307D01*
X1545584D01*
X1543045Y461768D01*
X1371089Y405888D02*
X1368549Y408427D01*
X1363471D01*
X1360932Y405888D01*
Y395731D01*
X1363471Y393192D01*
X1368549D01*
X1371089Y395731D01*
X1376167Y393192D02*
X1381245D01*
X1378706D01*
Y408427D01*
X1376167Y405888D01*
X826770Y1263899D02*
Y1248664D01*
X834388D01*
X836927Y1251203D01*
Y1253742D01*
X834388Y1256282D01*
X826770D01*
X834388D01*
X836927Y1258821D01*
Y1261360D01*
X834388Y1263899D01*
X826770D01*
X842005Y1258821D02*
Y1248664D01*
Y1253742D01*
X844544Y1256282D01*
X847083Y1258821D01*
X849623D01*
X857240Y1248664D02*
X862318D01*
X859779D01*
Y1258821D01*
X857240D01*
X875014Y1243586D02*
X877554D01*
X880093Y1246125D01*
Y1258821D01*
X872475D01*
X869936Y1256282D01*
Y1251203D01*
X872475Y1248664D01*
X880093D01*
X885171Y1263899D02*
Y1248664D01*
Y1256282D01*
X887710Y1258821D01*
X892789D01*
X895328Y1256282D01*
Y1248664D01*
X902945Y1261360D02*
Y1258821D01*
X900406D01*
X905484D01*
X902945D01*
Y1251203D01*
X905484Y1248664D01*
X913102D02*
Y1258821D01*
X920720D01*
X923259Y1256282D01*
Y1248664D01*
X935955D02*
X930876D01*
X928337Y1251203D01*
Y1256282D01*
X930876Y1258821D01*
X935955D01*
X938494Y1256282D01*
Y1253742D01*
X928337D01*
X943572Y1248664D02*
X951190D01*
X953729Y1251203D01*
X951190Y1253742D01*
X946111D01*
X943572Y1256282D01*
X946111Y1258821D01*
X953729D01*
X958807Y1248664D02*
X966425D01*
X968964Y1251203D01*
X966425Y1253742D01*
X961347D01*
X958807Y1256282D01*
X961347Y1258821D01*
X968964D01*
X989277Y1248664D02*
Y1263899D01*
Y1253742D02*
X996895Y1258821D01*
X989277Y1253742D02*
X996895Y1248664D01*
X1004512D02*
Y1258821D01*
X1012130D01*
X1014669Y1256282D01*
Y1248664D01*
X1022287D02*
X1027365D01*
X1029904Y1251203D01*
Y1256282D01*
X1027365Y1258821D01*
X1022287D01*
X1019748Y1256282D01*
Y1251203D01*
X1022287Y1248664D01*
X1034983Y1263899D02*
Y1248664D01*
X1042600D01*
X1045139Y1251203D01*
Y1253742D01*
Y1256282D01*
X1042600Y1258821D01*
X1034983D01*
X1652778Y1074161D02*
Y1058926D01*
X1660396D01*
X1662935Y1061465D01*
Y1064004D01*
X1660396Y1066544D01*
X1652778D01*
X1660396D01*
X1662935Y1069083D01*
Y1071622D01*
X1660396Y1074161D01*
X1652778D01*
X1675631D02*
X1670552D01*
X1668013Y1071622D01*
Y1061465D01*
X1670552Y1058926D01*
X1675631D01*
X1678170Y1061465D01*
Y1071622D01*
X1675631Y1074161D01*
X1690866D02*
X1685787D01*
X1683248Y1071622D01*
Y1061465D01*
X1685787Y1058926D01*
X1690866D01*
X1693405Y1061465D01*
Y1071622D01*
X1690866Y1074161D01*
X1698483D02*
X1708640D01*
X1703562D01*
Y1058926D01*
X349296Y1230632D02*
Y1240788D01*
X354375Y1245867D01*
X359453Y1240788D01*
Y1230632D01*
Y1238249D01*
X349296D01*
X364532Y1230632D02*
Y1240788D01*
X367071D01*
X369610Y1238249D01*
Y1230632D01*
Y1238249D01*
X372149Y1240788D01*
X374688Y1238249D01*
Y1230632D01*
X379767Y1245867D02*
Y1230632D01*
X387384D01*
X389923Y1233171D01*
Y1235710D01*
Y1238249D01*
X387384Y1240788D01*
X379767D01*
X395002Y1230632D02*
X400080D01*
X397541D01*
Y1240788D01*
X395002D01*
X415315Y1230632D02*
X410237D01*
X407697Y1233171D01*
Y1238249D01*
X410237Y1240788D01*
X415315D01*
X417854Y1238249D01*
Y1235710D01*
X407697D01*
X422933Y1230632D02*
Y1240788D01*
X430550D01*
X433089Y1238249D01*
Y1230632D01*
X440707Y1243327D02*
Y1240788D01*
X438168D01*
X443246D01*
X440707D01*
Y1233171D01*
X443246Y1230632D01*
X466099Y1245867D02*
Y1230632D01*
X476255D01*
X481334D02*
X486412D01*
X483873D01*
Y1240788D01*
X481334D01*
X499108Y1225553D02*
X501647D01*
X504186Y1228092D01*
Y1240788D01*
X496569D01*
X494030Y1238249D01*
Y1233171D01*
X496569Y1230632D01*
X504186D01*
X509265Y1245867D02*
Y1230632D01*
Y1238249D01*
X511804Y1240788D01*
X516882D01*
X519421Y1238249D01*
Y1230632D01*
X527039Y1243327D02*
Y1240788D01*
X524500D01*
X529578D01*
X527039D01*
Y1233171D01*
X529578Y1230632D01*
X562587Y1243327D02*
X560048Y1245867D01*
X554970D01*
X552431Y1243327D01*
Y1240788D01*
X554970Y1238249D01*
X560048D01*
X562587Y1235710D01*
Y1233171D01*
X560048Y1230632D01*
X554970D01*
X552431Y1233171D01*
X575283Y1230632D02*
X570205D01*
X567666Y1233171D01*
Y1238249D01*
X570205Y1240788D01*
X575283D01*
X577822Y1238249D01*
Y1235710D01*
X567666D01*
X582901Y1230632D02*
Y1240788D01*
X590518D01*
X593058Y1238249D01*
Y1230632D01*
X598136D02*
X605753D01*
X608293Y1233171D01*
X605753Y1235710D01*
X600675D01*
X598136Y1238249D01*
X600675Y1240788D01*
X608293D01*
X615910Y1230632D02*
X620989D01*
X623528Y1233171D01*
Y1238249D01*
X620989Y1240788D01*
X615910D01*
X613371Y1238249D01*
Y1233171D01*
X615910Y1230632D01*
X628606Y1240788D02*
Y1230632D01*
Y1235710D01*
X631145Y1238249D01*
X633684Y1240788D01*
X636224D01*
X270253Y1018540D02*
X260096D01*
X270253Y1028697D01*
Y1031236D01*
X267714Y1033775D01*
X262635D01*
X260096Y1031236D01*
X282949Y1018540D02*
Y1033775D01*
X275331Y1026158D01*
X285488D01*
X290566Y1033775D02*
Y1023618D01*
X295644Y1018540D01*
X300723Y1023618D01*
Y1033775D01*
X321036Y1018540D02*
X326115D01*
X323576D01*
Y1028697D01*
X321036D01*
X333732Y1018540D02*
Y1028697D01*
X341350D01*
X343889Y1026158D01*
Y1018540D01*
X268983Y793745D02*
X258826D01*
Y786127D01*
X263904Y788667D01*
X266444D01*
X268983Y786127D01*
Y781049D01*
X266444Y778510D01*
X261365D01*
X258826Y781049D01*
X274061Y793745D02*
Y783588D01*
X279139Y778510D01*
X284218Y783588D01*
Y793745D01*
X304531Y778510D02*
X309610D01*
X307070D01*
Y788667D01*
X304531D01*
X317227Y778510D02*
Y788667D01*
X324845D01*
X327384Y786127D01*
Y778510D01*
X256286Y582926D02*
X258825Y585465D01*
X263904D01*
X266443Y582926D01*
Y580387D01*
X263904Y577848D01*
X261364D01*
X263904D01*
X266443Y575308D01*
Y572769D01*
X263904Y570230D01*
X258825D01*
X256286Y572769D01*
X271521Y570230D02*
Y572769D01*
X274060D01*
Y570230D01*
X271521D01*
X284217Y582926D02*
X286756Y585465D01*
X291835D01*
X294374Y582926D01*
Y580387D01*
X291835Y577848D01*
X289295D01*
X291835D01*
X294374Y575308D01*
Y572769D01*
X291835Y570230D01*
X286756D01*
X284217Y572769D01*
X299452Y585465D02*
Y575308D01*
X304530Y570230D01*
X309609Y575308D01*
Y585465D01*
X329922Y570230D02*
X335000D01*
X332461D01*
Y580387D01*
X329922D01*
X342618Y570230D02*
Y580387D01*
X350236D01*
X352775Y577848D01*
Y570230D01*
M02*
